<svg width="64" height="64" viewBox="0 0 64 64" fill="none" xmlns="http://www.w3.org/2000/svg">
<path d="M54.0656 20.9313C53.5625 18.9188 51.9812 17.4094 49.9688 16.8344C46.375 15.9 32 15.9 32 15.9C32 15.9 17.625 15.9 14.0312 16.8344C12.0188 17.3375 10.5094 18.9188 9.93437 20.9313C9 24.525 9 32 9 32C9 32 9 39.475 9.93437 43.0688C10.4375 45.0813 12.0188 46.5906 14.0312 47.1656C17.625 48.1 32 48.1 32 48.1C32 48.1 46.375 48.1 49.9688 47.1656C51.9812 46.6625 53.4906 45.0813 54.0656 43.0688C55 39.475 55 32 55 32C55 32 55 24.525 54.0656 20.9313ZM27.4 38.9V25.1L39.3313 32L27.4 38.9Z" fill="white" style="fill:white;fill-opacity:1;"/>
</svg>
