<svg width="64" height="64" viewBox="0 0 64 64" fill="none" xmlns="http://www.w3.org/2000/svg">
<g clip-path="url(#clip0_311_110)">
<path d="M32 25.6793C28.5195 25.6793 25.6792 28.5196 25.6792 32C25.6792 35.4805 28.5195 38.3208 32 38.3208C35.4804 38.3208 38.3207 35.4805 38.3207 32C38.3207 28.5196 35.4804 25.6793 32 25.6793Z" fill="white" style="fill:white;fill-opacity:1;"/>
<path d="M50.9578 32C50.9578 29.3825 50.9815 26.7888 50.8345 24.1761C50.6875 21.1414 49.9952 18.448 47.7761 16.2289C45.5522 14.005 42.8636 13.3175 39.8289 13.1705C37.2114 13.0235 34.6177 13.0472 32.005 13.0472C29.3875 13.0472 26.7938 13.0235 24.1811 13.1705C21.1464 13.3175 18.453 14.0098 16.2339 16.2289C14.01 18.4528 13.3225 21.1414 13.1755 24.1761C13.0285 26.7935 13.0522 29.3873 13.0522 32C13.0522 34.6127 13.0285 37.2112 13.1755 39.8239C13.3225 42.8586 14.0148 45.5519 16.2339 47.771C18.4578 49.9949 21.1464 50.6825 24.1811 50.8295C26.7985 50.9765 29.3923 50.9528 32.005 50.9528C34.6224 50.9528 37.2162 50.9765 39.8289 50.8295C42.8636 50.6825 45.5569 49.9902 47.7761 47.771C49.9999 45.5472 50.6875 42.8586 50.8345 39.8239C50.9862 37.2112 50.9578 34.6174 50.9578 32ZM32.0002 41.7253C26.6183 41.7253 22.2749 37.3819 22.2749 32C22.2749 26.6181 26.6183 22.2746 32.0002 22.2746C37.3821 22.2746 41.7256 26.6181 41.7256 32C41.7256 37.3819 37.3821 41.7253 32.0002 41.7253ZM42.1239 24.1476C40.8673 24.1476 39.8526 23.1329 39.8526 21.8763C39.8526 20.6198 40.8673 19.605 42.1239 19.605C43.3804 19.605 44.3952 20.6198 44.3952 21.8763C44.3904 23.1376 43.3804 24.1476 42.1239 24.1476Z" fill="white" style="fill:white;fill-opacity:1;"/>
</g>
<defs>
<clipPath id="clip0_311_110">
<rect width="38" height="38" fill="white" style="fill:white;fill-opacity:1;" transform="translate(13 13)"/>
</clipPath>
</defs>
</svg>
