<svg width="32" height="32" viewBox="0 0 32 32" fill="none" xmlns="http://www.w3.org/2000/svg">
<path d="M27.7793 4.2998C28.8373 4.2998 29.7002 5.16158 29.7002 6.2207V21.2178C29.7002 22.2771 28.8371 23.1396 27.7793 23.1396H16.3467V27.2002H22.6582C22.8571 27.2002 23.0478 27.2793 23.1885 27.4199C23.3291 27.5606 23.4082 27.7513 23.4082 27.9502C23.4082 28.149 23.3291 28.3399 23.1885 28.4805C23.0478 28.621 22.857 28.7002 22.6582 28.7002H9.3418C9.14297 28.7002 8.95216 28.621 8.81152 28.4805C8.67091 28.3399 8.59184 28.149 8.5918 27.9502C8.5918 27.7513 8.67087 27.5606 8.81152 27.4199C8.95217 27.2793 9.14291 27.2002 9.3418 27.2002H14.8467V22.4824L14.8496 22.4648L14.8477 22.4336C14.8461 22.4081 14.8405 22.387 14.8369 22.3711C14.8416 22.1789 14.9194 21.9957 15.0557 21.8594C15.1963 21.7188 15.3871 21.6396 15.5859 21.6396H27.7793C27.8348 21.6397 27.8902 21.6288 27.9414 21.6074C27.9926 21.586 28.0391 21.5541 28.0781 21.5146C28.1171 21.4752 28.1481 21.4284 28.1689 21.377C28.1794 21.3512 28.1873 21.3241 28.1924 21.2969L28.2002 21.2139V6.2207C28.2002 5.99286 28.013 5.7998 27.7793 5.7998H4.2207C3.98923 5.7998 3.7998 5.98921 3.7998 6.2207V21.2129C3.79916 21.2685 3.81024 21.3235 3.83105 21.375C3.85189 21.4266 3.88278 21.4741 3.92188 21.5137C3.96089 21.553 4.00744 21.5841 4.05859 21.6055C4.1099 21.6269 4.16511 21.6377 4.2207 21.6377H6.66895L12.2607 14.7812C12.3241 14.7037 12.4027 14.6396 12.4912 14.5928C12.5797 14.5459 12.6766 14.5175 12.7764 14.5088C12.8762 14.5 12.9769 14.5112 13.0723 14.542C13.1676 14.5728 13.2562 14.6221 13.332 14.6875L15.75 16.7705L15.9678 16.959L20.2686 12.3516L20.1836 12.1689C19.9944 11.7583 19.8838 11.3067 19.8838 10.8291L19.8877 10.6689C19.9282 9.86909 20.2641 9.11011 20.833 8.54102C21.4396 7.93424 22.2621 7.59238 23.1201 7.59082C23.9786 7.59186 24.8012 7.93407 25.4082 8.54102C25.9774 9.11015 26.314 9.86888 26.3545 10.6689L26.3584 10.8291C26.3572 11.6872 26.0151 12.5096 25.4082 13.1162C24.8011 13.723 23.9784 14.0648 23.1201 14.0654C22.522 14.0654 21.9654 13.891 21.4775 13.6006L21.2695 13.4766L16.5732 18.5098C16.4411 18.6515 16.2589 18.7374 16.0654 18.748C15.872 18.7587 15.682 18.6937 15.5352 18.5674L12.9375 16.3281L12.7422 16.5664L7.62207 22.8408C7.61071 22.85 7.5984 22.8623 7.58496 22.877L7.58398 22.876C7.52788 22.9361 7.46255 22.9875 7.39062 23.0273L7.38672 23.0293C7.36683 23.0407 7.35048 23.0522 7.33887 23.0605C7.33036 23.0667 7.32015 23.0736 7.31543 23.0771C7.22394 23.1174 7.12542 23.1392 7.02539 23.1396H4.2207C3.16162 23.1396 2.2998 22.2773 2.2998 21.2178V6.2207C2.2998 5.16146 3.16138 4.2998 4.2207 4.2998H27.7793ZM8.67578 28.7627C8.70977 28.7905 8.74625 28.8147 8.7832 28.8379C8.77517 28.8328 8.76669 28.8285 8.75879 28.8232L8.67578 28.7627ZM8.32324 27.6953C8.3305 27.6663 8.33894 27.6376 8.34863 27.6094C8.33899 27.6376 8.33046 27.6663 8.32324 27.6953ZM23.3232 27.1387C23.3499 27.1605 23.3758 27.1834 23.4004 27.208C23.5481 27.3557 23.6481 27.5423 23.6885 27.7441H23.6875C23.6538 27.576 23.5791 27.4186 23.4697 27.2852C23.4479 27.2585 23.425 27.2326 23.4004 27.208C23.3758 27.1834 23.3499 27.1605 23.3232 27.1387ZM8.47559 27.3564C8.46639 27.3699 8.45776 27.3836 8.44922 27.3975C8.45544 27.3874 8.4612 27.377 8.46777 27.3672L8.47559 27.3564ZM8.88184 27.0068C8.7783 27.0574 8.68269 27.1249 8.59961 27.208C8.68271 27.1249 8.77816 27.0574 8.88184 27.0068ZM7.67676 23.1963H7.67773H7.67676ZM14.957 21.5488C14.9863 21.527 15.0167 21.5069 15.0479 21.4883C15.0166 21.5069 14.9863 21.527 14.957 21.5488ZM16.2451 19.0234C16.1916 19.035 16.1373 19.0438 16.082 19.0469C16.1373 19.0438 16.1916 19.035 16.2451 19.0234ZM13.2617 14.293C13.3085 14.3134 13.3532 14.3382 13.3965 14.3652C13.3532 14.3382 13.3085 14.3134 13.2617 14.293ZM12.6465 14.2236C12.6007 14.2323 12.5559 14.2451 12.5117 14.2598C12.5225 14.2562 12.5331 14.2522 12.5439 14.249L12.6465 14.2236ZM25.3613 13.5635C25.3457 13.5763 25.3293 13.5881 25.3135 13.6006C25.332 13.5859 25.3509 13.5717 25.3691 13.5566L25.3613 13.5635ZM23.1201 9.09082C22.162 9.09097 21.3842 9.87088 21.3838 10.8281C21.3835 11.1723 21.4857 11.5096 21.6768 11.7959C21.8677 12.082 22.1393 12.3048 22.457 12.4365C22.775 12.5683 23.1253 12.6033 23.4629 12.5361C23.8004 12.4689 24.1103 12.303 24.3535 12.0596C24.5968 11.8161 24.7622 11.5056 24.8291 11.168C24.8959 10.8305 24.8615 10.4808 24.7295 10.1631C24.5974 9.84526 24.3734 9.57358 24.0869 9.38281C23.8361 9.21587 23.5471 9.11722 23.248 9.0957L23.1201 9.09082ZM23.1387 12.2676C23.125 12.2677 23.1113 12.2678 23.0977 12.2676C23.1113 12.2678 23.125 12.2677 23.1387 12.2676ZM22.9502 12.2578C22.9358 12.2561 22.9215 12.2541 22.9072 12.252C22.9215 12.2541 22.9358 12.2561 22.9502 12.2578ZM22.7529 12.2207C22.748 12.2194 22.7432 12.2172 22.7383 12.2158C22.7432 12.2172 22.748 12.2194 22.7529 12.2207ZM23.6045 12.1855C23.5859 12.1922 23.5668 12.1973 23.5479 12.2031C23.5668 12.1973 23.5859 12.1922 23.6045 12.1855ZM22.4756 12.1162C22.507 12.132 22.5396 12.1466 22.5723 12.1602C22.5395 12.1466 22.5071 12.1321 22.4756 12.1162ZM23.7744 12.1123C23.7603 12.1195 23.7458 12.1261 23.7314 12.1328C23.7458 12.1261 23.7603 12.1195 23.7744 12.1123ZM23.9385 12.0146C23.9259 12.0233 23.9132 12.0318 23.9004 12.04C23.9132 12.0318 23.9259 12.0233 23.9385 12.0146ZM24.2725 11.6953C24.2644 11.706 24.2555 11.7161 24.2471 11.7266C24.2554 11.7161 24.2644 11.706 24.2725 11.6953ZM24.3828 11.5244C24.3742 11.54 24.3647 11.555 24.3555 11.5703C24.3646 11.555 24.3742 11.54 24.3828 11.5244ZM24.4609 11.3584C24.4556 11.3719 24.4501 11.3852 24.4443 11.3984C24.45 11.3852 24.4556 11.3719 24.4609 11.3584ZM21.7695 11.3145C21.7648 11.3014 21.7592 11.2886 21.7549 11.2754C21.7592 11.2886 21.7648 11.3014 21.7695 11.3145ZM21.7158 11.1309C21.7135 11.1198 21.7111 11.1088 21.709 11.0977C21.7111 11.1088 21.7135 11.1198 21.7158 11.1309ZM24.5596 10.9111C24.5589 10.9232 24.5566 10.9352 24.5557 10.9473C24.5567 10.9352 24.5589 10.9232 24.5596 10.9111ZM24.5576 10.7266C24.5584 10.737 24.559 10.7474 24.5596 10.7578C24.559 10.7474 24.5584 10.737 24.5576 10.7266ZM24.5293 10.5312C24.5317 10.5427 24.535 10.5539 24.5371 10.5654C24.535 10.5539 24.5317 10.5427 24.5293 10.5312ZM21.7832 10.3047C21.7706 10.3367 21.7593 10.3693 21.749 10.4023C21.7593 10.3693 21.7706 10.3367 21.7832 10.3047ZM19.8193 9.56543C19.7464 9.75576 19.6897 9.95234 19.6504 10.1533C19.6897 9.95234 19.7464 9.75575 19.8193 9.56543ZM24.3652 10.1045C24.3693 10.1115 24.373 10.1189 24.377 10.126C24.373 10.1189 24.3694 10.1115 24.3652 10.1045ZM22.0605 9.86133C22.0298 9.89501 22.0011 9.93031 21.9736 9.9668C22.0011 9.93032 22.0298 9.89499 22.0605 9.86133ZM24.2598 9.94922C24.2636 9.95416 24.2677 9.95887 24.2715 9.96387C24.2677 9.95887 24.2636 9.95416 24.2598 9.94922ZM24.1328 9.80566C24.1394 9.81213 24.1459 9.8186 24.1523 9.8252C24.1459 9.81861 24.1394 9.81213 24.1328 9.80566ZM26.3877 9.47559V9.47656V9.47559ZM22.4883 9.54004C22.4551 9.5564 22.4223 9.57302 22.3906 9.5918C22.4223 9.57303 22.4551 9.55638 22.4883 9.54004ZM23.7549 9.53711C23.7596 9.53941 23.7639 9.54257 23.7686 9.54492C23.7639 9.54257 23.7596 9.53941 23.7549 9.53711ZM23.5781 9.46582C23.5843 9.46788 23.5906 9.46954 23.5967 9.47168C23.5906 9.46954 23.5843 9.46787 23.5781 9.46582ZM23.3906 9.41699C23.4007 9.41891 23.4108 9.42071 23.4209 9.42285C23.4108 9.42072 23.4007 9.4189 23.3906 9.41699ZM4.09961 6.2207C4.09961 6.20601 4.10242 6.19186 4.10742 6.17871C4.10255 6.1917 4.09961 6.20615 4.09961 6.2207ZM4.11328 6.16699C4.11877 6.15625 4.12551 6.14636 4.13379 6.1377C4.12552 6.14636 4.11872 6.15623 4.11328 6.16699ZM4.17383 6.10938C4.16006 6.11526 4.14736 6.12348 4.13672 6.13379C4.14739 6.12345 4.1601 6.11524 4.17383 6.10938ZM29.6201 4.97949C29.7 5.09758 29.7689 5.22371 29.8252 5.35645C29.7971 5.29025 29.7656 5.22583 29.7314 5.16309L29.6201 4.97949ZM29.1904 4.50781C29.2452 4.55304 29.2984 4.6002 29.3486 4.65039L29.4922 4.80859C29.4016 4.69887 29.3002 4.59839 29.1904 4.50781ZM3.78613 4.04297C3.75185 4.04978 3.71827 4.059 3.68457 4.06738C3.71414 4.06003 3.74341 4.05107 3.77344 4.04492L3.78613 4.04297ZM8.53711 28.624C8.52154 28.6054 8.50734 28.5859 8.49316 28.5664C8.50734 28.5859 8.52155 28.6055 8.53711 28.624ZM8.48047 28.5498C8.46655 28.5298 8.45387 28.5091 8.44141 28.4883C8.45387 28.5091 8.46655 28.5298 8.48047 28.5498ZM23.6006 28.4102C23.5903 28.4311 23.579 28.4514 23.5674 28.4717C23.579 28.4514 23.5903 28.4311 23.6006 28.4102ZM23.5498 28.501C23.5394 28.5178 23.5289 28.5345 23.5176 28.5508C23.5289 28.5345 23.5394 28.5178 23.5498 28.501ZM8.31152 28.1562L8.30957 28.1436C8.31383 28.1663 8.31946 28.1886 8.3252 28.2109C8.32053 28.1928 8.31522 28.1747 8.31152 28.1562ZM23.6904 28.1436L23.6885 28.1562C23.6848 28.1748 23.6785 28.1927 23.6738 28.2109C23.6796 28.1886 23.6862 28.1663 23.6904 28.1436ZM8.2959 27.8545C8.29302 27.8862 8.29199 27.9181 8.29199 27.9502C8.29199 27.9182 8.29301 27.8861 8.2959 27.8545ZM8.2959 27.8545C8.29677 27.845 8.29868 27.8356 8.2998 27.8262C8.29869 27.8356 8.29676 27.845 8.2959 27.8545ZM8.30762 27.7656C8.31184 27.7419 8.31742 27.7186 8.32324 27.6953C8.31746 27.7186 8.31181 27.7419 8.30762 27.7656ZM14.9102 21.585C14.9253 21.5723 14.9413 21.5606 14.957 21.5488C14.9413 21.5606 14.9253 21.5723 14.9102 21.585ZM16.7197 18.7852C16.6767 18.8232 16.6303 18.8564 16.582 18.8867C16.6302 18.8564 16.6767 18.8232 16.7197 18.7852ZM26.6416 11.167L26.6406 11.1787C26.6374 11.2108 26.632 11.2425 26.6279 11.2744C26.6325 11.2386 26.6381 11.203 26.6416 11.167Z" fill="white" style="fill:white;fill-opacity:1;"/>
</svg>
