<svg width="30" height="30" viewBox="0 0 30 30" fill="none" xmlns="http://www.w3.org/2000/svg">
<path fill-rule="evenodd" clip-rule="evenodd" d="M15.0499 29.6004C10.6324 29.6004 6.96835 26.0172 6.96835 21.6116V8.38914C6.96835 3.98355 10.6324 0.400391 15.0499 0.400391C19.4612 0.400391 23.0387 3.97787 23.0387 8.38914V21.6116C23.0387 26.0229 19.4612 29.6004 15.0499 29.6004ZM21.9637 8.38914C21.9637 4.57666 18.8624 1.47539 15.0499 1.47539C11.2443 1.47539 8.04335 4.56937 8.04335 8.38914V21.6116C8.04335 25.4314 11.2443 28.5254 15.0499 28.5254C18.8624 28.5254 21.9637 25.4241 21.9637 21.6116V8.38914ZM15.0134 11.7879C14.7164 11.7879 14.4759 11.5471 14.4759 11.2504V6.56289C14.4759 6.26584 14.7163 6.02539 15.0134 6.02539C15.3104 6.02539 15.5509 6.26584 15.5509 6.56289V11.2504C15.5509 11.5471 15.3103 11.7879 15.0134 11.7879Z" fill="white" style="fill:white;fill-opacity:1;"/>
</svg>
