<svg width="32" height="32" viewBox="0 0 32 32" fill="none" xmlns="http://www.w3.org/2000/svg">
<path d="M26.9798 7.61978V6.70875H25.0628C23.6189 6.63285 22.1967 6.32743 20.8506 5.80417C19.55 5.29045 18.3084 4.64065 17.147 3.86581L15.9798 3L14.8387 3.82704C13.6769 4.60501 12.4328 5.25499 11.1286 5.76541C9.79305 6.29442 8.3788 6.6022 6.94246 6.67644L4.98633 6.70875V17.6928C4.98633 20.2127 6.44039 23.0363 8.98988 25.4463C10.0435 26.4516 11.2303 27.3102 12.5174 27.9985C13.5771 28.6004 14.7662 28.9437 15.9863 29C17.2162 28.937 18.4136 28.5872 19.4813 27.9791C20.7623 27.2909 21.9407 26.4298 22.9828 25.4205C24.0946 24.3828 25.0421 23.1847 25.7931 21.8668C26.539 20.5878 26.9493 19.1438 26.9863 17.667L26.9798 7.61978ZM15.9342 5.32604L15.9798 5.28728L16.032 5.32604C17.3133 6.20579 18.6887 6.94253 20.1333 7.52286C21.6943 8.14236 23.3502 8.49413 25.0302 8.56312H25.1019V17.6735C25.1019 19.6829 23.8565 22.0154 21.6852 24.083C19.7617 25.8986 17.473 27.1198 15.9798 27.1198C15.0597 27.0507 14.1677 26.7745 13.3716 26.3121C12.2452 25.7102 11.2075 24.958 10.2875 24.0765C8.11614 22.0154 6.87074 19.6829 6.87074 17.667V8.53082H6.94246C8.62018 8.46881 10.2755 8.12808 11.8393 7.52286C13.2759 6.94574 14.6482 6.22252 15.9342 5.36481V5.32604Z" fill="#8655FF" style="fill:#8655FF;fill:color(display-p3 0.5255 0.3333 1.0000);fill-opacity:1;"/>
<path d="M21.727 12.2367C21.5575 12.0849 21.3311 12 21.0955 12C20.8599 12 20.6334 12.0849 20.4639 12.2367L14.2746 17.9813L11.6157 15.5369C11.5384 15.44 11.4396 15.3596 11.3258 15.3014C11.2121 15.2431 11.0861 15.2083 10.9566 15.1993C10.827 15.1904 10.6969 15.2075 10.5751 15.2494C10.4533 15.2914 10.3427 15.3573 10.2509 15.4425C10.159 15.5278 10.088 15.6305 10.0428 15.7435C9.99758 15.8565 9.97917 15.9773 9.98882 16.0975C9.99848 16.2178 10.036 16.3347 10.0987 16.4403C10.1615 16.5458 10.2481 16.6376 10.3525 16.7093L13.5862 19.7633C13.7557 19.9151 13.9821 20 14.2177 20C14.4533 20 14.6798 19.9151 14.8493 19.7633L21.727 13.4267C21.8934 13.2671 21.9863 13.0537 21.9863 12.8317C21.9863 12.6097 21.8934 12.3963 21.727 12.2367Z" fill="#8655FF" style="fill:#8655FF;fill:color(display-p3 0.5255 0.3333 1.0000);fill-opacity:1;"/>
</svg>
