<svg width="32" height="32" viewBox="0 0 32 32" fill="none" xmlns="http://www.w3.org/2000/svg">
<path d="M21.364 8.71558V23.3105C21.364 24.7787 20.1737 25.9689 18.7055 25.9689H8.68623C7.21811 25.9689 6.0278 24.7787 6.0278 23.3105V8.69008C6.0278 7.22183 7.21811 6.03164 8.68623 6.03164H18.7055C20.1737 6.03164 21.364 7.22183 21.364 8.69008V8.71558ZM21.364 27.0921V27.5024H24.4312C26.125 27.5024 27.4985 26.1291 27.4985 24.4353V12.1661C27.4985 10.4721 26.125 9.09892 24.4312 9.09892H22.8975V7.56536C22.8975 5.87127 21.5242 4.49805 19.8303 4.49805H7.56133C5.86745 4.49805 4.49414 5.87127 4.49414 7.56536V24.4353C4.49414 26.1291 5.86745 27.5024 7.56133 27.5024H19.8303C20.389 27.5024 20.9128 27.3527 21.364 27.0921L21.364 27.0921ZM25.9647 23.3105C25.9647 24.7787 24.7745 25.9689 23.3064 25.9689H22.4872C22.7482 25.5174 22.8976 24.9939 22.8976 24.4353V10.6325H23.3064C24.7745 10.6325 25.9647 11.8225 25.9647 13.2907V23.3105ZM9.09505 20.9845C9.09505 21.408 9.4383 21.3679 9.86177 21.3679H17.53C17.9534 21.3679 18.2967 21.4079 18.2967 20.9845C18.2967 20.561 17.9535 19.8343 17.53 19.8343H9.86177C9.4383 19.8343 9.09505 20.5609 9.09505 20.9845ZM9.09505 16.3836C9.09505 16.8071 9.4383 16.767 9.86177 16.767H17.53C17.9534 16.767 18.2967 16.8071 18.2967 16.3836C18.2967 15.9602 17.9535 15.2334 17.53 15.2334H9.86177C9.4383 15.2334 9.09505 15.9602 9.09505 16.3836ZM9.09505 11.7827C9.09505 12.2062 9.4383 12.1662 9.86177 12.1662H17.53C17.9534 12.1662 18.2967 12.2062 18.2967 11.7827C18.2967 11.3593 17.9535 10.6325 17.53 10.6325H9.86177C9.4383 10.6325 9.09505 11.3593 9.09505 11.7827Z" fill="#8655FF" style="fill:#8655FF;fill:color(display-p3 0.5255 0.3333 1.0000);fill-opacity:1;"/>
</svg>
