<svg width="70" height="24" viewBox="0 0 70 24" fill="none" xmlns="http://www.w3.org/2000/svg">
<path d="M3.78731 18.9729C5.41977 18.9729 6.66046 18.2054 6.66046 17.2844V6.19401C6.66046 5.23463 5.35447 4.50552 3.78731 4.50552H2.87315C1.24069 4.50552 0 5.27301 0 6.19401V17.2844C0 18.2438 1.30599 18.9729 2.87315 18.9729H3.78731Z" fill="#8655FF" style="fill:#8655FF;fill:color(display-p3 0.5255 0.3333 1.0000);fill-opacity:1;"/>
<path d="M52.6306 0.552889C50.8022 -0.59836 47.5373 0.169153 47.6026 1.74253V4.50553H14.3004C12.6679 4.50553 11.4272 5.27301 11.4272 6.19401V17.2844C11.4272 18.2438 12.7332 18.9729 14.3004 18.9729H47.2109V22.3115C47.2762 23.8465 51.3246 24.5756 53.0877 23.4627L69.2164 13.3318C70.2612 12.6794 70.2612 11.6433 69.2164 10.9909L52.6306 0.552889Z" fill="#8655FF" style="fill:#8655FF;fill:color(display-p3 0.5255 0.3333 1.0000);fill-opacity:1;"/>
</svg>
