<svg width="32" height="32" viewBox="0 0 32 32" fill="none" xmlns="http://www.w3.org/2000/svg">
<path d="M7.01074 4.6748C5.07382 4.6748 3.49805 6.26256 3.49805 8.19922V18.8906C3.49805 20.8279 5.0732 22.415 7.01074 22.415H25C26.9369 22.415 28.5127 20.8279 28.5127 18.8906V8.19922C28.5127 6.26257 26.9379 4.6748 25 4.6748H7.01074ZM21.7344 26.751L21.6455 26.7402C21.0901 26.6751 20.6348 26.2862 20.6348 25.7393V24.2207C20.6348 24.2006 20.6394 24.1899 20.6475 24.1807C20.6588 24.1677 20.6779 24.1543 20.7109 24.1357C20.739 24.1199 20.784 24.0976 20.8213 24.0713C20.8613 24.043 20.9037 24.0035 20.9307 23.9453L20.9961 23.8027H19.6406V26.251C19.6419 26.3921 19.6156 26.5324 19.5625 26.6631C19.5094 26.7937 19.4303 26.9125 19.3311 27.0127C19.2318 27.1128 19.1136 27.1928 18.9834 27.2471C18.8532 27.3013 18.7133 27.3291 18.5723 27.3291H18.2207C18.0789 27.33 17.9378 27.3029 17.8066 27.249C17.6756 27.1952 17.5563 27.1158 17.4561 27.0156C17.3557 26.9153 17.2756 26.7953 17.2217 26.6641C17.168 26.533 17.1407 26.3926 17.1416 26.251V23.8027H7.01074C4.31117 23.8027 2.09961 21.6022 2.09961 18.8906V8.19922C2.09961 5.48833 4.31115 3.28711 7.01074 3.28711H25C27.7002 3.28711 29.9004 5.48804 29.9004 8.19922V18.8906C29.9004 21.5577 27.7453 23.7253 25.0898 23.7695L24.9404 23.7715L24.999 23.9082C25.026 23.9709 25.0723 24.014 25.1152 24.0449C25.1558 24.0741 25.2045 24.0993 25.2373 24.1182C25.3152 24.1628 25.332 24.1859 25.332 24.2207V25.7393C25.332 26.2863 24.8757 26.6758 24.3203 26.7402L24.2314 26.751V27.6338C24.2314 28.2269 23.7539 28.7129 23.1641 28.7129H22.8018C22.2128 28.7129 21.7344 28.2269 21.7344 27.6338V26.751Z" fill="#8655FF" stroke="white" style="fill:#8655FF;fill:color(display-p3 0.5255 0.3333 1.0000);fill-opacity:1;stroke:white;stroke-opacity:1;" stroke-width="0.2"/>
<path d="M14.6694 8.4823C14.3573 8.48451 14.0586 8.60949 13.838 8.8302C13.6173 9.0509 13.4924 9.3496 13.4903 9.66168V10.0132C13.4903 10.6595 14.0231 11.1814 14.6694 11.1814H17.2187C17.373 11.1827 17.526 11.1535 17.669 11.0954C17.8119 11.0373 17.9419 10.9514 18.0515 10.8428C18.1611 10.7343 18.2482 10.605 18.3076 10.4627C18.367 10.3203 18.3977 10.1675 18.3978 10.0132V9.66168C18.3979 9.5068 18.3674 9.35343 18.3082 9.21033C18.249 9.06722 18.1622 8.93719 18.0527 8.82766C17.9432 8.71814 17.8132 8.63126 17.6701 8.572C17.527 8.51274 17.3736 8.48226 17.2187 8.4823H14.6694ZM5.52561 20.6848C5.52485 20.8544 5.59111 21.0175 5.70997 21.1385C5.82884 21.2596 5.99068 21.3287 6.1603 21.3311C6.33161 21.3311 6.49591 21.263 6.61704 21.1419C6.73818 21.0207 6.80624 20.8564 6.80624 20.6851C6.80624 20.5138 6.73818 20.3495 6.61704 20.2284C6.49591 20.1072 6.33161 20.0392 6.1603 20.0392C5.99076 20.0414 5.82897 20.1105 5.7101 20.2314C5.59124 20.3523 5.52494 20.5153 5.52561 20.6848ZM25.3909 20.6848C25.393 20.8099 25.432 20.9317 25.5031 21.0347C25.5741 21.1377 25.674 21.2174 25.7903 21.2639C25.9065 21.3103 26.0338 21.3213 26.1563 21.2956C26.2788 21.2699 26.3909 21.2086 26.4787 21.1193C26.5664 21.0301 26.6258 20.9169 26.6494 20.794C26.673 20.6711 26.6598 20.544 26.6114 20.4286C26.563 20.3132 26.4816 20.2146 26.3774 20.1454C26.2731 20.0761 26.1508 20.0391 26.0256 20.0392C25.8561 20.0415 25.6943 20.1106 25.5755 20.2315C25.4567 20.3524 25.3903 20.5153 25.3909 20.6848ZM5.52561 6.28918C5.52485 6.45881 5.59111 6.62188 5.70997 6.74291C5.82884 6.86393 5.99068 6.93312 6.1603 6.93543C6.33161 6.93543 6.49591 6.86738 6.61704 6.74624C6.73818 6.6251 6.80624 6.46081 6.80624 6.28949C6.80624 6.11818 6.73818 5.95388 6.61704 5.83275C6.49591 5.71161 6.33161 5.64355 6.1603 5.64355C5.99076 5.64578 5.82897 5.71486 5.7101 5.83577C5.59124 5.95668 5.52494 6.11963 5.52561 6.28918ZM25.3909 6.28918C25.393 6.41431 25.432 6.53603 25.5031 6.63906C25.5741 6.74208 25.674 6.82182 25.7903 6.86824C25.9065 6.91467 26.0338 6.92572 26.1563 6.90001C26.2788 6.87429 26.3909 6.81296 26.4787 6.72372C26.5664 6.63447 26.6258 6.52129 26.6494 6.39839C26.673 6.27549 26.6598 6.14835 26.6114 6.03294C26.563 5.91754 26.4816 5.81901 26.3774 5.74973C26.2731 5.68045 26.1508 5.64351 26.0256 5.64355C25.8561 5.64586 25.6943 5.71497 25.5755 5.83586C25.4567 5.95675 25.3903 6.11966 25.3909 6.28918Z" fill="#8655FF" style="fill:#8655FF;fill:color(display-p3 0.5255 0.3333 1.0000);fill-opacity:1;"/>
</svg>
