<svg width="32" height="32" viewBox="0 0 32 32" fill="none" xmlns="http://www.w3.org/2000/svg">
<path d="M5.39215 3.07715H8.65289C9.33474 3.07716 9.95148 3.35199 10.4029 3.79492L10.4732 3.86328L10.5435 3.79492C10.995 3.3519 11.6116 3.07715 12.2935 3.07715H26.6089C27.9897 3.07733 29.1089 4.19732 29.1089 5.57812V26.3994C29.1087 27.7801 27.9899 28.8992 26.6089 28.8994H12.2935C11.6117 28.8994 10.9949 28.6256 10.5435 28.1826L10.4732 28.1133L10.4029 28.1826C9.95117 28.6255 9.33464 28.8994 8.65289 28.8994H5.39215C4.01072 28.8994 2.89039 27.7798 2.8902 26.3984V5.5791C2.89024 4.19758 4.01063 3.07719 5.39215 3.07715ZM12.2935 4.43848C11.6659 4.43849 11.1556 4.94831 11.1539 5.5752C11.1539 5.57958 11.1546 5.58367 11.1548 5.58594V26.3916C11.1546 26.3938 11.1539 26.3972 11.1539 26.4014V26.4023C11.1557 27.0294 11.6663 27.5391 12.2935 27.5391H26.608C27.2029 27.5391 27.6919 27.0806 27.7427 26.499H27.7486V5.57812C27.7485 4.94966 27.2371 4.43866 26.6089 4.43848H12.2935ZM5.39215 4.43848C4.76356 4.43852 4.25157 4.95025 4.25153 5.5791V26.3975C4.25153 27.0263 4.76322 27.538 5.39215 27.5381H8.65289C9.28055 27.5381 9.79024 27.0289 9.79254 26.4023V5.5752L9.78668 5.45898C9.72653 4.88642 9.24139 4.4385 8.65289 4.43848H5.39215ZM9.79254 5.57812L9.79156 5.5918C9.79165 5.59122 9.79138 5.58941 9.79156 5.58789C9.79183 5.58573 9.79243 5.58236 9.79254 5.57812Z" fill="#8655FF" stroke="white" style="fill:#8655FF;fill:color(display-p3 0.5255 0.3333 1.0000);fill-opacity:1;stroke:white;stroke-opacity:1;" stroke-width="0.2"/>
<path d="M19.9424 20.1738H22.1553L18.9033 24.9678V21.3896H16.6357L19.9424 16.3232V20.1738ZM5.85059 20.4072H8.19238C8.5682 20.4072 8.87295 20.7121 8.87305 21.0879C8.87331 21.4637 8.5686 21.7686 8.19238 21.7686H5.85059C5.47484 21.7684 5.16992 21.4637 5.16992 21.0879C5.17002 20.7122 5.4749 20.4074 5.85059 20.4072ZM5.85059 14.4961H8.19238C8.56826 14.4961 8.87305 14.8009 8.87305 15.1768C8.87309 15.5524 8.56846 15.8564 8.19238 15.8564H5.85059C5.475 15.8563 5.17018 15.5523 5.16992 15.1768C5.16992 14.801 5.47484 14.4962 5.85059 14.4961ZM14.6816 7.14551H24.2197C24.9437 7.14567 25.5303 7.73304 25.5303 8.45703V12.791C25.5301 13.515 24.9438 14.1016 24.2197 14.1016H14.6816C13.9576 14.1016 13.3702 13.515 13.3701 12.791V8.45703C13.3701 7.73291 13.9575 7.14551 14.6816 7.14551ZM14.7314 12.7402H24.1689V8.50684H14.7314V12.7402ZM5.85059 8.58398H8.19238C8.56826 8.58398 8.87305 8.88877 8.87305 9.26465C8.87325 9.64039 8.56856 9.94531 8.19238 9.94531H5.85059C5.4749 9.94516 5.17002 9.64035 5.16992 9.26465C5.16992 8.88886 5.47484 8.58414 5.85059 8.58398Z" fill="#8655FF" stroke="white" style="fill:#8655FF;fill:color(display-p3 0.5255 0.3333 1.0000);fill-opacity:1;stroke:white;stroke-opacity:1;" stroke-width="0.2"/>
</svg>
