<svg width="48" height="48" viewBox="0 0 48 48" fill="none" xmlns="http://www.w3.org/2000/svg">
<path d="M4.09961 22.0006C5.03761 12.5506 12.5506 5.03761 22.0006 4.09961V8.12461C14.7636 9.02661 9.02661 14.7626 8.12461 22.0006H4.09961ZM4.09961 26.0006C5.03761 35.4496 12.5506 42.9636 22.0006 43.9006V39.8756C14.7636 38.9746 9.02661 33.2376 8.12461 26.0006H4.09961ZM39.8766 26.0006C38.9746 33.2376 33.2376 38.9746 26.0006 39.8766V43.9016C35.4496 42.9636 42.9636 35.4506 43.9016 26.0006H39.8766ZM43.9016 22.0006C42.9636 12.5506 35.4506 5.03761 26.0006 4.09961V8.12461C33.2376 9.02661 38.9746 14.7626 39.8766 22.0006H43.9016Z" fill="url(#paint0_linear_814_4893)" style=""/>
<path d="M15.467 17C14.039 17 14 18.3267 14 18.3267V23.9051C14 25.0746 15.313 25.3672 15.313 25.3672H16.104C17.04 25.3672 16.944 26.4411 16.944 26.4411L15.711 32.0295C15.433 33.0347 16.058 32.9999 16.058 32.9999H20.999C21.521 32.9999 21.59 32.0295 21.034 31.5109C20.477 30.9924 20.463 30.4112 20.463 30.4112L20.928 28.7411H21.884C22.249 28.7411 22.409 28.2903 22.409 28.2903V26.8023C22.409 26.3515 21.884 26.2828 21.884 26.2828C21.901 25.832 22.911 25.3483 22.911 25.3483H24.968C26.017 25.3483 28.303 23.8603 28.303 23.8603V18.5586C27.262 17.5902 24.826 17 24.826 17H15.467ZM35.398 20.3759H33.475C33.102 19.1766 31.839 18.69 31.839 18.69H29.773C29.113 18.69 29.199 19.318 29.199 19.318V23.088C29.199 23.6593 29.773 23.6314 29.773 23.6314H32.011C33.044 23.1746 33.475 21.9753 33.475 21.9753H35.387C35.731 21.9753 36 21.633 36 21.0895C36 20.5461 35.398 20.3759 35.398 20.3759Z" fill="url(#paint1_linear_814_4893)" style=""/>
<defs>
<linearGradient id="paint0_linear_814_4893" x1="4.52281" y1="4.09961" x2="49.7762" y2="13.4625" gradientUnits="userSpaceOnUse">
<stop stop-color="#8655FF" style="stop-color:#8655FF;stop-color:color(display-p3 0.5255 0.3333 1.0000);stop-opacity:1;"/>
<stop offset="1" stop-color="#25E577" style="stop-color:#25E577;stop-color:color(display-p3 0.1451 0.8980 0.4667);stop-opacity:1;"/>
</linearGradient>
<linearGradient id="paint1_linear_814_4893" x1="14.2339" y1="17" x2="38.3649" y2="23.865" gradientUnits="userSpaceOnUse">
<stop stop-color="#8655FF" style="stop-color:#8655FF;stop-color:color(display-p3 0.5255 0.3333 1.0000);stop-opacity:1;"/>
<stop offset="1" stop-color="#25E577" style="stop-color:#25E577;stop-color:color(display-p3 0.1451 0.8980 0.4667);stop-opacity:1;"/>
</linearGradient>
</defs>
</svg>
