<svg width="48" height="48" viewBox="0 0 48 48" fill="none" xmlns="http://www.w3.org/2000/svg">
<path d="M4.09961 22.0006C5.03761 12.5506 12.5506 5.03761 22.0006 4.09961V8.12461C14.7636 9.02661 9.02661 14.7626 8.12461 22.0006H4.09961ZM4.09961 26.0006C5.03761 35.4496 12.5506 42.9636 22.0006 43.9006V39.8756C14.7636 38.9746 9.02661 33.2376 8.12461 26.0006H4.09961ZM39.8766 26.0006C38.9746 33.2376 33.2376 38.9746 26.0006 39.8766V43.9016C35.4496 42.9636 42.9636 35.4506 43.9016 26.0006H39.8766ZM43.9016 22.0006C42.9636 12.5506 35.4506 5.03761 26.0006 4.09961V8.12461C33.2376 9.02661 38.9746 14.7626 39.8766 22.0006H43.9016Z" fill="url(#paint0_linear_814_4910)" style=""/>
<g clip-path="url(#clip0_814_4910)">
<path d="M29.33 30.4547C29.8357 30.4547 30.2343 31.019 30.244 31.7047C30.244 32.39 29.8357 32.9547 29.34 32.9547H18.4813C17.9857 32.9547 17.5773 32.39 17.5773 31.7047C17.5773 31.019 17.9857 30.4547 18.4813 30.4547H29.33ZM32.8077 27.5C32.8077 28.1853 32.233 28.75 31.5357 28.75H16.272C15.5743 28.75 15 28.1853 15 27.5V16.25C15 15.5647 15.5743 15 16.272 15H31.5493C32.2467 15 32.8213 15.5647 32.8213 16.25V27.5H32.8077ZM23.994 23.0463C25.06 23.0463 26.126 23.0473 27.1923 23.0457C27.53 23.045 27.6633 22.9103 27.6647 22.573C27.6667 22.1663 27.6647 21.7593 27.665 21.3523C27.665 21.137 27.554 21.0123 27.3487 20.9707C27.273 20.9574 27.1962 20.9517 27.1193 20.9537C25.0433 20.9527 22.967 20.953 20.891 20.953C20.849 20.953 20.8067 20.9513 20.7647 20.9537C20.468 20.969 20.336 21.1063 20.3347 21.4043C20.3333 21.7763 20.334 22.148 20.3347 22.52C20.3347 22.929 20.4507 23.046 20.8587 23.046C21.9037 23.0467 22.9487 23.046 23.994 23.046V23.0463ZM26.7333 21.4897V22.5137H25.6093V21.4893H26.7333V21.4897ZM23.9967 25.6657C25.0633 25.6657 26.1293 25.6663 27.1953 25.6653C27.5403 25.665 27.6627 25.542 27.6643 25.195C27.6663 24.795 27.6677 24.395 27.664 23.995C27.6613 23.7397 27.5377 23.609 27.284 23.5837C27.2217 23.5773 27.158 23.5797 27.095 23.5793H20.9083C20.8523 23.5793 20.796 23.5773 20.74 23.5817C20.462 23.602 20.3367 23.733 20.335 24.0113C20.3329 24.4042 20.3329 24.7971 20.335 25.19C20.3363 25.548 20.4563 25.665 20.8193 25.6653C21.8787 25.666 22.938 25.6653 23.997 25.6653L23.9967 25.6657ZM25.6077 24.0943H26.7303V25.126H25.6077V24.0943ZM23.9783 20.419C25.0313 20.419 26.0843 20.4197 27.1373 20.419C27.554 20.4187 27.6647 20.309 27.665 19.8997C27.665 19.5273 27.6677 19.155 27.664 18.783C27.6607 18.4697 27.5257 18.334 27.2107 18.3337C25.0697 18.332 22.9287 18.332 20.7873 18.3337C20.4723 18.3337 20.338 18.4697 20.335 18.783C20.3317 19.155 20.3337 19.5273 20.334 19.8997C20.3343 20.3093 20.4443 20.4187 20.8613 20.419C21.9003 20.4197 22.9393 20.419 23.9783 20.419ZM26.727 19.8903H25.6137V18.878H26.727V19.8903Z" fill="url(#paint1_linear_814_4910)" style=""/>
</g>
<defs>
<linearGradient id="paint0_linear_814_4910" x1="4.52281" y1="4.09961" x2="49.7762" y2="13.4625" gradientUnits="userSpaceOnUse">
<stop stop-color="#8655FF" style="stop-color:#8655FF;stop-color:color(display-p3 0.5255 0.3333 1.0000);stop-opacity:1;"/>
<stop offset="1" stop-color="#25E577" style="stop-color:#25E577;stop-color:color(display-p3 0.1451 0.8980 0.4667);stop-opacity:1;"/>
</linearGradient>
<linearGradient id="paint1_linear_814_4910" x1="15.1895" y1="15" x2="35.464" y2="19.1636" gradientUnits="userSpaceOnUse">
<stop stop-color="#8655FF" style="stop-color:#8655FF;stop-color:color(display-p3 0.5255 0.3333 1.0000);stop-opacity:1;"/>
<stop offset="1" stop-color="#25E577" style="stop-color:#25E577;stop-color:color(display-p3 0.1451 0.8980 0.4667);stop-opacity:1;"/>
</linearGradient>
<clipPath id="clip0_814_4910">
<rect width="18" height="18" fill="white" style="fill:white;fill-opacity:1;" transform="translate(15 15)"/>
</clipPath>
</defs>
</svg>
