<svg width="32" height="32" viewBox="0 0 32 32" fill="none" xmlns="http://www.w3.org/2000/svg">
<g clip-path="url(#clip0_2307_6303)">
<path d="M15.997 3C8.14928 7.54026 3.6819 6.76994 3.74473 6.76994C3.74473 12.6548 4.68596 18.223 7.95575 22.6037C9.88847 25.1899 13.108 27.2947 15.9983 29C18.8886 27.2947 22.1068 25.1899 24.0408 22.6037C27.3081 18.2268 28.2518 12.6586 28.2518 6.76994C28.3096 6.76868 23.8511 7.54026 15.997 3ZM22.8834 21.9477C21.2284 24.2788 18.4726 26.1751 15.997 27.7132C13.5214 26.1751 10.7656 24.2788 9.11061 21.9477C6.30955 18.0018 5.50404 12.9828 5.50404 7.67472C5.73358 7.70917 5.96565 7.72388 6.19771 7.7187C7.58002 7.7187 10.9818 7.33166 15.9995 4.27675C21.0148 7.33166 24.4191 7.7187 25.8014 7.7187C26.0318 7.72486 26.2623 7.71014 26.49 7.67472C26.49 12.9828 25.6845 18.0018 22.8834 21.9477Z" fill="#8655FF" style="fill:#8655FF;fill:color(display-p3 0.5255 0.3333 1.0000);fill-opacity:1;"/>
<path d="M15.997 5.16211C11.2029 8.00087 7.87658 8.46583 6.26556 8.4784C6.35856 14.171 7.4644 18.3267 9.72511 21.5111C11.2331 23.6273 13.6986 25.3778 15.997 26.8242C18.2954 25.3778 20.766 23.6273 22.2689 21.5111C24.5309 18.3267 25.6355 14.171 25.7285 8.4784C24.1175 8.46583 20.7911 8.00087 15.997 5.16211ZM10.1888 12.5989L14.009 8.77874C14.1507 8.63915 14.3418 8.56121 14.5408 8.5619C14.7397 8.56259 14.9302 8.64186 15.071 8.78242C15.2117 8.92299 15.2912 9.11347 15.2921 9.31238C15.293 9.51129 15.2153 9.7025 15.0759 9.84437L11.2544 13.6658C11.1126 13.8053 10.9214 13.883 10.7225 13.882C10.5235 13.8811 10.3331 13.8016 10.1925 13.6609C10.0519 13.5202 9.97267 13.3296 9.97198 13.1307C9.97129 12.9318 10.0492 12.7406 10.1888 12.5989ZM18.2741 10.5556L11.9657 16.864C11.824 17.0036 11.6329 17.0815 11.434 17.0808C11.2351 17.0801 11.0445 17.0009 10.9038 16.8603C10.763 16.7197 10.6835 16.5293 10.6826 16.3304C10.6817 16.1314 10.7594 15.9402 10.8988 15.7984L17.2084 9.48874C17.3503 9.34932 17.5415 9.27161 17.7404 9.27254C17.9393 9.27346 18.1298 9.35295 18.2704 9.49368C18.4109 9.63441 18.4902 9.82499 18.4909 10.0239C18.4916 10.2228 18.4137 10.4139 18.2741 10.5556Z" fill="#8655FF" style="fill:#8655FF;fill:color(display-p3 0.5255 0.3333 1.0000);fill-opacity:1;"/>
</g>
<defs>
<clipPath id="clip0_2307_6303">
<rect width="26" height="26" fill="white" style="fill:white;fill-opacity:1;" transform="translate(3 3)"/>
</clipPath>
</defs>
</svg>
