<svg width="48" height="48" viewBox="0 0 48 48" fill="none" xmlns="http://www.w3.org/2000/svg">
<path d="M42.9091 19.7018C42.3907 19.7018 41.9131 19.3634 41.7595 18.8402C41.6197 18.3624 41.4596 17.8908 41.2795 17.4266C41.0419 16.8074 41.3491 16.1138 41.9683 15.8762C42.5851 15.6362 43.2811 15.9458 43.5187 16.565C43.7203 17.0882 43.9027 17.6258 44.0611 18.1634C44.2483 18.7994 43.8835 19.4666 43.2499 19.6538C43.1347 19.685 43.0219 19.7018 42.9091 19.7018Z" fill="white" style="fill:white;fill-opacity:1;"/>
<path d="M24.1299 44.8125C12.6747 44.8125 3.35547 35.4933 3.35547 24.0381C3.35547 12.5829 12.6747 3.26367 24.1299 3.26367C31.0587 3.26367 37.5051 6.70047 41.3787 12.4557C41.7483 13.0053 41.6019 13.7517 41.0523 14.1213C40.5027 14.4909 39.7563 14.3445 39.3867 13.7949C35.9619 8.70447 30.2571 5.66367 24.1299 5.66367C13.9971 5.66367 5.75547 13.9077 5.75547 24.0381C5.75547 34.1709 13.9995 42.4125 24.1299 42.4125C34.2627 42.4125 42.5043 34.1685 42.5043 24.0381C42.5043 23.3757 43.0419 22.8381 43.7043 22.8381C44.3667 22.8381 44.9043 23.3757 44.9043 24.0381C44.9043 35.4933 35.5851 44.8125 24.1299 44.8125Z" fill="white" style="fill:white;fill-opacity:1;"/>
<path d="M20.5895 32.4295C20.0375 32.4295 19.4831 32.2831 18.9791 31.9927C17.9711 31.4119 17.3711 30.3703 17.3711 29.2063V18.3919C17.3711 17.2279 17.9735 16.1863 18.9815 15.6055C19.9895 15.0247 21.1919 15.0247 22.1999 15.6055L31.5647 21.0127C32.5727 21.5935 33.1727 22.6351 33.1727 23.7991C33.1727 24.9631 32.5703 26.0047 31.5647 26.5855L22.1999 31.9927C21.6959 32.2831 21.1439 32.4295 20.5895 32.4295ZM20.5943 17.5711C20.4047 17.5711 20.2559 17.6407 20.1815 17.6839C20.0591 17.7559 19.7711 17.9671 19.7711 18.3919V29.2063C19.7711 29.6335 20.0567 29.8447 20.1815 29.9143C20.3063 29.9839 20.6303 30.1279 20.9999 29.9143L30.3647 24.5071C30.7343 24.2935 30.7727 23.9407 30.7727 23.7991C30.7727 23.6575 30.7319 23.3047 30.3647 23.0911L20.9999 17.6839C20.8535 17.5999 20.7167 17.5711 20.5943 17.5711Z" fill="white" style="fill:white;fill-opacity:1;"/>
</svg>
