<svg width="24" height="24" viewBox="0 0 24 24" fill="none" xmlns="http://www.w3.org/2000/svg">
<path d="M12.0049 5.5C13.9688 5.5 15.7626 6.36533 17.2217 7.41504C18.6846 8.46758 19.8542 9.73605 20.5791 10.6162C20.9311 11.0435 21.2754 11.4259 21.2754 12C21.2754 12.5741 20.9311 12.9565 20.5791 13.3838C19.8542 14.2639 18.6846 15.5324 17.2217 16.585C15.7626 17.6347 13.9688 18.5 12.0049 18.5C10.041 18.5 8.24712 17.6347 6.78809 16.585C5.32515 15.5324 4.1556 14.2639 3.43066 13.3838C3.0787 12.9565 2.73438 12.5741 2.73438 12C2.73438 11.4259 3.0787 11.0435 3.43066 10.6162C4.1556 9.73605 5.32515 8.46758 6.78809 7.41504C8.24712 6.36533 10.041 5.5 12.0049 5.5ZM12.0049 6.5C10.333 6.5 8.74309 7.24017 7.37207 8.22656C6.00516 9.21 4.89827 10.408 4.20312 11.252C3.77877 11.7672 3.73438 11.8565 3.73438 12C3.73438 12.1435 3.77877 12.2328 4.20312 12.748C4.89827 13.592 6.00515 14.79 7.37207 15.7734C8.74309 16.7598 10.333 17.5 12.0049 17.5C13.6767 17.5 15.2667 16.7598 16.6377 15.7734C18.0046 14.79 19.1115 13.592 19.8066 12.748C20.231 12.2328 20.2754 12.1435 20.2754 12C20.2754 11.8565 20.231 11.7672 19.8066 11.252C19.1115 10.408 18.0046 9.21 16.6377 8.22656C15.2667 7.24017 13.6767 6.5 12.0049 6.5ZM12.0039 8C14.213 8 16.0039 9.79086 16.0039 12C16.0039 14.2091 14.213 16 12.0039 16C9.79477 16 8.00391 14.2091 8.00391 12C8.00391 9.79086 9.79477 8 12.0039 8ZM12.0039 9C10.3471 9 9.00391 10.3431 9.00391 12C9.00391 13.6569 10.3471 15 12.0039 15C13.6608 15 15.0039 13.6569 15.0039 12C15.0039 10.3431 13.6608 9 12.0039 9Z" fill="#8655FF" style="fill:#8655FF;fill:color(display-p3 0.5255 0.3333 1.0000);fill-opacity:1;"/>
</svg>
