<svg width="24" height="24" viewBox="0 0 24 24" fill="none" xmlns="http://www.w3.org/2000/svg">
<path d="M12 2.86328C16.4183 2.86328 20 6.445 20 10.8633C19.9999 16.6617 14.0151 20.1245 12.3984 20.9541C12.145 21.0841 11.855 21.0841 11.6016 20.9541C9.98489 20.1245 4.00008 16.6617 4 10.8633C4 6.445 7.58172 2.86328 12 2.86328ZM12 7.43457C10.1065 7.43457 8.57129 8.96973 8.57129 10.8633C8.57135 12.7568 10.1065 14.292 12 14.292C13.8935 14.292 15.4286 12.7568 15.4287 10.8633C15.4287 8.96973 13.8935 7.43457 12 7.43457Z" fill="#8655FF" style="fill:#8655FF;fill:color(display-p3 0.5255 0.3333 1.0000);fill-opacity:1;"/>
</svg>
