<svg width="24" height="24" viewBox="0 0 24 24" fill="none" xmlns="http://www.w3.org/2000/svg">
<path d="M6.72664 19.5714C6.72664 19.8081 6.91852 20 7.15521 20H7.3189C7.55559 20 7.74747 19.8081 7.74747 19.5714C7.74747 19.3347 7.55559 19.1429 7.3189 19.1429H7.15521C6.91852 19.1429 6.72664 19.3347 6.72664 19.5714ZM8.48804 19.5714C8.48804 19.8081 8.67992 20 8.91661 20H10.3928C10.6295 20 10.8214 19.8081 10.8214 19.5714C10.8214 19.3347 10.6295 19.1429 10.3928 19.1429H8.91661C8.67992 19.1429 8.48804 19.3347 8.48804 19.5714ZM15.5234 19.5714C15.5234 19.8081 15.7152 20 15.9519 20H16.8448C17.0815 20 17.2734 19.8081 17.2734 19.5714C17.2734 19.3347 17.0815 19.1429 16.8448 19.1429H15.9519C15.7152 19.1429 15.5234 19.3347 15.5234 19.5714ZM18.4167 4H5.58333C5.2609 4 5 4.25586 5 4.57143V17.7143C5 18.0299 5.2609 18.2857 5.58333 18.2857H18.4167C18.7388 18.2857 19 18.0299 19 17.7143V4.57143C19 4.25586 18.7388 4 18.4167 4ZM16.6667 16C16.6667 16.3156 16.4055 16.5714 16.0833 16.5714H7.91667C7.59423 16.5714 7.33333 16.3156 7.33333 16V14.8571C7.33333 14.5416 7.59423 14.2857 7.91667 14.2857H16.0833C16.4055 14.2857 16.6667 14.5416 16.6667 14.8571V16Z" fill="#8655FF" style="fill:#8655FF;fill:color(display-p3 0.5255 0.3333 1.0000);fill-opacity:1;"/>
</svg>
