<svg width="26" height="26" viewBox="0 0 26 26" fill="none" xmlns="http://www.w3.org/2000/svg">
<g clip-path="url(#clip0_1057_8286)">
<path d="M22.1357 19.5717C22.3892 19.8258 22.5316 20.1702 22.5316 20.5292C22.5316 20.8882 22.3892 21.2325 22.1357 21.4866L21.1781 22.4442C20.4706 23.1518 19.5399 23.5827 18.4119 23.7254C18.1322 23.7604 17.8505 23.7777 17.5686 23.7772C16.7476 23.7772 15.8618 23.6386 14.9243 23.3628C12.3793 22.6148 9.70259 20.9279 7.3895 18.6141C5.07642 16.3004 3.38879 13.6245 2.64078 11.0794C2.26838 9.81135 2.14583 8.63797 2.2782 7.59238C2.4209 6.46436 2.85186 5.53371 3.55941 4.82616L4.51698 3.86859C4.77113 3.61505 5.11546 3.47266 5.47446 3.47266C5.83345 3.47266 6.17779 3.61505 6.43194 3.86859L10.6453 8.08174C10.8988 8.33592 11.0412 8.68029 11.0412 9.03931C11.0412 9.39833 10.8988 9.7427 10.6453 9.99687L9.68769 10.9538C9.14603 11.4954 9.68515 13.2494 11.2198 14.7839C12.7544 16.3183 14.5075 16.8583 15.0499 16.3159L16.0074 15.3584C16.2616 15.1048 16.606 14.9624 16.965 14.9624C17.324 14.9624 17.6684 15.1048 17.9226 15.3584L22.1357 19.5717ZM18.9617 8.66691H20.5867V9.20858C20.5867 9.35224 20.6438 9.49001 20.7454 9.5916C20.8469 9.69318 20.9847 9.75025 21.1284 9.75025C21.272 9.75025 21.4098 9.69318 21.5114 9.5916C21.613 9.49001 21.67 9.35224 21.67 9.20858V7.04191C21.67 6.89825 21.613 6.76048 21.5114 6.6589C21.4098 6.55731 21.272 6.50025 21.1284 6.50025C20.9847 6.50025 20.8469 6.55731 20.7454 6.6589C20.6438 6.76048 20.5867 6.89825 20.5867 7.04191V7.58358H19.7133L20.5596 5.04655C20.6051 4.91025 20.5945 4.76149 20.5302 4.63299C20.466 4.50449 20.3533 4.40677 20.217 4.36134C20.0807 4.31591 19.932 4.32648 19.8035 4.39073C19.675 4.45498 19.5772 4.56765 19.5318 4.70394L18.4485 7.95394C18.4213 8.03532 18.4139 8.12197 18.4268 8.20677C18.4398 8.29157 18.4726 8.37209 18.5227 8.4417C18.5728 8.51132 18.6388 8.56803 18.7151 8.60719C18.7914 8.64634 18.8759 8.66681 18.9617 8.66691ZM16.5195 7.11724C16.0794 7.37724 15.7408 7.69056 15.5118 8.04823C15.2878 8.39371 15.1691 8.79685 15.17 9.20858C15.17 9.27971 15.184 9.35015 15.2113 9.41587C15.2385 9.48158 15.2784 9.5413 15.3287 9.5916C15.379 9.64189 15.4387 9.68179 15.5044 9.70901C15.5701 9.73624 15.6406 9.75025 15.7117 9.75025H17.8784C18.022 9.75025 18.1598 9.69318 18.2614 9.5916C18.363 9.49001 18.42 9.35224 18.42 9.20858C18.42 9.06492 18.363 8.92715 18.2614 8.82556C18.1598 8.72398 18.022 8.66691 17.8784 8.66691H16.4033C16.5371 8.43975 16.7595 8.23409 17.0706 8.04992C17.9408 7.53568 18.42 6.79292 18.42 5.95858C18.42 5.5276 18.2488 5.11428 17.9441 4.80953C17.6393 4.50478 17.226 4.33358 16.795 4.33358C16.3641 4.33358 15.9507 4.50478 15.646 4.80953C15.3412 5.11428 15.17 5.5276 15.17 5.95858C15.17 6.10224 15.2271 6.24001 15.3287 6.3416C15.4303 6.44318 15.568 6.50025 15.7117 6.50025C15.8554 6.50025 15.9931 6.44318 16.0947 6.3416C16.1963 6.24001 16.2534 6.10224 16.2534 5.95858C16.2534 5.81492 16.3104 5.67715 16.412 5.57556C16.5136 5.47398 16.6514 5.41691 16.795 5.41691C16.9387 5.41691 17.0765 5.47398 17.1781 5.57556C17.2796 5.67715 17.3367 5.81492 17.3367 5.95858C17.3367 6.51717 16.8924 6.89702 16.5195 7.11724ZM24.3784 6.50025C24.1938 6.50005 24.0107 6.53143 23.8367 6.59301V4.87525C23.8367 4.73159 23.7796 4.59381 23.6781 4.49223C23.5765 4.39065 23.4387 4.33358 23.295 4.33358C23.1514 4.33358 23.0136 4.39065 22.912 4.49223C22.8104 4.59381 22.7534 4.73159 22.7534 4.87525V9.20858C22.7534 9.35224 22.8104 9.49001 22.912 9.5916C23.0136 9.69318 23.1514 9.75025 23.295 9.75025C23.4387 9.75025 23.5765 9.69318 23.6781 9.5916C23.7796 9.49001 23.8367 9.35224 23.8367 9.20858V8.12525C23.8367 7.98159 23.8938 7.84381 23.9954 7.74223C24.0969 7.64065 24.2347 7.58358 24.3784 7.58358C24.522 7.58358 24.6598 7.64065 24.7614 7.74223C24.863 7.84381 24.92 7.98159 24.92 8.12525V9.20858C24.92 9.35224 24.9771 9.49001 25.0787 9.5916C25.1803 9.69318 25.318 9.75025 25.4617 9.75025C25.6054 9.75025 25.7431 9.69318 25.8447 9.5916C25.9463 9.49001 26.0034 9.35224 26.0034 9.20858V8.12525C26.0029 7.69442 25.8315 7.28138 25.5269 6.97674C25.2222 6.6721 24.8092 6.50074 24.3784 6.50025Z" fill="#8655FF" style="fill:#8655FF;fill:color(display-p3 0.5255 0.3333 1.0000);fill-opacity:1;"/>
</g>
<defs>
<clipPath id="clip0_1057_8286">
<rect width="26" height="26" fill="white" style="fill:white;fill-opacity:1;"/>
</clipPath>
</defs>
</svg>
