<svg width="32" height="32" viewBox="0 0 32 32" fill="none" xmlns="http://www.w3.org/2000/svg">
<path d="M27.2379 24.0876C27.55 24.4004 27.7252 24.8242 27.7252 25.2661C27.7252 25.7079 27.55 26.1317 27.2379 26.4445L26.0594 27.623C25.1886 28.4939 24.0431 29.0243 22.6548 29.1999C22.3105 29.2429 21.9639 29.2642 21.6169 29.2637C20.6065 29.2637 19.5163 29.093 18.3623 28.7537C15.23 27.833 11.9356 25.7568 9.08876 22.9091C6.24189 20.0614 4.16481 16.768 3.24418 13.6355C2.78585 12.0749 2.63501 10.6307 2.79793 9.34387C2.97356 7.95554 3.50397 6.81012 4.37481 5.93929L5.55335 4.76074C5.86615 4.44869 6.28995 4.27344 6.73179 4.27344C7.17363 4.27344 7.59743 4.44869 7.91022 4.76074L13.0958 9.94616C13.4079 10.259 13.5832 10.6828 13.5832 11.1247C13.5832 11.5666 13.4079 11.9904 13.0958 12.3032L11.9173 13.481C11.2506 14.1476 11.9142 16.3064 13.8029 18.1949C15.6917 20.0835 17.8494 20.748 18.5169 20.0805L19.6954 18.902C20.0083 18.5899 20.4321 18.4147 20.874 18.4147C21.3158 18.4147 21.7397 18.5899 22.0525 18.902L27.2379 24.0876ZM23.3315 10.6664H25.3315V11.333C25.3315 11.5098 25.4017 11.6794 25.5267 11.8044C25.6518 11.9295 25.8213 11.9997 25.9981 11.9997C26.175 11.9997 26.3445 11.9295 26.4695 11.8044C26.5946 11.6794 26.6648 11.5098 26.6648 11.333V8.66637C26.6648 8.48956 26.5946 8.31999 26.4695 8.19496C26.3445 8.06994 26.175 7.9997 25.9981 7.9997C25.8213 7.9997 25.6518 8.06994 25.5267 8.19496C25.4017 8.31999 25.3315 8.48956 25.3315 8.66637V9.33304H24.2565L25.2981 6.21054C25.3541 6.04279 25.341 5.85969 25.262 5.70154C25.1829 5.54338 25.0442 5.42312 24.8765 5.3672C24.7087 5.31129 24.5256 5.3243 24.3675 5.40338C24.2093 5.48245 24.0891 5.62112 24.0331 5.78887L22.6998 9.78887C22.6664 9.88902 22.6573 9.99567 22.6732 10.1C22.6891 10.2044 22.7295 10.3035 22.7912 10.3892C22.8529 10.4749 22.934 10.5447 23.0279 10.5929C23.1219 10.6411 23.2259 10.6662 23.3315 10.6664ZM20.3256 8.75908C19.784 9.07908 19.3673 9.4647 19.0854 9.90491C18.8098 10.3301 18.6636 10.8263 18.6648 11.333C18.6648 11.4206 18.682 11.5073 18.7156 11.5882C18.7491 11.669 18.7982 11.7425 18.8601 11.8044C18.922 11.8663 18.9955 11.9155 19.0764 11.949C19.1572 11.9825 19.2439 11.9997 19.3315 11.9997H21.9981C22.175 11.9997 22.3445 11.9295 22.4695 11.8044C22.5946 11.6794 22.6648 11.5098 22.6648 11.333C22.6648 11.1562 22.5946 10.9867 22.4695 10.8616C22.3445 10.7366 22.175 10.6664 21.9981 10.6664H20.1827C20.3473 10.3868 20.6211 10.1337 21.004 9.90699C22.075 9.27408 22.6648 8.35991 22.6648 7.33304C22.6648 6.8026 22.4541 6.2939 22.079 5.91882C21.7039 5.54375 21.1952 5.33304 20.6648 5.33304C20.1344 5.33304 19.6257 5.54375 19.2506 5.91882C18.8755 6.2939 18.6648 6.8026 18.6648 7.33304C18.6648 7.50985 18.735 7.67942 18.8601 7.80444C18.9851 7.92946 19.1547 7.9997 19.3315 7.9997C19.5083 7.9997 19.6779 7.92946 19.8029 7.80444C19.9279 7.67942 19.9981 7.50985 19.9981 7.33304C19.9981 7.15622 20.0684 6.98666 20.1934 6.86163C20.3184 6.73661 20.488 6.66637 20.6648 6.66637C20.8416 6.66637 21.0112 6.73661 21.1362 6.86163C21.2612 6.98666 21.3315 7.15622 21.3315 7.33304C21.3315 8.02054 20.7846 8.48804 20.3256 8.75908ZM29.9981 7.9997C29.771 7.99947 29.5456 8.03808 29.3315 8.11387V5.9997C29.3315 5.82289 29.2612 5.65332 29.1362 5.5283C29.0112 5.40327 28.8416 5.33304 28.6648 5.33304C28.488 5.33304 28.3184 5.40327 28.1934 5.5283C28.0684 5.65332 27.9981 5.82289 27.9981 5.9997V11.333C27.9981 11.5098 28.0684 11.6794 28.1934 11.8044C28.3184 11.9295 28.488 11.9997 28.6648 11.9997C28.8416 11.9997 29.0112 11.9295 29.1362 11.8044C29.2612 11.6794 29.3315 11.5098 29.3315 11.333V9.9997C29.3315 9.82289 29.4017 9.65332 29.5267 9.5283C29.6518 9.40327 29.8213 9.33304 29.9981 9.33304C30.175 9.33304 30.3445 9.40327 30.4695 9.5283C30.5946 9.65332 30.6648 9.82289 30.6648 9.9997V11.333C30.6648 11.5098 30.735 11.6794 30.8601 11.8044C30.9851 11.9295 31.1547 11.9997 31.3315 11.9997C31.5083 11.9997 31.6779 11.9295 31.8029 11.8044C31.9279 11.6794 31.9981 11.5098 31.9981 11.333V9.9997C31.9975 9.46946 31.7866 8.9611 31.4117 8.58616C31.0367 8.21122 30.5284 8.00031 29.9981 7.9997Z" fill="white" style="fill:white;fill-opacity:1;"/>
</svg>
