<svg width="32" height="32" viewBox="0 0 32 32" fill="none" xmlns="http://www.w3.org/2000/svg">
<path d="M25.2643 23.4521C24.6666 23.0517 23.8579 22.7054 22.8608 22.4228C21.9291 22.1589 20.8504 21.9545 19.6816 21.8162C19.9714 21.3849 20.2538 20.9487 20.5288 20.5078C21.6395 18.7261 22.5263 17.0154 23.1649 15.4232C23.9827 13.384 24.3974 11.5219 24.3974 9.88864C24.3974 8.81473 24.1717 7.77314 23.7265 6.79277C23.2989 5.85105 22.6881 5.00664 21.9112 4.28298C21.139 3.56377 20.241 2.99955 19.2419 2.60598C18.2113 2.20005 17.1177 1.99414 15.9913 1.99414C14.865 1.99414 13.7713 2.20005 12.7407 2.60602C11.7418 2.99955 10.8437 3.56377 10.0715 4.28298C9.29456 5.00664 8.68378 5.85105 8.25619 6.79277C7.81097 7.77314 7.58525 8.81473 7.58525 9.88864C7.58525 11.5219 7.99991 13.384 8.81775 15.4232C9.45631 17.0154 10.3432 18.7261 11.4538 20.5078C11.7289 20.9488 12.0114 21.3851 12.3012 21.8165C11.1333 21.9547 10.0554 22.159 9.12425 22.4228C8.12716 22.7054 7.3185 23.0517 6.72072 23.4521C5.54391 24.2405 5.29688 25.1553 5.29688 25.7839C5.29688 26.4124 5.54391 27.3272 6.72069 28.1156C7.31847 28.516 8.12713 28.8624 9.12425 29.1449C10.9803 29.6708 13.4194 29.9605 15.9926 29.9605C18.5657 29.9605 21.0049 29.6708 22.8608 29.1449C23.8579 28.8624 24.6666 28.516 25.2644 28.1156C26.4412 27.3272 26.6882 26.4124 26.6882 25.7839C26.6882 25.1553 26.4412 24.2405 25.2643 23.4521ZM15.9913 6.19489C18.0594 6.19489 19.7363 7.8718 19.7363 9.93983C19.7363 12.0079 18.0594 13.6848 15.9913 13.6848C13.9233 13.6848 12.2464 12.0079 12.2464 9.93983C12.2464 7.8718 13.9233 6.19489 15.9913 6.19489ZM15.9925 28.3616C10.9685 28.3616 6.89575 27.2075 6.89575 25.7839C6.89575 24.6207 9.61475 23.6377 13.3499 23.3169C14.4167 24.7848 15.2142 25.7137 15.2648 25.7724L15.9913 26.6149L16.7179 25.7724C16.7684 25.7137 17.566 24.7846 18.633 23.3167C22.3692 23.6373 25.0893 24.6205 25.0893 25.7839C25.0893 27.2075 21.0165 28.3616 15.9925 28.3616Z" fill="white" style="fill:white;fill-opacity:1;"/>
</svg>
