<svg width="126" height="53" viewBox="0 0 126 53" fill="none" xmlns="http://www.w3.org/2000/svg">
<path d="M47.2848 4.62102L40.6559 9.17325C55.0076 9.59221 64.763 4.98057 64.763 4.98057C54.3612 10.0706 43.3783 10.5333 38.7664 10.4645L30.8633 15.8828C30.8633 15.8828 55.567 15.2669 71.2924 0C71.2893 0.00312654 61.5713 7.24731 47.2848 4.62102Z" fill="#D72027"/>
<path d="M77.0009 15.7858H76.3544C76.3544 15.7858 76.6466 16.2235 76.2363 16.8269L70.7604 24.3212L71.4224 17.1896C71.5529 16.2735 72.2708 15.7827 72.2708 15.7827H69.9369H64.0414L57.7979 24.3212L58.4567 17.2396C58.4567 17.2302 58.466 17.2209 58.466 17.2146C58.5872 16.2892 59.3176 15.792 59.3176 15.792H58.5904V15.7858L51.0851 15.7827V15.7889C50.6935 15.767 31.8914 14.8916 29.0727 19.9378C30.2319 17.5929 31.0119 15.889 31.0647 15.8139H17.4154C17.5583 15.8546 18.3104 16.2704 18.0556 16.9832V16.9864C17.3439 19.4251 15.6129 25.081 13.6767 29.2737C11.1408 34.7607 5.43487 36.768 1.51596 38.1686C1.15546 38.2968 1.2114 38.5657 1.58744 38.5688C11.2247 38.6283 19.1371 37.8497 25.1258 27.4165C26.515 24.9997 27.8762 22.3515 28.9452 20.1942C28.8769 20.3537 28.824 20.5131 28.7805 20.6944C27.553 26.3222 38.0075 26.6818 37.8552 28.0293C37.7185 29.2174 31.4874 28.8484 27.3758 27.4884C27.3541 27.479 27.3354 27.4696 27.323 27.4665C26.5336 27.2039 26.2011 26.738 26.2011 26.738L26.2384 27.0601L26.2321 27.0569C26.2321 27.0569 26.2384 27.0788 26.2415 27.107L26.4062 28.6108C26.5709 30.1929 26.7884 32.4252 26.7884 32.4252C26.7884 32.4252 48.5709 35.1953 48.9718 28.0699C49.2701 22.6829 38.7814 22.0326 38.8995 20.8508C39.0051 19.744 44.1143 19.6033 47.2097 20.0691C47.2159 20.0723 47.2252 20.0754 47.2345 20.0754C48.6206 20.2942 48.8164 21.0509 48.8164 21.0509L49.0433 20.5225H49.0464C49.0464 20.4975 50.9173 16.2016 51.082 15.8233L49.6772 30.9276V30.9338C49.5529 31.8531 48.8226 32.3596 48.8226 32.3596H50.2926L57.0458 32.3658L63.2955 23.8147L62.6336 30.9432C62.5062 31.8593 61.7852 32.3564 61.7852 32.3564H62.5031V32.3596L70.0083 32.3533L82.1163 15.792L77.0009 15.7858Z" fill="#1A499C"/>
<path d="M92.1979 23.3271C92.1979 22.68 92.0394 22.2204 91.7256 21.9452C91.4117 21.6732 90.874 21.5356 90.1157 21.5356C89.3947 21.5356 88.8633 21.6638 88.5152 21.9265C88.1671 22.186 87.9931 22.6206 87.9931 23.2334C87.9931 23.5491 88.0242 23.8211 88.0863 24.0525C88.1516 24.2807 88.2759 24.4746 88.4655 24.634C88.6519 24.7935 88.913 24.9217 89.2424 25.0249C89.5719 25.128 90.0007 25.2156 90.5291 25.2906C91.3246 25.4032 91.9804 25.5564 92.4994 25.7377C93.0153 25.9222 93.4286 26.1535 93.7301 26.4318C94.0315 26.7101 94.2429 27.0446 94.3672 27.4323C94.4853 27.82 94.5443 28.2796 94.5443 28.8142C94.5443 29.4896 94.4511 30.0617 94.2615 30.5401C94.075 31.0153 93.7922 31.403 93.4193 31.7031C93.0464 32.0002 92.5833 32.219 92.027 32.3503C91.4707 32.4816 90.8336 32.5504 90.1126 32.5504C89.4071 32.5504 88.7794 32.4879 88.2386 32.3597C87.6948 32.2347 87.241 32.022 86.8774 31.7219C86.5107 31.4249 86.231 31.0341 86.0445 30.5588C85.855 30.0836 85.7617 29.5021 85.7617 28.8142H87.8439C87.8439 29.5396 88.0211 30.0429 88.3723 30.3306C88.7265 30.6182 89.3077 30.7589 90.1157 30.7589C90.9486 30.7589 91.5422 30.6182 91.8965 30.3306C92.2508 30.0461 92.4279 29.5396 92.4279 28.8142C92.4279 28.5235 92.3937 28.2671 92.3254 28.0545C92.2539 27.8356 92.1233 27.6511 91.9276 27.5011C91.7318 27.3479 91.4552 27.2197 91.104 27.1103C90.7497 27.0008 90.2835 26.9039 89.7024 26.8164C89.0591 26.7132 88.4966 26.5787 88.0149 26.4068C87.5363 26.2348 87.1416 26.0066 86.8308 25.7189C86.5231 25.4344 86.2931 25.0874 86.1409 24.6809C85.9917 24.2745 85.914 23.7868 85.914 23.2146C85.914 22.1359 86.2496 21.2886 86.9271 20.6696C87.6046 20.0537 88.6582 19.7441 90.1002 19.7441C91.5391 19.7441 92.5957 20.0161 93.2732 20.5539C93.9507 21.0948 94.2864 22.0203 94.2864 23.3271H92.1979Z" fill="#1A499C"/>
<path d="M101.288 32.3378C101.098 32.4004 100.853 32.4504 100.548 32.491C100.247 32.5285 99.9608 32.5473 99.6966 32.5473C98.8015 32.5473 98.1707 32.3253 97.804 31.8813C97.4372 31.4374 97.2539 30.7652 97.2539 29.8616V24.5277H95.9082V23.0989L97.2539 22.8144V20.5852L99.3019 20.1475V22.8144H101.291V24.5277H99.3019V29.8835C99.3019 30.1743 99.3672 30.4056 99.5008 30.5776C99.6313 30.7495 99.8613 30.834 100.191 30.834C100.442 30.834 100.654 30.8152 100.825 30.7746C100.996 30.737 101.151 30.7058 101.291 30.6808V32.3378H101.288Z" fill="#1A499C"/>
<path d="M106.761 30.8367C107.14 30.8367 107.485 30.8304 107.802 30.8148C108.119 30.8023 108.414 30.7835 108.694 30.7585C108.973 30.7335 109.241 30.7022 109.499 30.6647C109.756 30.6272 110.021 30.5803 110.285 30.5303V32.2092C109.794 32.3093 109.272 32.3937 108.722 32.4562C108.171 32.5219 107.562 32.55 106.894 32.55C106.201 32.55 105.589 32.4843 105.058 32.3499C104.526 32.2155 104.085 31.981 103.734 31.6464C103.379 31.3088 103.112 30.8523 102.938 30.2739C102.761 29.6955 102.674 28.9639 102.674 28.0728V27.0817C102.674 26.2188 102.761 25.4997 102.938 24.9275C103.115 24.3585 103.373 23.902 103.712 23.5581C104.054 23.2142 104.479 22.9703 104.992 22.8233C105.502 22.6764 106.092 22.6045 106.764 22.6045C107.395 22.6045 107.957 22.6764 108.451 22.814C108.942 22.9547 109.359 23.1954 109.701 23.5393C110.042 23.8832 110.3 24.3397 110.477 24.9119C110.655 25.484 110.745 26.2063 110.745 27.0848V28.3073H104.722C104.722 28.7888 104.753 29.189 104.815 29.5079C104.88 29.8268 104.989 30.0863 105.148 30.2895C105.306 30.4927 105.514 30.6334 105.772 30.7179C106.024 30.7929 106.357 30.8367 106.761 30.8367ZM108.69 26.8535C108.69 26.422 108.675 26.0437 108.644 25.7185C108.613 25.3996 108.532 25.1339 108.398 24.9275C108.265 24.7274 108.069 24.5742 107.811 24.471C107.553 24.371 107.202 24.3178 106.761 24.3178C106.329 24.3178 105.984 24.3647 105.719 24.4585C105.452 24.5555 105.247 24.6993 105.095 24.8962C104.943 25.0932 104.843 25.3527 104.793 25.6779C104.741 25.9999 104.719 26.3907 104.719 26.8503H108.69V26.8535Z" fill="#1A499C"/>
<path d="M116.438 30.8367C116.817 30.8367 117.166 30.8304 117.479 30.8148C117.796 30.8023 118.092 30.7835 118.371 30.7585C118.651 30.7335 118.918 30.7022 119.176 30.6647C119.434 30.6272 119.698 30.5803 119.963 30.5303V32.2092C119.471 32.3093 118.949 32.3937 118.399 32.4562C117.849 32.5219 117.24 32.55 116.572 32.55C115.879 32.55 115.267 32.4843 114.735 32.3499C114.204 32.2155 113.762 31.981 113.411 31.6464C113.057 31.3088 112.79 30.8523 112.616 30.2739C112.439 29.6955 112.352 28.9639 112.352 28.0728V27.0817C112.352 26.2188 112.439 25.4997 112.616 24.9275C112.793 24.3585 113.051 23.902 113.39 23.5581C113.731 23.2142 114.157 22.9703 114.67 22.8233C115.18 22.6764 115.77 22.6045 116.441 22.6045C117.072 22.6045 117.635 22.6764 118.129 22.814C118.62 22.9547 119.036 23.1954 119.378 23.5393C119.72 23.8832 119.978 24.3397 120.155 24.9119C120.332 25.484 120.422 26.2063 120.422 27.0848V28.3073H114.4C114.4 28.7888 114.431 29.189 114.493 29.5079C114.558 29.8268 114.667 30.0863 114.825 30.2895C114.984 30.4927 115.192 30.6334 115.45 30.7179C115.702 30.7929 116.034 30.8367 116.438 30.8367ZM118.368 26.8535C118.368 26.422 118.353 26.0437 118.322 25.7185C118.291 25.3996 118.21 25.1339 118.076 24.9275C117.942 24.7274 117.747 24.5742 117.489 24.471C117.231 24.371 116.88 24.3178 116.438 24.3178C116.009 24.3178 115.661 24.3647 115.397 24.4585C115.13 24.5555 114.925 24.6993 114.773 24.8962C114.62 25.0932 114.521 25.3527 114.471 25.6779C114.418 25.9999 114.396 26.3907 114.396 26.8503H118.368V26.8535Z" fill="#1A499C"/>
<path d="M124.354 19.5752H122.309V32.3408H124.354V19.5752Z" fill="#1A499C"/>
<path d="M4.48453 50.5059H5.49456C5.49456 52.2849 4.64924 52.9696 2.80322 52.9696C0.845318 52.9696 0 52.2317 0 49.9963V47.4294C0 45.2565 0.808024 44.4561 2.80322 44.4561C4.64613 44.4561 5.49456 45.1564 5.49456 46.9323H4.48453C4.48453 45.7504 3.9935 45.344 2.80633 45.344C1.50417 45.344 1.01314 45.8005 1.01314 47.3512V50.0713C1.01314 51.6221 1.47931 52.0785 2.80633 52.0785C3.9935 52.0817 4.48453 51.7127 4.48453 50.5059Z" fill="#17479E"/>
<path d="M12.0799 50.0119C12.0799 52.2974 11.2719 52.9853 9.41656 52.9853C7.55811 52.9853 6.76562 52.3006 6.76562 50.0119V49.3241C6.76562 47.0386 7.58608 46.3633 9.41656 46.3633C11.2595 46.3633 12.0799 47.0355 12.0799 49.3241V50.0119ZM11.0948 49.3241C11.0948 47.6233 10.6908 47.2012 9.41656 47.2012C8.13926 47.2012 7.75079 47.6201 7.75079 49.3241V50.0119C7.75079 51.7253 8.14237 52.1474 9.41656 52.1474C10.6908 52.1474 11.0948 51.7284 11.0948 50.0119V49.3241Z" fill="#17479E"/>
<path d="M15.1667 49.3491L17.3017 49.2084V48.4456C17.3017 47.5576 17.0127 47.2012 15.8504 47.2012C14.7906 47.2012 14.3991 47.5201 14.3991 48.383H13.4139C13.4139 46.8573 14.2996 46.3633 15.8504 46.3633C17.6311 46.3633 18.2869 46.9354 18.2869 48.4456V52.8415H17.6311L17.4043 52.2193C16.7858 52.7164 16.1922 52.9822 15.3718 52.9822C13.9329 52.9822 13.1622 52.36 13.1622 51.1656C13.1559 50.0745 13.8148 49.4398 15.1667 49.3491ZM17.2986 51.422V49.8587L15.2661 50.0745C14.5078 50.162 14.1535 50.4809 14.1535 51.1156C14.1535 51.8128 14.6104 52.1442 15.4433 52.1442C16.2389 52.1442 16.7454 51.9035 17.2986 51.422Z" fill="#17479E"/>
<path d="M20.1173 47.3298H19.2969V46.6451L20.1173 46.4919V44.9411L21.1025 44.7754V46.4919H22.529V47.3298H21.1025V51.3567C21.1025 51.8539 21.2921 52.1321 21.8111 52.1321C22.1654 52.1321 22.4295 52.0571 22.6564 52.0039V52.8419C22.4047 52.9169 22.0131 52.9825 21.6339 52.9825C20.5742 52.9825 20.1173 52.4604 20.1173 51.3442V47.3298Z" fill="#17479E"/>
<path d="M28.442 51.9037V52.7416C27.8484 52.8698 27.1274 52.9698 26.2448 52.9698C24.4392 52.9698 23.541 52.3977 23.541 50.009V49.3212C23.541 46.995 24.4267 46.3604 26.1795 46.3604C27.8857 46.3604 28.731 46.97 28.731 49.3087V50.0465H24.5262C24.5262 51.7099 24.9302 52.1444 26.2572 52.1444C27.1554 52.1444 27.7987 52.0319 28.442 51.9037ZM27.7489 49.2993C27.7489 47.736 27.4848 47.2014 26.1826 47.2014C24.8929 47.2014 24.5293 47.711 24.5293 49.2993H27.7489Z" fill="#17479E"/>
<path d="M29.9375 50.1245V49.221C29.9375 46.8823 30.845 46.3633 32.3243 46.3633C32.98 46.3633 33.6637 46.6541 34.2325 47.0636V44.3311H35.2176V52.8446H34.5619L34.335 52.2224C33.7539 52.6789 33.0204 52.9853 32.3274 52.9853C30.845 52.9822 29.9375 52.4507 29.9375 50.1245ZM34.2325 51.3814V47.9266C33.7414 47.4826 33.0328 47.2012 32.4517 47.2012C31.3919 47.2012 30.9227 47.6202 30.9227 49.246V50.0839C30.9227 51.6972 31.3888 52.1411 32.4517 52.1411C33.0049 52.1443 33.7507 51.8785 34.2325 51.3814Z" fill="#17479E"/>
<path d="M39.832 44.584H42.4332C44.3383 44.584 45.2365 45.1061 45.2365 47.1759C45.2365 49.0549 44.3787 49.7178 42.4581 49.7178H40.8421V52.8443H39.832V44.584ZM42.4581 48.8548C43.7354 48.8548 44.1891 48.4984 44.1891 47.179C44.1891 45.7564 43.6826 45.4782 42.4457 45.4782H40.8421V48.858H42.4581V48.8548Z" fill="#17479E"/>
<path d="M49.243 47.2794C48.4599 47.2794 47.9688 47.4826 47.4871 47.9391V52.8446H46.502V46.4915H47.1577L47.3846 47.1136C47.916 46.6447 48.4816 46.3633 49.2399 46.3633V47.2794H49.243Z" fill="#17479E"/>
<path d="M55.3182 50.0119C55.3182 52.2974 54.5102 52.9853 52.6548 52.9853C50.7964 52.9853 50.0039 52.3006 50.0039 50.0119V49.3241C50.0039 47.0386 50.8244 46.3633 52.6548 46.3633C54.4978 46.3633 55.3182 47.0355 55.3182 49.3241V50.0119ZM54.333 49.3241C54.333 47.6233 53.929 47.2012 52.6548 47.2012C51.3775 47.2012 50.9891 47.6201 50.9891 49.3241V50.0119C50.9891 51.7253 51.3807 52.1474 52.6548 52.1474C53.929 52.1474 54.333 51.7284 54.333 50.0119V49.3241Z" fill="#17479E"/>
<path d="M56.5215 50.1245V49.221C56.5215 46.8823 57.4321 46.3633 58.9083 46.3633C59.564 46.3633 60.2477 46.6541 60.8164 47.0636V44.3311H61.8016V52.8446H61.1459L60.919 52.2224C60.3378 52.6789 59.6044 52.9853 58.9114 52.9853C57.4321 52.9822 56.5215 52.4507 56.5215 50.1245ZM60.8164 51.3814V47.9266C60.3254 47.4826 59.6168 47.2012 59.0357 47.2012C57.9759 47.2012 57.5066 47.6202 57.5066 49.246V50.0839C57.5066 51.6972 57.9728 52.1411 59.0357 52.1411C59.592 52.1443 60.3378 51.8785 60.8164 51.3814Z" fill="#17479E"/>
<path d="M67.8188 52.8441L67.5919 52.222C66.9237 52.7316 66.3426 52.9723 65.5066 52.9723C64.0552 52.9723 63.4492 52.4127 63.4492 50.7369V46.4941H64.4344V50.7369C64.4344 51.8687 64.8508 52.1469 65.7614 52.1469C66.3674 52.1469 66.9859 51.9062 67.4924 51.4997V46.4941H68.4776V52.8473H67.8188V52.8441Z" fill="#17479E"/>
<path d="M70.9129 49.3239V50.0118C70.9129 51.7407 71.3418 52.1472 72.5911 52.1472C73.7286 52.1472 74.058 51.8033 74.0673 50.8653H75.0525C75.0525 52.4286 74.2569 52.9882 72.5911 52.9882C70.7731 52.9882 69.9277 52.3535 69.9277 50.0149V49.327C69.9277 46.9884 70.7979 46.3662 72.5911 46.3662C74.26 46.3662 75.0525 46.9259 75.0525 48.4766H74.0673C74.0549 47.548 73.7254 47.2072 72.5911 47.2072C71.3449 47.201 70.9129 47.6074 70.9129 49.3239Z" fill="#17479E"/>
<path d="M76.8283 47.3298H76.0078V46.6451L76.8283 46.4919V44.9411L77.8134 44.7754V46.4919H79.2399V47.3298H77.8134V51.3567C77.8134 51.8539 78.003 52.1321 78.522 52.1321C78.8763 52.1321 79.1405 52.0571 79.3673 52.0039V52.8419C79.1156 52.9169 78.724 52.9825 78.3449 52.9825C77.2851 52.9825 76.8283 52.4604 76.8283 51.3442V47.3298Z" fill="#17479E"/>
<path d="M82.8286 52.9695C80.8335 52.9695 80.3145 52.2316 80.3145 50.9872H81.2996C81.2996 51.8001 81.629 52.1441 82.8286 52.1441C84.2178 52.1441 84.4198 51.7376 84.4198 51.0779C84.4198 50.3901 84.0904 50.1243 82.7541 50.0118C81.0355 49.8586 80.4294 49.3771 80.4294 48.2202C80.4294 46.9102 81.34 46.3662 82.8411 46.3662C84.5348 46.3662 85.2527 46.9259 85.2527 48.3609H84.2676C84.2676 47.6106 83.963 47.2041 82.8411 47.2041C81.9056 47.2041 81.4146 47.4824 81.4146 48.2202C81.4146 48.9331 81.8186 49.1989 82.9188 49.2864C84.9015 49.4646 85.405 49.8961 85.405 51.0779C85.405 52.1065 85.1284 52.9695 82.8286 52.9695Z" fill="#17479E"/>
<path d="M89.7676 44.584H90.7776V51.9532H93.7082V52.8412H89.7676V44.584Z" fill="#17479E"/>
<path d="M95.0117 44.3311H96.0466V45.3722H95.0117V44.3311ZM95.0366 46.4915H96.0217V52.8446H95.0366V46.4915Z" fill="#17479E"/>
<path d="M98.5478 47.1136C99.2036 46.6322 99.8096 46.3633 100.518 46.3633C101.339 46.3633 101.808 46.6697 102.122 47.1262C102.778 46.6572 103.408 46.3633 104.154 46.3633C105.618 46.3633 105.935 47.0355 105.935 48.4205V52.8415H104.95V48.4205C104.95 47.492 104.698 47.2012 103.85 47.2012C103.396 47.2012 102.79 47.4419 102.283 47.8359V52.8415H101.298V48.4205C101.298 47.492 101.059 47.2012 100.214 47.2012C99.7319 47.2012 99.1538 47.4294 98.6473 47.8359V52.8415H97.6621V46.4883H98.3179L98.5478 47.1136Z" fill="#17479E"/>
<path d="M107.557 44.3311H108.592V45.3722H107.557V44.3311ZM107.582 46.4915H108.567V52.8446H107.582V46.4915Z" fill="#17479E"/>
<path d="M110.527 47.3298H109.707V46.6451L110.527 46.4919V44.9411L111.513 44.7754V46.4919H112.939V47.3298H111.513V51.3567C111.513 51.8539 111.702 52.1321 112.221 52.1321C112.576 52.1321 112.84 52.0571 113.067 52.0039V52.8419C112.815 52.9169 112.423 52.9825 112.044 52.9825C110.984 52.9825 110.527 52.4604 110.527 51.3442V47.3298Z" fill="#17479E"/>
<path d="M118.85 51.9037V52.7416C118.257 52.8698 117.536 52.9698 116.653 52.9698C114.847 52.9698 113.949 52.3977 113.949 50.009V49.3212C113.949 46.995 114.835 46.3604 116.588 46.3604C118.294 46.3604 119.139 46.97 119.139 49.3087V50.0465H114.934C114.934 51.7099 115.338 52.1444 116.665 52.1444C117.564 52.1444 118.207 52.0319 118.85 51.9037ZM118.157 49.2993C118.157 47.736 117.893 47.2014 116.591 47.2014C115.301 47.2014 114.937 47.711 114.937 49.2993H118.157Z" fill="#17479E"/>
<path d="M120.346 50.1245V49.221C120.346 46.8823 121.253 46.3633 122.732 46.3633C123.388 46.3633 124.072 46.6541 124.641 47.0636V44.3311H125.626V52.8446H124.97L124.743 52.2224C124.162 52.6789 123.429 52.9853 122.736 52.9853C121.256 52.9822 120.346 52.4507 120.346 50.1245ZM124.641 51.3814V47.9266C124.147 47.4826 123.441 47.2012 122.86 47.2012C121.8 47.2012 121.331 47.6202 121.331 49.246V50.0839C121.331 51.6972 121.797 52.1411 122.86 52.1411C123.413 52.1443 124.159 51.8785 124.641 51.3814Z" fill="#17479E"/>
</svg>
