<svg width="18" height="18" viewBox="0 0 18 18" fill="none" xmlns="http://www.w3.org/2000/svg">
<path d="M9 15.75C12.7279 15.75 15.75 12.7279 15.75 9C15.75 5.27208 12.7279 2.25 9 2.25C5.27208 2.25 2.25 5.27208 2.25 9C2.25 12.7279 5.27208 15.75 9 15.75Z" stroke="white" style="stroke:white;stroke-opacity:1;" stroke-width="0.75" stroke-linecap="round" stroke-linejoin="round"/>
<path d="M2.63672 6.75H15.3633" stroke="white" style="stroke:white;stroke-opacity:1;" stroke-width="0.75" stroke-linecap="round" stroke-linejoin="round"/>
<path d="M2.63672 11.25H15.3633" stroke="white" style="stroke:white;stroke-opacity:1;" stroke-width="0.75" stroke-linecap="round" stroke-linejoin="round"/>
<path d="M9 15.5675C10.5533 15.5675 11.8125 12.6273 11.8125 9.00029C11.8125 5.37334 10.5533 2.43311 9 2.43311C7.4467 2.43311 6.1875 5.37334 6.1875 9.00029C6.1875 12.6273 7.4467 15.5675 9 15.5675Z" stroke="white" style="stroke:white;stroke-opacity:1;" stroke-width="0.75" stroke-linecap="round" stroke-linejoin="round"/>
</svg>
