<svg width="64" height="64" viewBox="0 0 64 64" fill="none" xmlns="http://www.w3.org/2000/svg">
<g clip-path="url(#clip0_311_104)">
<path d="M13.2261 23.894H21.3321V50.837H13.2261V23.894ZM17.3001 13.1C16.1862 13.1 15.1179 13.5425 14.3302 14.3301C13.5426 15.1178 13.1001 16.1861 13.1001 17.3C13.1592 18.3734 13.6277 19.3832 14.409 20.1216C15.1904 20.86 16.2251 21.2706 17.3001 21.269C18.3751 21.2706 19.4098 20.86 20.1912 20.1216C20.9725 19.3832 21.441 18.3734 21.5001 17.3C21.5001 16.1861 21.0576 15.1178 20.2699 14.3301C19.4823 13.5425 18.414 13.1 17.3001 13.1ZM48.2751 27.464C47.4535 26.5166 46.4218 25.7744 45.2623 25.2967C44.1027 24.8191 42.8476 24.6192 41.5971 24.713C39.9809 24.6754 38.3848 25.0776 36.9793 25.8765C35.5738 26.6754 34.4117 27.841 33.6171 29.249H33.4911V23.894H26.6871C26.8131 26.645 26.6871 50.837 26.6871 50.837H34.7931V34.1C34.979 33.1796 35.492 32.3577 36.2371 31.7863C36.9822 31.215 37.909 30.9328 38.8461 30.992C41.4711 30.992 42.7731 32.903 42.7731 36.599V50.9H50.9001V35.57C51.063 32.6356 50.1271 29.7458 48.2751 27.464Z" fill="white" style="fill:white;fill-opacity:1;"/>
</g>
<defs>
<clipPath id="clip0_311_104">
<rect width="38" height="38" fill="white" style="fill:white;fill-opacity:1;" transform="translate(13 13)"/>
</clipPath>
</defs>
</svg>
