<svg width="30" height="30" viewBox="0 0 30 30" fill="none" xmlns="http://www.w3.org/2000/svg">
<path fill-rule="evenodd" clip-rule="evenodd" d="M15.0499 29.6C10.6324 29.6 6.96835 26.0168 6.96835 21.6112V8.38874C6.96835 3.98315 10.6324 0.399994 15.0499 0.399994C19.4612 0.399994 23.0387 3.97747 23.0387 8.38874V21.6112C23.0387 26.0225 19.4612 29.6 15.0499 29.6ZM21.9637 8.38874C21.9637 4.57627 18.8624 1.47499 15.0499 1.47499C11.2443 1.47499 8.04335 4.56897 8.04335 8.38874V21.6112C8.04335 25.431 11.2443 28.525 15.0499 28.525C18.8624 28.525 21.9637 25.4237 21.9637 21.6112V8.38874ZM15.0134 11.7875C14.7164 11.7875 14.4759 11.5467 14.4759 11.25V6.56249C14.4759 6.26544 14.7163 6.02499 15.0134 6.02499C15.3104 6.02499 15.5509 6.26544 15.5509 6.56249V11.25C15.5509 11.5467 15.3103 11.7875 15.0134 11.7875Z" fill="#8655FF" style="fill:#8655FF;fill:color(display-p3 0.5255 0.3333 1.0000);fill-opacity:1;"/>
</svg>
