<svg width="32" height="32" viewBox="0 0 32 32" fill="none" xmlns="http://www.w3.org/2000/svg">
<path d="M23.3506 28.7959C23.2899 28.8058 23.2276 28.8125 23.1641 28.8125C23.2277 28.8125 23.2898 28.8058 23.3506 28.7959ZM25 3.3877C27.6449 3.3877 29.7998 5.54312 29.7998 8.19922V18.8906C29.7998 21.5027 27.6894 23.6257 25.0879 23.6689L24.79 23.6738L24.9072 23.9482C24.9441 24.0339 25.0059 24.0894 25.0566 24.126C25.1028 24.1592 25.1599 24.1893 25.1875 24.2051C25.2114 24.2188 25.2242 24.2287 25.2314 24.2344V25.7393C25.2314 26.2208 24.8296 26.5811 24.3086 26.6416L24.1318 26.6621V27.6338C24.1318 28.1728 23.6975 28.6123 23.1641 28.6123H22.8018C22.2691 28.6123 21.834 28.1727 21.834 27.6338V26.6621L21.6572 26.6416C21.1359 26.5805 20.7344 26.2207 20.7344 25.7393V24.2393C20.7399 24.2356 20.748 24.2303 20.7598 24.2236C20.782 24.2111 20.836 24.1827 20.8789 24.1523C20.9272 24.1182 20.9846 24.0663 21.0215 23.9863L21.1523 23.7031H19.541V26.252C19.5422 26.3798 19.5178 26.5066 19.4697 26.625C19.4216 26.7435 19.3507 26.8515 19.2607 26.9424C19.1708 27.0332 19.0633 27.1051 18.9453 27.1543C18.8272 27.2035 18.7002 27.2295 18.5723 27.2295H18.2197C18.0912 27.2303 17.9637 27.205 17.8447 27.1562C17.7257 27.1074 17.6173 27.0353 17.5264 26.9443C17.4355 26.8534 17.3633 26.7449 17.3145 26.626C17.2657 26.5071 17.2414 26.3794 17.2422 26.251V23.7031H7.01074C4.36628 23.7031 2.2002 21.5468 2.2002 18.8906V8.19922C2.2002 5.54369 4.36624 3.3877 7.01074 3.3877H25ZM24.3086 27.8701C24.3064 27.881 24.3023 27.8915 24.2998 27.9023C24.3028 27.8893 24.307 27.8765 24.3096 27.8633L24.3086 27.8701ZM17.1787 26.8076C17.2033 26.854 17.2321 26.8979 17.2627 26.9404C17.2547 26.9293 17.2459 26.9187 17.2383 26.9072L17.1787 26.8076ZM21.2158 26.7256C21.2726 26.7509 21.3319 26.7713 21.3926 26.7891C21.3319 26.7713 21.2726 26.7509 21.2158 26.7256ZM25.2949 26.252C25.2603 26.3115 25.2203 26.3673 25.1748 26.4189C25.2202 26.3673 25.2604 26.3115 25.2949 26.252ZM25.4258 25.8525C25.4219 25.8891 25.4167 25.925 25.4092 25.96L25.3809 26.0625C25.4029 25.9956 25.418 25.9251 25.4258 25.8516V25.8525ZM25.3877 24.1064H25.3887H25.3877ZM25.8379 23.8008H25.8389H25.8379ZM26.5498 23.626H26.5508H26.5498ZM27.4297 23.2432H27.4307H27.4297ZM28.3906 22.5488H28.3916H28.3906ZM7.01074 4.57422C5.01816 4.57422 3.39844 6.20777 3.39844 8.19922V18.8906C3.39844 20.8827 5.01753 22.5156 7.01074 22.5156H25C26.9926 22.5156 28.6123 20.8827 28.6123 18.8906V8.19922C28.6123 6.2078 26.9936 4.57422 25 4.57422H7.01074ZM25.6777 22.2461C25.5945 22.2631 25.5101 22.2764 25.4248 22.2871C25.5101 22.2764 25.5945 22.2631 25.6777 22.2461ZM6.33594 22.2471C6.41537 22.2632 6.49584 22.2757 6.57715 22.2861C6.49585 22.2757 6.41537 22.2632 6.33594 22.2471ZM25.8389 22.209C25.8124 22.2158 25.7855 22.2214 25.7588 22.2275C25.7855 22.2214 25.8123 22.2158 25.8389 22.209ZM6.23145 22.2236C6.21121 22.2189 6.191 22.2141 6.1709 22.209C6.191 22.2141 6.2112 22.2189 6.23145 22.2236ZM6.09863 22.1895C6.06623 22.1804 6.03397 22.1711 6.00195 22.1611C6.03397 22.1711 6.06622 22.1804 6.09863 22.1895ZM26.0068 22.1611C25.9751 22.171 25.9432 22.1805 25.9111 22.1895C25.9432 22.1805 25.9751 22.171 26.0068 22.1611ZM5.97559 22.1523C5.93138 22.1382 5.88716 22.1243 5.84375 22.1084C5.88716 22.1243 5.93138 22.1381 5.97559 22.1523ZM26.1592 22.1104C26.1218 22.124 26.0839 22.1361 26.0459 22.1484C26.0839 22.1361 26.1218 22.124 26.1592 22.1104ZM5.76465 22.0771C5.74479 22.0693 5.72475 22.0619 5.70508 22.0537C5.72475 22.0619 5.74479 22.0693 5.76465 22.0771ZM26.3037 22.0537C26.2853 22.0614 26.2667 22.0688 26.248 22.0762C26.2667 22.0688 26.2853 22.0614 26.3037 22.0537ZM5.4541 21.9355C5.43884 21.9276 5.42333 21.9202 5.4082 21.9121C5.42333 21.9202 5.43884 21.9276 5.4541 21.9355ZM26.5908 21.918C26.5835 21.9219 26.5757 21.9249 26.5684 21.9287C26.5757 21.9249 26.5835 21.9219 26.5908 21.918ZM5.33691 21.8721C5.31559 21.8599 5.29448 21.8475 5.27344 21.835C5.29447 21.8475 5.31559 21.8599 5.33691 21.8721ZM26.7344 21.8359C26.7192 21.845 26.7038 21.8535 26.6885 21.8623C26.7038 21.8535 26.7192 21.845 26.7344 21.8359ZM27.0049 21.6572C26.994 21.6652 26.9827 21.6728 26.9717 21.6807C26.9827 21.6728 26.994 21.6652 27.0049 21.6572ZM5.02734 21.6738C5.02259 21.6704 5.01744 21.6675 5.0127 21.6641C5.01744 21.6675 5.02259 21.6704 5.02734 21.6738ZM29.4072 21.2432C29.3694 21.3132 29.3301 21.3822 29.2891 21.4502C29.3302 21.382 29.3693 21.3125 29.4072 21.2422V21.2432ZM4.55859 21.2666C4.54821 21.2558 4.53758 21.2453 4.52734 21.2344C4.53758 21.2453 4.54822 21.2558 4.55859 21.2666ZM27.4775 21.2383C27.4709 21.2453 27.4647 21.2528 27.458 21.2598C27.4647 21.2528 27.4709 21.2453 27.4775 21.2383ZM4.33984 21.0176C4.3345 21.0108 4.32951 21.0038 4.32422 20.9971C4.32951 21.0038 4.33451 21.0108 4.33984 21.0176ZM4.15625 20.7627C4.14928 20.752 4.1426 20.7412 4.13574 20.7305C4.1426 20.7412 4.14928 20.752 4.15625 20.7627ZM3.94434 20.3906C3.9258 20.3527 3.90876 20.3141 3.8916 20.2754C3.90875 20.3141 3.92581 20.3527 3.94434 20.3906ZM28.0449 20.4297C28.0354 20.4485 28.0265 20.4677 28.0166 20.4863C28.0265 20.4677 28.0354 20.4485 28.0449 20.4297ZM2.1416 20.0732C2.15829 20.1419 2.1768 20.2098 2.19629 20.2773C2.1768 20.2098 2.15828 20.1419 2.1416 20.0732ZM3.81836 20.0986C3.7937 20.0334 3.77072 19.9674 3.75 19.9004C3.77071 19.9674 3.79371 20.0334 3.81836 20.0986ZM28.1885 20.1055C28.1771 20.1353 28.1655 20.1649 28.1533 20.1943C28.1655 20.1649 28.1771 20.1353 28.1885 20.1055ZM3.7041 19.7363C3.63501 19.4655 3.59766 19.1822 3.59766 18.8906C3.59766 19.1821 3.63509 19.4656 3.7041 19.7363ZM2.02539 19.3945C2.03632 19.5034 2.05152 19.6111 2.06934 19.7178C2.05153 19.6111 2.03631 19.5034 2.02539 19.3945ZM3.7041 7.35156C3.64872 7.56818 3.61425 7.79294 3.60254 8.02344L3.59766 8.19922C3.59766 7.90698 3.63465 7.62293 3.7041 7.35156ZM29.9746 7.6875V7.68652V7.6875ZM28.3066 7.35547C28.3134 7.38199 28.3191 7.40879 28.3252 7.43555C28.3191 7.40879 28.3134 7.38199 28.3066 7.35547ZM3.77148 7.125C3.7807 7.09721 3.7899 7.06947 3.7998 7.04199C3.78991 7.06947 3.78069 7.09721 3.77148 7.125ZM3.86133 6.88281C3.88228 6.8327 3.90451 6.78326 3.92773 6.73438C3.90452 6.78326 3.88226 6.8327 3.86133 6.88281ZM28.082 6.73438C28.0913 6.75384 28.1005 6.77331 28.1094 6.79297C28.1005 6.77331 28.0913 6.75384 28.082 6.73438ZM3.97949 6.63184C3.9833 6.62446 3.98637 6.61672 3.99023 6.60938C3.98637 6.61672 3.9833 6.62446 3.97949 6.63184ZM28.0195 6.60938C28.0235 6.61685 28.0274 6.62433 28.0312 6.63184C28.0274 6.62433 28.0235 6.61685 28.0195 6.60938ZM29.5059 6.02734V6.02637V6.02734ZM4.31543 6.10449C4.32679 6.08981 4.33801 6.07503 4.34961 6.06055C4.33802 6.07504 4.32679 6.08981 4.31543 6.10449ZM27.668 6.06934C27.6755 6.07881 27.682 6.08907 27.6895 6.09863C27.682 6.08907 27.6755 6.07881 27.668 6.06934ZM4.52148 5.86133C4.53735 5.84433 4.55411 5.82819 4.57031 5.81152C4.55411 5.8282 4.53735 5.84433 4.52148 5.86133ZM4.75684 5.63184C4.76704 5.6228 4.77778 5.61438 4.78809 5.60547C4.77778 5.61438 4.76704 5.6228 4.75684 5.63184ZM5.00488 5.43164C5.01733 5.42252 5.03039 5.41423 5.04297 5.40527C5.03039 5.41423 5.01733 5.42252 5.00488 5.43164ZM5.27344 5.25391C5.29447 5.24135 5.3156 5.22891 5.33691 5.2168C5.3156 5.22892 5.29447 5.24134 5.27344 5.25391ZM26.6895 5.22656C26.7045 5.23523 26.7195 5.24404 26.7344 5.25293C26.7195 5.24404 26.7045 5.23523 26.6895 5.22656ZM5.4082 5.17676C5.42333 5.16863 5.43884 5.16122 5.4541 5.15332C5.43884 5.16122 5.42333 5.16863 5.4082 5.17676ZM26.5693 5.16016C26.5767 5.164 26.5845 5.167 26.5918 5.1709C26.5845 5.167 26.5767 5.164 26.5693 5.16016ZM5.70508 5.03516C5.72731 5.02586 5.75 5.01762 5.77246 5.00879C5.75 5.01762 5.72731 5.02586 5.70508 5.03516ZM26.2158 5C26.2456 5.01146 26.2753 5.02289 26.3047 5.03516C26.2753 5.02289 26.2456 5.01146 26.2158 5ZM26.0859 4.95312C26.1124 4.96208 26.1389 4.97088 26.165 4.98047C26.1389 4.97088 26.1124 4.96209 26.0859 4.95312ZM5.85254 4.97754C5.87157 4.97061 5.89097 4.96461 5.91016 4.95801C5.89097 4.96461 5.87158 4.97061 5.85254 4.97754ZM6.1709 4.87988C6.19931 4.87262 6.22814 4.86689 6.25684 4.86035C6.22814 4.8669 6.19932 4.87261 6.1709 4.87988ZM25.7783 4.86523C25.7986 4.87 25.8188 4.87475 25.8389 4.87988C25.8188 4.87475 25.7986 4.87001 25.7783 4.86523ZM6.4209 4.82617C6.47515 4.81661 6.52987 4.8087 6.58496 4.80176C6.52987 4.8087 6.47515 4.81661 6.4209 4.82617ZM25.5283 4.81543C25.4966 4.81045 25.4646 4.80683 25.4326 4.80273C25.4646 4.80683 25.4966 4.81045 25.5283 4.81543ZM5.11328 3.56152C5.1793 3.53436 5.2461 3.50876 5.31348 3.48438C5.2461 3.50876 5.1793 3.53436 5.11328 3.56152ZM6.26562 3.24316C6.13368 3.26299 6.00345 3.28839 5.875 3.31836C5.99841 3.28957 6.12336 3.26455 6.25 3.24512L6.26562 3.24316ZM4 20.499C3.98089 20.4632 3.9622 20.4272 3.94434 20.3906C3.96219 20.4272 3.9809 20.4632 4 20.499ZM3.85742 20.1973C3.8439 20.1646 3.83089 20.1318 3.81836 20.0986C3.83088 20.1318 3.84391 20.1646 3.85742 20.1973ZM3.74805 19.8955C3.74169 19.8748 3.73644 19.8538 3.73047 19.833C3.73644 19.8538 3.7417 19.8748 3.74805 19.8955ZM3.73047 7.25586C3.72135 7.28761 3.71231 7.31945 3.7041 7.35156C3.71232 7.31945 3.72135 7.28761 3.73047 7.25586ZM2.05469 7.45508C2.05387 7.46054 2.05451 7.46621 2.05371 7.47168C2.05451 7.46621 2.05387 7.46054 2.05469 7.45508ZM3.82227 6.98047C3.8348 6.94767 3.84782 6.91512 3.86133 6.88281C3.84783 6.91512 3.83479 6.94767 3.82227 6.98047ZM6.33203 4.84277C6.3615 4.83676 6.39116 4.83141 6.4209 4.82617C6.39116 4.83141 6.3615 4.83676 6.33203 4.84277ZM25.5283 4.81543C25.5772 4.82311 25.6257 4.83205 25.6738 4.8418C25.6257 4.83205 25.5772 4.82311 25.5283 4.81543ZM4.93262 3.64062C4.9923 3.61326 5.05239 3.58658 5.11328 3.56152C5.05239 3.58658 4.99229 3.61327 4.93262 3.64062Z" fill="white" style="fill:white;fill-opacity:1;"/>
<path d="M14.6694 8.4823C14.3573 8.48451 14.0586 8.60949 13.838 8.8302C13.6173 9.0509 13.4924 9.3496 13.4903 9.66168V10.0132C13.4903 10.6595 14.0231 11.1814 14.6694 11.1814H17.2188C17.373 11.1827 17.5261 11.1535 17.669 11.0954C17.8119 11.0373 17.9419 10.9514 18.0515 10.8428C18.1611 10.7343 18.2482 10.605 18.3076 10.4627C18.367 10.3203 18.3977 10.1675 18.3978 10.0132V9.66168C18.3979 9.5068 18.3675 9.35343 18.3082 9.21033C18.249 9.06722 18.1622 8.93719 18.0527 8.82766C17.9432 8.71814 17.8132 8.63126 17.6701 8.572C17.527 8.51274 17.3736 8.48226 17.2188 8.4823H14.6694ZM5.52563 20.6848C5.52487 20.8544 5.59113 21.0175 5.70999 21.1385C5.82885 21.2596 5.9907 21.3287 6.16031 21.3311C6.33163 21.3311 6.49592 21.263 6.61706 21.1419C6.7382 21.0207 6.80625 20.8564 6.80625 20.6851C6.80625 20.5138 6.7382 20.3495 6.61706 20.2284C6.49592 20.1072 6.33163 20.0392 6.16031 20.0392C5.99078 20.0414 5.82898 20.1105 5.71012 20.2314C5.59126 20.3523 5.52495 20.5153 5.52563 20.6848ZM25.3909 20.6848C25.393 20.8099 25.4321 20.9317 25.5031 21.0347C25.5742 21.1377 25.6741 21.2174 25.7903 21.2639C25.9065 21.3103 26.0338 21.3213 26.1563 21.2956C26.2788 21.2699 26.3909 21.2086 26.4787 21.1193C26.5664 21.0301 26.6258 20.9169 26.6494 20.794C26.6731 20.6711 26.6598 20.544 26.6114 20.4286C26.563 20.3132 26.4816 20.2146 26.3774 20.1454C26.2731 20.0761 26.1508 20.0391 26.0256 20.0392C25.8561 20.0415 25.6944 20.1106 25.5755 20.2315C25.4567 20.3524 25.3903 20.5153 25.3909 20.6848ZM5.52563 6.28918C5.52487 6.45881 5.59113 6.62188 5.70999 6.74291C5.82885 6.86393 5.9907 6.93312 6.16031 6.93543C6.33163 6.93543 6.49592 6.86738 6.61706 6.74624C6.7382 6.6251 6.80625 6.46081 6.80625 6.28949C6.80625 6.11818 6.7382 5.95388 6.61706 5.83275C6.49592 5.71161 6.33163 5.64355 6.16031 5.64355C5.99078 5.64578 5.82898 5.71486 5.71012 5.83577C5.59126 5.95668 5.52495 6.11963 5.52563 6.28918ZM25.3909 6.28918C25.393 6.41431 25.4321 6.53603 25.5031 6.63906C25.5742 6.74208 25.6741 6.82182 25.7903 6.86824C25.9065 6.91467 26.0338 6.92572 26.1563 6.90001C26.2788 6.87429 26.3909 6.81296 26.4787 6.72372C26.5664 6.63447 26.6258 6.52129 26.6494 6.39839C26.6731 6.27549 26.6598 6.14835 26.6114 6.03294C26.563 5.91754 26.4816 5.81901 26.3774 5.74973C26.2731 5.68045 26.1508 5.64351 26.0256 5.64355C25.8561 5.64586 25.6944 5.71497 25.5755 5.83586C25.4567 5.95675 25.3903 6.11966 25.3909 6.28918Z" fill="white" style="fill:white;fill-opacity:1;"/>
</svg>
