<svg width="32" height="32" viewBox="0 0 32 32" fill="none" xmlns="http://www.w3.org/2000/svg">
<path d="M7.82715 30.8828C7.90225 30.9258 7.98131 30.9562 8.0625 30.9756C7.98129 30.9563 7.90227 30.9257 7.82715 30.8828ZM23.5742 30.8828C23.6493 30.9258 23.7284 30.9562 23.8096 30.9756C23.7284 30.9563 23.6493 30.9257 23.5742 30.8828ZM7.68652 30.7861C7.72149 30.8151 7.75859 30.84 7.7959 30.8633C7.78703 30.8577 7.7773 30.8535 7.76855 30.8477L7.68652 30.7861ZM23.4336 30.7861C23.4686 30.8151 23.5057 30.84 23.543 30.8633C23.5341 30.8577 23.5244 30.8535 23.5156 30.8477L23.4336 30.7861ZM25.6123 1.40039C26.0819 1.40051 26.5539 1.61852 26.9287 2.04688C27.2584 2.42372 27.4861 2.93436 27.5674 3.50098L27.5928 3.74707L27.5996 3.96387V26.3193C27.5995 26.9853 27.3976 27.6162 27.0479 28.0879C26.7005 28.556 26.242 28.823 25.7744 28.873L25.6094 28.8818L24.625 28.8799V29.7314L24.6113 29.9092C24.5844 30.0822 24.5197 30.2381 24.4297 30.3574C24.311 30.5147 24.1665 30.5878 24.0371 30.5986C23.9095 30.6092 23.7667 30.562 23.6396 30.4336C23.5106 30.3032 23.4131 30.1019 23.3857 29.8633L23.3779 29.71V28.8809H8.87793V29.7314L8.86426 29.9092C8.83732 30.0822 8.77262 30.2381 8.68262 30.3574C8.56389 30.5147 8.4194 30.5878 8.29004 30.5986C8.16246 30.6093 8.01968 30.562 7.89258 30.4336C7.76357 30.3032 7.66605 30.1019 7.63867 29.8633L7.63086 29.71V28.8809H6.3877C5.91814 28.8807 5.44606 28.6627 5.07129 28.2344C4.69459 27.8038 4.45139 27.1981 4.40723 26.5342L4.40039 26.3193V3.96387C4.40043 3.29759 4.6021 2.66617 4.95215 2.19434C5.30097 1.72417 5.7618 1.45558 6.23145 1.40723L6.38867 1.40039H25.6123ZM5.64648 23.6084V26.3193C5.6466 26.4845 5.69178 26.6523 5.7832 26.7959C5.87494 26.94 6.01545 27.061 6.19531 27.1143L6.22168 27.1221L6.25 27.126L6.3291 27.1377L6.3584 27.1426L25.6123 27.1416C25.8049 27.1417 25.9774 27.0612 26.1045 26.9365C26.2301 26.8132 26.307 26.6528 26.3379 26.4893L26.3418 26.4697L26.3438 26.4492L26.3516 26.3525L26.3535 26.3359V23.6084H5.64648ZM25.709 26.7236C25.701 26.7266 25.6928 26.7283 25.6846 26.7305C25.6928 26.7283 25.701 26.7266 25.709 26.7236ZM25.9453 26.416C25.9382 26.4537 25.9251 26.489 25.9102 26.5225C25.9159 26.5096 25.9222 26.4969 25.9268 26.4834L25.9453 26.416ZM6.3877 3.14062C6.24328 3.14051 6.1102 3.18628 5.99902 3.26172L5.89551 3.34668C5.77001 3.46991 5.693 3.62957 5.66211 3.79297L5.6582 3.81348L5.65625 3.83398L5.64844 3.92969L5.64648 3.94727V21.8682H26.3535V3.96387C26.3534 3.83995 26.3284 3.7142 26.2773 3.59863L26.2168 3.4873L26.1396 3.38379C26.0529 3.28649 25.9396 3.2089 25.8047 3.16895L25.7783 3.16113L25.75 3.15723L25.6709 3.14453L25.6416 3.14062H6.3877ZM13.7646 18.7715C13.7528 18.7745 13.7404 18.7749 13.7285 18.7773C13.7444 18.774 13.7606 18.7718 13.7764 18.7676L13.7646 18.7715ZM13.2754 18.7461C13.2937 18.7527 13.3125 18.7574 13.3311 18.7627C13.3165 18.7585 13.3015 18.7559 13.2871 18.751L13.2754 18.7461ZM18.5068 6.27637C18.5757 6.28802 18.6474 6.31787 18.7168 6.36816L18.7217 6.37109C18.8493 6.46514 18.9624 6.6261 19.0205 6.83984C19.0786 7.05384 19.0719 7.28789 19.0039 7.49512L18.9502 7.62598L14.0859 17.9873L14.085 17.9893C13.9918 18.1913 13.8523 18.3159 13.7168 18.3672C13.587 18.4162 13.4471 18.4051 13.3154 18.3242C13.1784 18.24 13.0517 18.079 12.9844 17.8545C12.9178 17.6323 12.9215 17.3846 12.9941 17.167L13.041 17.0488L17.9141 6.6709C17.9622 6.56861 18.0233 6.48463 18.0908 6.4209C18.1582 6.35727 18.2301 6.31575 18.2998 6.29297C18.3688 6.27047 18.4385 6.26486 18.5068 6.27637ZM12.7393 18.2852V18.2842V18.2852ZM19.2539 15.8506C19.5475 15.837 19.8674 15.9162 20.2666 16.1025L20.4434 16.1895L21.0312 16.5029L21.041 16.5088L21.0518 16.5137C21.0993 16.5356 21.1567 16.5614 21.2109 16.5801C21.2662 16.5991 21.355 16.6232 21.4609 16.6123C21.576 16.6005 21.6632 16.5525 21.7227 16.5088C21.7734 16.4714 21.819 16.4262 21.8477 16.3975L21.9502 16.3145C21.9851 16.2918 22.0207 16.2734 22.0557 16.2607C22.1248 16.2357 22.1946 16.2292 22.2627 16.2383C22.3314 16.2475 22.403 16.274 22.4727 16.3213C22.5427 16.3689 22.6103 16.4373 22.668 16.5264C22.7256 16.6154 22.771 16.7218 22.7988 16.8398C22.8266 16.958 22.836 17.0831 22.8252 17.207C22.8143 17.3307 22.7843 17.4483 22.7383 17.5527C22.7152 17.605 22.6883 17.6532 22.6592 17.6963L22.5645 17.8115C22.2389 18.1366 21.934 18.2907 21.6455 18.3389C21.3571 18.387 21.0416 18.336 20.6816 18.1729L20.499 18.083L20.2012 17.9199C19.9319 17.7688 19.6801 17.6364 19.4365 17.6133C19.1331 17.5846 18.9154 17.723 18.7383 17.8633C18.6693 17.9177 18.5975 17.9508 18.5283 17.9658C18.4596 17.9808 18.3893 17.979 18.3203 17.96C18.2508 17.9407 18.1786 17.9033 18.1104 17.8438C18.0418 17.784 17.9786 17.7029 17.9277 17.6035C17.877 17.5042 17.8405 17.3899 17.8232 17.2676C17.806 17.1452 17.8084 17.0193 17.8301 16.8984C17.8518 16.7775 17.8924 16.6665 17.9463 16.5713C18.0002 16.476 18.0654 16.4004 18.1348 16.3457L18.2949 16.2256C18.6613 15.9679 18.9668 15.864 19.2539 15.8506ZM18.7451 18.3145C18.7018 18.3315 18.6582 18.3467 18.6133 18.3564C18.6582 18.3467 18.7018 18.3314 18.7451 18.3145ZM22.708 18.2256C22.6963 18.2359 22.6836 18.2449 22.6719 18.2549C22.6865 18.2424 22.7022 18.2308 22.7168 18.2178L22.708 18.2256ZM22.9229 18.0117L22.8477 18.0947C22.8842 18.0583 22.9173 18.0178 22.9492 17.9756C22.9402 17.9875 22.9323 18.0002 22.9229 18.0117ZM17.6299 17.8887C17.6573 17.932 17.688 17.9722 17.7197 18.0107C17.7119 18.0011 17.7029 17.9923 17.6953 17.9824L17.6299 17.8887ZM23.1475 17.6025L23.1035 17.7148C23.125 17.6661 23.142 17.6151 23.1582 17.5635C23.1542 17.5764 23.1518 17.5898 23.1475 17.6025ZM17.4502 17.4453C17.4623 17.4994 17.4784 17.552 17.4961 17.6035C17.4915 17.5901 17.4857 17.5771 17.4814 17.5635L17.4502 17.4453ZM17.5449 16.4795C17.5229 16.5279 17.5041 16.5783 17.4873 16.6299C17.4915 16.6169 17.4945 16.6036 17.499 16.5908L17.5449 16.4795ZM21.8242 15.9258C21.7849 15.9454 21.747 15.9687 21.71 15.9941C21.7175 15.989 21.7248 15.9835 21.7324 15.9785L21.8242 15.9258ZM13.2979 9.29102C13.2907 9.29852 13.2818 9.30427 13.2744 9.31152C13.2849 9.30122 13.2965 9.29207 13.3066 9.28125L13.2979 9.29102ZM12.6387 7.44824C12.767 7.44829 12.9106 7.50816 13.0342 7.65137C13.1597 7.7969 13.2474 8.01092 13.2607 8.25391C13.2741 8.49664 13.2107 8.72782 13.0977 8.90039C12.9866 9.06977 12.8455 9.15691 12.7158 9.18066L12.6289 9.18848H9.79004C9.66169 9.18843 9.51816 9.12871 9.39453 8.98535C9.26903 8.83982 9.18232 8.6258 9.16895 8.38281C9.15563 8.14012 9.21799 7.90887 9.33105 7.73633C9.44067 7.56908 9.57971 7.4811 9.70801 7.45605L9.80273 7.44824H12.6387ZM13.6143 8.70312C13.6047 8.74053 13.5934 8.77729 13.5811 8.81348C13.5935 8.777 13.6046 8.73987 13.6143 8.70215V8.70312ZM8.78027 8.52441C8.78829 8.58496 8.80154 8.64406 8.81641 8.70215C8.81118 8.68171 8.80517 8.66141 8.80078 8.64062L8.78027 8.52441ZM19.4062 6.73438C19.4358 6.84329 19.4529 6.95629 19.458 7.06934C19.4528 6.95609 19.4359 6.84337 19.4062 6.73438ZM17.7393 6.20996C17.7063 6.24795 17.676 6.28901 17.6475 6.33203C17.6548 6.32102 17.6613 6.30952 17.6689 6.29883L17.7393 6.20996ZM18.7422 5.92969C18.7831 5.94563 18.8233 5.96414 18.8623 5.98633C18.8233 5.96414 18.783 5.94573 18.7422 5.92969ZM6.2373 3.58398C6.2447 3.57944 6.25214 3.57515 6.25977 3.57129C6.25212 3.57511 6.24472 3.57948 6.2373 3.58398ZM5.33984 1.30078C5.27376 1.34089 5.20937 1.38506 5.14648 1.43262C4.95761 1.57533 4.7841 1.75089 4.63184 1.95605C4.68248 1.88782 4.73492 1.82235 4.79004 1.76074C4.95585 1.57549 5.14128 1.42117 5.33984 1.30078ZM7.28516 30.1357L7.25879 30.0205C7.27122 30.0861 7.28817 30.15 7.30859 30.2119C7.30029 30.1868 7.29216 30.1615 7.28516 30.1357ZM7.30859 30.2119C7.30953 30.2148 7.30959 30.2179 7.31055 30.2207C7.30959 30.2179 7.30953 30.2148 7.30859 30.2119ZM23.0322 30.1357L23.0059 30.0205C23.0183 30.0861 23.0352 30.15 23.0557 30.2119C23.0474 30.1868 23.0392 30.1615 23.0322 30.1357ZM23.0557 30.2119C23.0566 30.2148 23.0567 30.2179 23.0576 30.2207C23.0567 30.2179 23.0566 30.2148 23.0557 30.2119ZM17.4121 17.0752L17.4199 16.9512C17.4141 17.0102 17.4122 17.0696 17.4131 17.1289C17.4128 17.111 17.4118 17.0931 17.4121 17.0752Z" fill="white" style="fill:white;fill-opacity:1;"/>
</svg>
