<svg width="32" height="32" viewBox="0 0 32 32" fill="none" xmlns="http://www.w3.org/2000/svg">
<path d="M25.9316 4.12012L26.125 4.125C28.1091 4.22688 29.6973 5.8847 29.6973 7.9082V23.3672C29.6973 25.456 28.0049 27.1551 25.9316 27.1553H25.2568V28.1172C25.2568 28.5037 24.9415 28.8172 24.5566 28.8174C24.1692 28.8174 23.8564 28.5046 23.8564 28.1172V27.1553H8.21289V28.1172C8.21289 28.5045 7.90012 28.8173 7.5127 28.8174C7.12526 28.8174 6.8125 28.5046 6.8125 28.1172V27.1553H6.06543C3.99211 27.1552 2.2998 25.4561 2.2998 23.3672V7.9082C2.2998 5.81929 3.99211 4.12022 6.06543 4.12012H25.9316ZM6.06543 5.51074C4.75238 5.51087 3.69434 6.59009 3.69434 7.9082V23.3672C3.69434 24.6858 4.75597 25.7635 6.06543 25.7637H21.6699L21.668 25.4629L21.584 5.80957L21.583 5.51074H6.06543ZM27.9883 21.9424C27.9804 21.9428 27.9731 21.943 27.9678 21.9434C27.9653 21.9435 27.9629 21.9442 27.9609 21.9443C27.9588 21.9445 27.9566 21.9442 27.9551 21.9443C27.9486 21.9448 27.9497 21.9453 27.9531 21.9453H23.0527L23.0547 22.2461L23.0693 25.7637H25.9316C27.2444 25.7634 28.3027 24.6854 28.3027 23.3672V21.9268L27.9883 21.9424ZM12.209 19.2451C12.5371 19.1569 12.871 19.313 13.0186 19.6045L13.0703 19.7373C13.4325 21.074 12.6391 22.4594 11.3027 22.8223L11.2988 22.8232C11.088 22.8834 10.8656 22.9111 10.6436 22.9111C10.2501 22.9111 9.85959 22.8186 9.50293 22.6348L9.50195 22.6338L9.30078 22.5195C8.91106 22.2733 8.59637 21.9246 8.3916 21.5117L8.29883 21.2998C8.16149 20.9382 8.34185 20.5347 8.70117 20.3975C9.06304 20.2595 9.46719 20.4402 9.60449 20.7998L9.64746 20.8975C9.88222 21.3697 10.4192 21.6123 10.9346 21.4727C11.2209 21.3956 11.4605 21.2102 11.6094 20.9512C11.7578 20.6925 11.7981 20.3945 11.7178 20.1045C11.6174 19.7306 11.8344 19.3483 12.208 19.2441L12.209 19.2451ZM16.418 15.5498C17.7517 15.1819 19.1395 15.9698 19.5078 17.3037L19.5596 17.5312C19.6419 17.9891 19.5953 18.4605 19.4248 18.8936L19.3291 19.1074C19.0504 19.6621 18.576 20.0898 17.9971 20.3164L17.9941 20.3174C17.9174 20.3485 17.8336 20.3642 17.7471 20.3643C17.4671 20.3643 17.2017 20.1929 17.0947 19.918C16.9552 19.5578 17.1345 19.1533 17.4922 19.0127C18.0281 18.8065 18.3143 18.2311 18.1611 17.6777C17.9982 17.0871 17.3829 16.7378 16.792 16.9004C16.4201 17.0031 16.0323 16.7833 15.9297 16.4121C15.827 16.0403 16.0468 15.6524 16.418 15.5498ZM27.9883 16.6738C27.9804 16.6742 27.9731 16.6744 27.9678 16.6748C27.9653 16.675 27.9629 16.6756 27.9609 16.6758C27.9588 16.676 27.9566 16.6757 27.9551 16.6758C27.9486 16.6763 27.9497 16.6768 27.9531 16.6768H23.0312L23.0469 20.5449H27.9531C27.9601 20.5449 27.9637 20.5457 27.9883 20.5469L28.3027 20.5625V16.6582L27.9883 16.6738ZM12.6562 13.7354C13.8906 13.7354 14.8975 14.7432 14.8975 15.9775C14.9 17.2108 13.894 18.2178 12.6562 18.2178C11.4219 18.2178 10.415 17.2109 10.415 15.9766C10.415 14.7422 11.4219 13.7354 12.6562 13.7354ZM12.6562 15.1016C12.1749 15.1016 11.7842 15.4923 11.7842 15.9736C11.7843 16.4553 12.1756 16.8447 12.6562 16.8447C13.1369 16.8447 13.5282 16.4553 13.5283 15.9736C13.5315 15.4897 13.138 15.1016 12.6562 15.1016ZM7.3291 11.6182C7.69088 11.4804 8.09516 11.662 8.23242 12.0215C8.35305 12.338 8.23034 12.687 7.95703 12.8613L7.83008 12.9248C7.29424 13.1307 7.00921 13.7052 7.1582 14.2549V14.2568C7.32017 14.8435 7.92753 15.1989 8.52051 15.0371L8.52148 15.0381C8.89559 14.9375 9.27762 15.1558 9.38184 15.5293C9.48257 15.904 9.26472 16.286 8.89062 16.3896C8.67311 16.4482 8.45261 16.4766 8.23438 16.4766C7.12855 16.4766 6.11172 15.7381 5.80762 14.6221C5.64317 14.0164 5.71161 13.3773 5.99609 12.8223C6.27806 12.2697 6.75145 11.8416 7.3291 11.6182ZM27.9883 11.4053C27.9804 11.4057 27.9731 11.4058 27.9678 11.4062C27.9653 11.4064 27.9629 11.4071 27.9609 11.4072C27.9588 11.4074 27.9566 11.4071 27.9551 11.4072C27.9486 11.4077 27.9497 11.4082 27.9531 11.4082H23.0088L23.0244 15.2764H27.9531C27.9601 15.2764 27.9637 15.2771 27.9883 15.2783L28.3027 15.2939V11.3896L27.9883 11.4053ZM14.0107 9.09375C14.6168 8.9292 15.2558 8.9969 15.8105 9.28125C16.2941 9.52796 16.6819 9.92213 16.9209 10.4043L17.0137 10.6162C17.1338 10.9325 17.0113 11.2809 16.7383 11.4551L16.6113 11.5186C16.2948 11.6391 15.9458 11.5164 15.7715 11.2432L15.708 11.1162C15.5024 10.5808 14.9282 10.2942 14.3779 10.4434H14.376C13.7889 10.6053 13.4331 11.2149 13.5947 11.8076C13.6955 12.1826 13.4765 12.5658 13.1016 12.6689L13.0996 12.6699C13.0389 12.6873 12.9784 12.6953 12.9189 12.6953C12.649 12.6953 12.3987 12.5375 12.2832 12.29L12.2422 12.1787C11.8797 10.842 12.6742 9.45666 14.0107 9.09375ZM22.9824 5.51074L22.9844 5.81152L23.002 10.0078H27.9531C27.9601 10.0078 27.9637 10.0086 27.9883 10.0098L28.3027 10.0254V7.9082C28.3027 6.58983 27.2411 5.51099 25.9316 5.51074H22.9824Z" fill="white" style="fill:white;fill-opacity:1;"/>
</svg>
