<svg width="32" height="32" viewBox="0 0 32 32" fill="none" xmlns="http://www.w3.org/2000/svg">
<path d="M8.65292 3.17773C9.30743 3.17775 9.89995 3.44062 10.3336 3.86621L10.4732 4.00391L10.6139 3.86621C11.0475 3.44074 11.6392 3.17774 12.2935 3.17773H26.609C27.9345 3.17792 29.0093 4.25255 29.0094 5.57812V26.3994C29.0091 27.7249 27.9347 28.7996 26.609 28.7998H12.2935C11.6392 28.7998 11.0475 28.5367 10.6139 28.1113L10.4732 27.9736L10.3336 28.1113C9.89961 28.5369 9.30736 28.7998 8.65292 28.7998H5.39218C4.06597 28.7998 2.991 27.7246 2.99081 26.3984V5.5791C2.99086 4.25281 4.06588 3.17778 5.39218 3.17773H8.65292ZM5.39218 4.33887C4.70834 4.33891 4.15199 4.89504 4.15194 5.5791V26.3975C4.15194 27.0815 4.70798 27.6386 5.39218 27.6387H8.65292C9.33574 27.6387 9.89065 27.0839 9.89315 26.4023L9.89218 26.3916V5.58789C9.89241 5.58415 9.89315 5.57983 9.89315 5.5752V5.57422C9.89047 4.89251 9.33567 4.33889 8.65292 4.33887H5.39218ZM12.2935 4.33887C11.6532 4.33888 11.1258 4.82617 11.0611 5.44922L11.0543 5.5752V26.4023C11.0562 27.0847 11.6111 27.6387 12.2935 27.6387H26.608C27.2238 27.6387 27.7349 27.1875 27.8307 26.5986H27.8482V5.57812C27.8481 4.89441 27.2923 4.33905 26.609 4.33887H12.2935ZM5.25351 27.4277C5.2328 27.425 5.21228 27.4219 5.19198 27.418C5.21229 27.4219 5.2328 27.425 5.25351 27.4277ZM26.8131 27.417C26.7973 27.4202 26.7813 27.4224 26.7652 27.4248C26.7813 27.4224 26.7973 27.4202 26.8131 27.417ZM26.9078 27.3936C26.8856 27.4002 26.8632 27.4059 26.8404 27.4111C26.8632 27.4059 26.8856 27.4002 26.9078 27.3936ZM5.14608 27.4072C5.12937 27.4032 5.11267 27.3994 5.09628 27.3945C5.11267 27.3994 5.12937 27.4031 5.14608 27.4072ZM12.0406 27.4062C12.0242 27.4021 12.0079 27.3975 11.9918 27.3926C12.0079 27.3975 12.0242 27.4021 12.0406 27.4062ZM8.94491 27.3955C8.93273 27.3991 8.92016 27.4012 8.9078 27.4043C8.92017 27.4012 8.93273 27.3991 8.94491 27.3955ZM27.0016 27.3594C26.9842 27.3665 26.9666 27.3727 26.9488 27.3789C26.9666 27.3727 26.9842 27.3665 27.0016 27.3594ZM5.04745 27.3779C5.03498 27.3735 5.02259 27.3691 5.01034 27.3643C5.02259 27.3691 5.03498 27.3735 5.04745 27.3779ZM9.04062 27.3613C9.02582 27.3673 9.01082 27.3726 8.99569 27.3779C9.01082 27.3726 9.02581 27.3673 9.04062 27.3613ZM11.9254 27.3701C11.9199 27.368 11.9142 27.3664 11.9088 27.3643C11.9142 27.3664 11.9199 27.368 11.9254 27.3701ZM9.11581 27.3271C9.10058 27.3348 9.08555 27.3427 9.06991 27.3496C9.08556 27.3427 9.10058 27.3348 9.11581 27.3271ZM27.0943 27.3164C27.0747 27.3269 27.0542 27.3355 27.0338 27.3447C27.0542 27.3355 27.0747 27.3269 27.0943 27.3164ZM4.96249 27.3438C4.95067 27.3384 4.93891 27.333 4.92733 27.3271C4.93891 27.333 4.95067 27.3384 4.96249 27.3438ZM11.8502 27.3379C11.8383 27.3323 11.8266 27.3264 11.815 27.3203C11.8266 27.3264 11.8383 27.3323 11.8502 27.3379ZM27.1793 27.2666C27.1595 27.2797 27.1385 27.291 27.1178 27.3027C27.1385 27.291 27.1594 27.2797 27.1793 27.2666ZM11.7711 27.2959C11.7586 27.2886 11.7461 27.2813 11.734 27.2734C11.7461 27.2813 11.7586 27.2886 11.7711 27.2959ZM4.7955 27.249C4.79038 27.2454 4.7859 27.241 4.78085 27.2373C4.78589 27.241 4.79038 27.2454 4.7955 27.249ZM9.25937 27.2402C9.25577 27.2428 9.25225 27.2455 9.24862 27.248C9.25225 27.2455 9.25577 27.2428 9.25937 27.2402ZM27.2457 27.2178C27.2354 27.2258 27.225 27.2336 27.2144 27.2412C27.225 27.2336 27.2354 27.2258 27.2457 27.2178ZM27.3199 27.1543C27.3103 27.1633 27.3005 27.172 27.2906 27.1807C27.3005 27.172 27.3103 27.1633 27.3199 27.1543ZM11.6002 27.1719C11.5938 27.1662 11.5878 27.1601 11.5816 27.1543C11.5878 27.1601 11.5938 27.1662 11.6002 27.1719ZM11.5455 27.1191C11.5348 27.108 11.5245 27.0966 11.5142 27.085C11.5245 27.0966 11.5348 27.108 11.5455 27.1191ZM11.4762 27.0391C11.4687 27.0295 11.4618 27.0196 11.4547 27.0098C11.4618 27.0196 11.4687 27.0295 11.4762 27.0391ZM27.4478 27.0098C27.4424 27.0173 27.4369 27.0249 27.4312 27.0322C27.4369 27.0248 27.4423 27.0173 27.4478 27.0098ZM4.5455 27.001C4.54319 26.9977 4.54094 26.9945 4.53866 26.9912C4.54093 26.9945 4.54319 26.9977 4.5455 27.001ZM27.5103 26.9131C27.5014 26.9287 27.4917 26.9439 27.482 26.959C27.4917 26.9439 27.5014 26.9287 27.5103 26.9131ZM27.5484 26.8389C27.542 26.8526 27.5359 26.8665 27.5289 26.8799C27.5359 26.8665 27.542 26.8526 27.5484 26.8389ZM9.60604 26.8125C9.59816 26.8306 9.58854 26.8477 9.57968 26.8652C9.58854 26.8477 9.59816 26.8306 9.60604 26.8125ZM4.46347 26.8643C4.45488 26.8472 4.44672 26.83 4.43905 26.8125C4.44671 26.83 4.45489 26.8472 4.46347 26.8643ZM9.64608 26.708C9.63678 26.7378 9.62472 26.7664 9.61288 26.7949C9.62472 26.7664 9.63679 26.7378 9.64608 26.708ZM11.3326 26.7949C11.3277 26.783 11.3234 26.7709 11.3189 26.7588C11.3234 26.7709 11.3277 26.783 11.3326 26.7949ZM4.42733 26.7852C4.41739 26.7605 4.40805 26.7355 4.39999 26.71C4.40804 26.7355 4.4174 26.7605 4.42733 26.7852ZM9.66269 26.6416C9.65761 26.6627 9.65242 26.6836 9.64608 26.7041C9.65242 26.6836 9.65761 26.6627 9.66269 26.6416ZM4.37265 26.6064C4.37921 26.6386 4.38759 26.6702 4.39706 26.7012C4.38758 26.6702 4.37922 26.6386 4.37265 26.6064ZM11.276 5.36914C11.2623 5.43579 11.2547 5.50462 11.2545 5.5752C11.2547 5.50464 11.2623 5.43577 11.276 5.36914ZM9.67245 5.37793C9.67902 5.4113 9.68479 5.44507 9.68808 5.47949C9.68479 5.44507 9.67901 5.4113 9.67245 5.37793ZM4.3746 5.3623C4.37022 5.38289 4.367 5.40379 4.36386 5.4248C4.367 5.40379 4.37022 5.38289 4.3746 5.3623ZM9.64511 5.27051C9.64954 5.28475 9.65397 5.29899 9.6578 5.31348C9.65397 5.29899 9.64954 5.28474 9.64511 5.27051ZM27.6012 5.27051C27.6055 5.28436 27.6092 5.29841 27.6129 5.3125C27.6091 5.29841 27.6055 5.28436 27.6012 5.27051ZM11.2896 5.31055C11.2923 5.30046 11.2945 5.29024 11.2975 5.28027C11.2945 5.29024 11.2923 5.30046 11.2896 5.31055ZM4.40292 5.25684C4.41104 5.23197 4.42036 5.20761 4.43026 5.18359C4.42036 5.20761 4.41104 5.23197 4.40292 5.25684ZM9.61288 5.18164C9.62273 5.20537 9.63212 5.22933 9.64022 5.25391C9.63212 5.22933 9.62273 5.20537 9.61288 5.18164ZM27.566 5.1748C27.5758 5.19809 27.5842 5.22198 27.5924 5.24609C27.5842 5.22198 27.5759 5.19809 27.566 5.1748ZM4.44491 5.15234C4.45411 5.13199 4.46278 5.11143 4.47323 5.0918C4.46278 5.11143 4.45412 5.13199 4.44491 5.15234ZM9.57187 5.09375C9.58017 5.10944 9.58779 5.12546 9.5953 5.1416C9.58779 5.12546 9.58017 5.10943 9.57187 5.09375ZM11.3531 5.13672C11.3599 5.1222 11.3671 5.10789 11.3746 5.09375C11.3671 5.10789 11.36 5.1222 11.3531 5.13672ZM4.4869 5.06836C4.49792 5.04889 4.50887 5.02941 4.52108 5.01074C4.50887 5.02941 4.49793 5.04889 4.4869 5.06836ZM9.52206 5.00977C9.53153 5.02419 9.54065 5.03881 9.5494 5.05371C9.54065 5.03881 9.53153 5.02419 9.52206 5.00977ZM11.398 5.05371C11.4071 5.03833 11.4156 5.02268 11.4254 5.00781C11.4156 5.02268 11.4071 5.03833 11.398 5.05371ZM27.4791 5.01172C27.4879 5.02518 27.4963 5.03885 27.5045 5.05273C27.4963 5.03885 27.4879 5.02518 27.4791 5.01172ZM11.443 4.98145C11.4555 4.96353 11.4684 4.94577 11.482 4.92871C11.4684 4.94577 11.4556 4.96354 11.443 4.98145ZM9.46444 4.93066C9.47592 4.94501 9.48693 4.95966 9.49765 4.97461C9.48693 4.95966 9.47591 4.94501 9.46444 4.93066ZM27.4273 4.93945C27.4354 4.94972 27.4431 4.96014 27.4508 4.9707C27.4431 4.96014 27.4354 4.94971 27.4273 4.93945ZM9.39706 4.85449C9.41186 4.8697 9.42617 4.88528 9.44003 4.90137C9.42618 4.88528 9.41186 4.8697 9.39706 4.85449ZM11.5055 4.90137C11.5193 4.88528 11.5337 4.86971 11.5484 4.85449C11.5337 4.8697 11.5193 4.88528 11.5055 4.90137ZM27.357 4.85938C27.3692 4.872 27.3817 4.88424 27.3932 4.89746C27.3817 4.88424 27.3692 4.872 27.357 4.85938ZM4.60897 4.89551C4.61822 4.88491 4.62763 4.87447 4.63729 4.86426C4.62763 4.87447 4.61823 4.88492 4.60897 4.89551ZM9.32772 4.78906C9.3435 4.80257 9.35869 4.81664 9.37362 4.83105C9.35869 4.81664 9.3435 4.80257 9.32772 4.78906ZM11.5719 4.83105C11.5869 4.81646 11.6028 4.80273 11.6187 4.78906C11.6028 4.80272 11.587 4.81647 11.5719 4.83105ZM4.67733 4.82422C4.68669 4.81534 4.69597 4.80638 4.70565 4.79785C4.69597 4.80638 4.68669 4.81535 4.67733 4.82422ZM27.2935 4.79785C27.3032 4.80638 27.3125 4.81534 27.3219 4.82422C27.3125 4.81535 27.3032 4.80637 27.2935 4.79785ZM4.74472 4.76562C4.76089 4.75271 4.77758 4.74047 4.79452 4.72852C4.77758 4.74046 4.76089 4.75271 4.74472 4.76562ZM27.2047 4.72852C27.2216 4.74046 27.2383 4.75272 27.2545 4.76562C27.2383 4.75272 27.2216 4.74045 27.2047 4.72852ZM9.25644 4.73242C9.2708 4.7427 9.28462 4.75367 9.29843 4.76465C9.28462 4.75367 9.2708 4.7427 9.25644 4.73242ZM11.6471 4.76465C11.6608 4.75366 11.6747 4.74271 11.6891 4.73242C11.6747 4.74271 11.6608 4.75366 11.6471 4.76465ZM4.81991 4.71094C4.83842 4.69868 4.85724 4.68686 4.87655 4.67578C4.85724 4.68686 4.83842 4.69869 4.81991 4.71094ZM27.1334 4.68262C27.1485 4.69153 27.1637 4.70032 27.1783 4.70996C27.1637 4.70032 27.1485 4.69152 27.1334 4.68262ZM9.17636 4.68164C9.18784 4.68837 9.19934 4.69499 9.21054 4.70215C9.19934 4.695 9.18784 4.68837 9.17636 4.68164ZM11.7359 4.70215C11.7469 4.69514 11.7579 4.68824 11.7691 4.68164C11.7579 4.68824 11.7469 4.69514 11.7359 4.70215ZM4.9039 4.66016C4.92108 4.65098 4.9389 4.64299 4.95663 4.63477C4.9389 4.64299 4.92108 4.65098 4.9039 4.66016ZM9.07968 4.63184C9.09977 4.64093 9.11985 4.64984 9.13925 4.66016C9.11986 4.64984 9.09977 4.64093 9.07968 4.63184ZM11.8062 4.66016C11.8256 4.64982 11.8457 4.64095 11.8658 4.63184C11.8457 4.64095 11.8256 4.64983 11.8062 4.66016ZM27.0562 4.64062C27.0677 4.64611 27.0792 4.65134 27.0904 4.65723C27.0792 4.65134 27.0677 4.64611 27.0562 4.64062ZM9.01034 4.60254C9.02274 4.60709 9.03528 4.6112 9.04745 4.61621C9.03528 4.6112 9.02274 4.60709 9.01034 4.60254ZM11.898 4.61621C11.9102 4.61119 11.9228 4.60711 11.9351 4.60254C11.9228 4.6071 11.9102 4.61119 11.898 4.61621ZM26.9723 4.60547C26.9804 4.60851 26.9887 4.61102 26.9967 4.61426C26.9887 4.61102 26.9804 4.60851 26.9723 4.60547ZM26.8678 4.57227C26.8822 4.57598 26.8966 4.57967 26.9107 4.58398C26.8966 4.57967 26.8822 4.57598 26.8678 4.57227ZM4.37069 26.5947L4.35702 26.5039C4.36055 26.5386 4.36578 26.5728 4.37265 26.6064C4.37185 26.6026 4.37144 26.5986 4.37069 26.5947ZM5.08554 4.58496C5.10921 4.57763 5.13344 4.57205 5.1578 4.56641C5.13345 4.57205 5.10921 4.57764 5.08554 4.58496ZM5.08554 4.58496C5.07371 4.58862 5.06202 4.59261 5.05038 4.59668C5.06202 4.59261 5.07371 4.58862 5.08554 4.58496Z" fill="white" style="fill:white;fill-opacity:1;"/>
<path d="M19.8424 20.2734H21.9664L19.0035 24.6416V21.29H16.8199L19.8424 16.6582V20.2734ZM8.19198 21.8682H8.19296H8.19198ZM5.67733 21.8486C5.63209 21.8384 5.58835 21.8244 5.54647 21.8066C5.58833 21.8244 5.63211 21.8384 5.67733 21.8486ZM8.19198 20.5078C8.51257 20.5078 8.77294 20.7673 8.77304 21.0879C8.77326 21.4084 8.51301 21.6689 8.19198 21.6689H5.85019C5.52987 21.6686 5.27011 21.4083 5.27011 21.0879C5.27021 20.7676 5.52993 20.5082 5.85019 20.5078H8.19198ZM5.12265 20.8057C5.13159 20.7826 5.14386 20.7612 5.15487 20.7393C5.14386 20.7612 5.13159 20.7826 5.12265 20.8057ZM8.19296 20.3076C8.21966 20.3076 8.24605 20.3089 8.27206 20.3115L8.19198 20.3076H8.19296ZM8.39218 15.9297C8.32847 15.9465 8.26195 15.957 8.19296 15.957H8.19198L8.27206 15.9531C8.31312 15.949 8.35325 15.94 8.39218 15.9297ZM8.19198 14.5957C8.51263 14.5957 8.77304 14.8561 8.77304 15.1768C8.77307 15.4971 8.51289 15.7568 8.19198 15.7568H5.85019C5.53003 15.7564 5.27037 15.4969 5.27011 15.1768C5.27011 14.8564 5.52987 14.5961 5.85019 14.5957H8.19198ZM8.19296 14.3955C8.30069 14.3955 8.40332 14.4176 8.49667 14.457C8.42644 14.4273 8.35097 14.4074 8.27206 14.3994C8.24603 14.3968 8.2187 14.3955 8.19198 14.3955H8.19296ZM24.2193 7.24609C24.8881 7.24626 25.4303 7.78829 25.4303 8.45703V12.791C25.4301 13.4598 24.8881 14.0019 24.2193 14.002H14.6812C14.0126 14.0017 13.4704 13.4597 13.4703 12.791V8.45703C13.4703 7.78828 14.0125 7.24634 14.6812 7.24609H24.2193ZM25.6305 12.791C25.6304 12.9112 25.6129 13.0272 25.5846 13.1387C25.6014 13.0725 25.6156 13.0051 25.6226 12.9355L25.6305 12.791ZM14.6314 8.40723V12.8408H24.2691V8.40723H14.6314ZM14.8316 8.60742V12.6406H14.8307V8.60742H14.8316ZM8.19198 10.0449H8.19296H8.19198ZM8.19198 8.68359C8.51263 8.68359 8.77304 8.944 8.77304 9.26465C8.77324 9.5851 8.513 9.84473 8.19198 9.84473H5.85019C5.52993 9.84433 5.2702 9.58498 5.27011 9.26465C5.27011 8.94424 5.52987 8.68399 5.85019 8.68359H8.19198ZM5.12265 8.98242C5.13158 8.95936 5.14387 8.93796 5.15487 8.91602C5.14386 8.93795 5.13159 8.95937 5.12265 8.98242ZM5.77108 8.48828C5.68233 8.4973 5.59852 8.52238 5.52108 8.55859C5.59854 8.52234 5.68229 8.4973 5.77108 8.48828ZM8.19296 8.48438C8.31086 8.48439 8.42186 8.51179 8.52206 8.55859C8.4447 8.5225 8.36068 8.49726 8.27206 8.48828L8.19198 8.48438H8.19296ZM5.06991 21.0879C5.06992 21.0405 5.07549 20.9943 5.08358 20.9492C5.07549 20.9943 5.06992 21.0405 5.06991 21.0879ZM5.08749 20.9258C5.09622 20.8845 5.10767 20.8443 5.12265 20.8057C5.10767 20.8443 5.09622 20.8845 5.08749 20.9258ZM25.568 13.2031C25.5584 13.2343 25.5473 13.2647 25.5357 13.2949C25.5473 13.2647 25.5584 13.2343 25.568 13.2031ZM8.96933 9.18457L8.97323 9.26465C8.97323 9.21688 8.96779 9.1704 8.95956 9.125C8.96312 9.14469 8.96727 9.16439 8.96933 9.18457ZM5.06991 9.26465C5.06991 9.21732 5.07552 9.17098 5.08358 9.12598C5.07549 9.17103 5.06991 9.21726 5.06991 9.26465ZM5.08749 9.10254C5.0962 9.06125 5.10769 9.02102 5.12265 8.98242C5.10768 9.02101 5.09622 9.06125 5.08749 9.10254Z" fill="white" style="fill:white;fill-opacity:1;"/>
</svg>
