<svg width="32" height="32" viewBox="0 0 32 32" fill="none" xmlns="http://www.w3.org/2000/svg">
<mask id="path-1-inside-1_884_8287" fill="white">
<path d="M14.3047 6.34766C14.7099 6.34766 15.0655 6.56022 15.2695 6.87598L15.2861 6.90137L16.792 9.22852H23.1934V9.23438H24.7168C25.7086 9.23444 26.5218 9.99151 26.6113 10.9609V13.2861C26.6113 13.9203 26.1 14.4315 25.4658 14.4316C24.8315 14.4316 24.3203 13.9176 24.3203 13.2861V12.1572C24.2798 11.8132 24.0056 11.5441 23.6582 11.5146H16.1631C15.9565 11.5148 15.7537 11.4592 15.5762 11.3535C15.3986 11.2478 15.2526 11.0959 15.1543 10.9141L13.6816 8.63965H6.33398C5.95758 8.67123 5.66325 8.9836 5.66309 9.36816V8.63965H5.6543V24.9834C5.65444 25.3745 5.9592 25.6925 6.34473 25.7148H26.5557V25.7129H25.8652C26.2508 25.6905 26.5556 25.3716 26.5557 24.9805V17.9082L26.542 17.7646C26.484 17.4707 26.2505 17.2434 25.9551 17.1895H8.19629C7.56216 17.1892 7.05078 16.6753 7.05078 16.0439C7.05089 15.4099 7.56502 14.8986 8.19629 14.8984H27.0244C27.9801 14.9348 28.7574 15.6784 28.8496 16.6201V26.3555C28.7293 27.2579 27.9775 27.9591 27.0527 28.001H5.06152C4.15343 27.9032 3.43824 27.1684 3.37109 26.252V8.26758H3.37402V8.25391C3.37402 7.20333 4.22582 6.35072 5.27637 6.35059H6.7998V6.34766H14.3047ZM12.6182 22.0518C13.2522 22.052 13.7635 22.566 13.7637 23.1973C13.7637 23.8315 13.2495 24.3426 12.6182 24.3428H8.2002C7.56589 24.3428 7.05469 23.8288 7.05469 23.1973C7.05484 22.5631 7.56584 22.0518 8.19727 22.0518H12.6182Z"/>
</mask>
<path d="M14.3047 6.34766C14.7099 6.34766 15.0655 6.56022 15.2695 6.87598L15.2861 6.90137L16.792 9.22852H23.1934V9.23438H24.7168C25.7086 9.23444 26.5218 9.99151 26.6113 10.9609V13.2861C26.6113 13.9203 26.1 14.4315 25.4658 14.4316C24.8315 14.4316 24.3203 13.9176 24.3203 13.2861V12.1572C24.2798 11.8132 24.0056 11.5441 23.6582 11.5146H16.1631C15.9565 11.5148 15.7537 11.4592 15.5762 11.3535C15.3986 11.2478 15.2526 11.0959 15.1543 10.9141L13.6816 8.63965H6.33398C5.95758 8.67123 5.66325 8.9836 5.66309 9.36816V8.63965H5.6543V24.9834C5.65444 25.3745 5.9592 25.6925 6.34473 25.7148H26.5557V25.7129H25.8652C26.2508 25.6905 26.5556 25.3716 26.5557 24.9805V17.9082L26.542 17.7646C26.484 17.4707 26.2505 17.2434 25.9551 17.1895H8.19629C7.56216 17.1892 7.05078 16.6753 7.05078 16.0439C7.05089 15.4099 7.56502 14.8986 8.19629 14.8984H27.0244C27.9801 14.9348 28.7574 15.6784 28.8496 16.6201V26.3555C28.7293 27.2579 27.9775 27.9591 27.0527 28.001H5.06152C4.15343 27.9032 3.43824 27.1684 3.37109 26.252V8.26758H3.37402V8.25391C3.37402 7.20333 4.22582 6.35072 5.27637 6.35059H6.7998V6.34766H14.3047ZM12.6182 22.0518C13.2522 22.052 13.7635 22.566 13.7637 23.1973C13.7637 23.8315 13.2495 24.3426 12.6182 24.3428H8.2002C7.56589 24.3428 7.05469 23.8288 7.05469 23.1973C7.05484 22.5631 7.56584 22.0518 8.19727 22.0518H12.6182Z" fill="white" style="fill:white;fill-opacity:1;"/>
<path d="M15.2695 6.87598L15.1015 6.98451L15.1021 6.98543L15.2695 6.87598ZM15.2861 6.90137L15.454 6.79271L15.4535 6.79192L15.2861 6.90137ZM16.792 9.22852L16.6241 9.33717L16.6832 9.42852H16.792V9.22852ZM23.1934 9.22852H23.3934V9.02852H23.1934V9.22852ZM23.1934 9.23438H22.9934V9.43438H23.1934V9.23438ZM24.7168 9.23438L24.7168 9.03437H24.7168V9.23438ZM26.6113 10.9609H26.8113V10.9517L26.8105 10.9425L26.6113 10.9609ZM25.4658 14.4316L25.4658 14.6316L25.4659 14.6316L25.4658 14.4316ZM24.3203 12.1572H24.5203V12.1455L24.5189 12.1339L24.3203 12.1572ZM23.6582 11.5146L23.6751 11.3154L23.6667 11.3146H23.6582V11.5146ZM16.1631 11.5146L16.1631 11.3146L16.1629 11.3146L16.1631 11.5146ZM15.5762 11.3535L15.4738 11.5253L15.4739 11.5254L15.5762 11.3535ZM15.1543 10.9141L15.3302 10.819L15.3265 10.812L15.3222 10.8054L15.1543 10.9141ZM13.6816 8.63965L13.8495 8.53095L13.7904 8.43965H13.6816V8.63965ZM6.33398 8.63965V8.43965H6.32561L6.31726 8.44035L6.33398 8.63965ZM5.66309 9.36816H5.46309L5.86309 9.36825L5.66309 9.36816ZM5.66309 8.63965H5.86309V8.43965H5.66309V8.63965ZM5.6543 8.63965V8.43965H5.4543V8.63965H5.6543ZM5.6543 24.9834L5.4543 24.9834L5.4543 24.9835L5.6543 24.9834ZM6.34473 25.7148L6.33313 25.9148H6.34473V25.7148ZM26.5557 25.7148V25.9148H26.7557V25.7148H26.5557ZM26.5557 25.7129H26.7557V25.5129H26.5557V25.7129ZM25.8652 25.7129L25.8537 25.5132L25.8652 25.9129V25.7129ZM26.5557 24.9805L26.7557 24.9805V24.9805H26.5557ZM26.5557 17.9082H26.7557V17.8987L26.7548 17.8892L26.5557 17.9082ZM26.542 17.7646L26.7411 17.7457L26.7401 17.7358L26.7382 17.726L26.542 17.7646ZM25.9551 17.1895L25.991 16.9927L25.9732 16.9895H25.9551V17.1895ZM8.19629 17.1895L8.19622 17.3895H8.19629V17.1895ZM7.05078 16.0439L6.85078 16.0439V16.0439H7.05078ZM8.19629 14.8984L8.19629 14.6984L8.19622 14.6984L8.19629 14.8984ZM27.0244 14.8984L27.032 14.6984H27.0244V14.8984ZM28.8496 16.6201H29.0496V16.6103L29.0487 16.6006L28.8496 16.6201ZM28.8496 26.3555L29.0479 26.3819L29.0496 26.3687V26.3555H28.8496ZM27.0527 28.001V28.2012L27.0618 28.2008L27.0527 28.001ZM5.06152 28.001L5.04011 28.1998L5.05079 28.201H5.06152V28.001ZM3.37109 26.252H3.17109V26.2593L3.17163 26.2666L3.37109 26.252ZM3.37109 8.26758V8.06758H3.17109V8.26758H3.37109ZM3.37402 8.26758V8.46758H3.57402V8.26758H3.37402ZM5.27637 6.35059L5.27637 6.15059L5.27634 6.15059L5.27637 6.35059ZM6.7998 6.35059V6.55059H6.9998V6.35059H6.7998ZM6.7998 6.34766V6.14766H6.5998V6.34766H6.7998ZM12.6182 22.0518L12.6182 21.8518H12.6182V22.0518ZM13.7637 23.1973L13.9637 23.1973L13.9637 23.1972L13.7637 23.1973ZM12.6182 24.3428L12.6182 24.5428L12.6182 24.5428L12.6182 24.3428ZM7.05469 23.1973L6.85469 23.1972V23.1973H7.05469ZM14.3047 6.34766V6.54766C14.6382 6.54766 14.9323 6.7225 15.1015 6.9845L15.2695 6.87598L15.4375 6.76745C15.1988 6.39793 14.7816 6.14766 14.3047 6.14766V6.34766ZM15.2695 6.87598L15.1021 6.98543L15.1187 7.01082L15.2861 6.90137L15.4535 6.79192L15.4369 6.76653L15.2695 6.87598ZM15.2861 6.90137L15.1182 7.01002L16.6241 9.33717L16.792 9.22852L16.9599 9.11986L15.454 6.79271L15.2861 6.90137ZM16.792 9.22852V9.42852H23.1934V9.22852V9.02852H16.792V9.22852ZM23.1934 9.22852H22.9934V9.23438H23.1934H23.3934V9.22852H23.1934ZM23.1934 9.23438V9.43438H24.7168V9.23438V9.03437H23.1934V9.23438ZM24.7168 9.23438L24.7168 9.43438C25.6042 9.43443 26.332 10.1118 26.4122 10.9793L26.6113 10.9609L26.8105 10.9425C26.7115 9.87127 25.813 9.03445 24.7168 9.03437L24.7168 9.23438ZM26.6113 10.9609H26.4113V13.2861H26.6113H26.8113V10.9609H26.6113ZM26.6113 13.2861H26.4113C26.4113 13.8098 25.9896 14.2315 25.4658 14.2316L25.4658 14.4316L25.4659 14.6316C26.2104 14.6315 26.8113 14.0309 26.8113 13.2861H26.6113ZM25.4658 14.4316V14.2316C24.9423 14.2316 24.5203 13.8075 24.5203 13.2861H24.3203H24.1203C24.1203 14.0278 24.7207 14.6316 25.4658 14.6316V14.4316ZM24.3203 13.2861H24.5203V12.1572H24.3203H24.1203V13.2861H24.3203ZM24.3203 12.1572L24.5189 12.1339C24.4675 11.6965 24.1182 11.3529 23.6751 11.3154L23.6582 11.5146L23.6413 11.7139C23.893 11.7353 24.0922 11.93 24.1217 12.1806L24.3203 12.1572ZM23.6582 11.5146V11.3146H16.1631V11.5146V11.7146H23.6582V11.5146ZM16.1631 11.5146L16.1629 11.3146C15.9924 11.3148 15.825 11.2689 15.6785 11.1817L15.5762 11.3535L15.4739 11.5254C15.6824 11.6495 15.9207 11.7149 16.1633 11.7146L16.1631 11.5146ZM15.5762 11.3535L15.6785 11.1817C15.5318 11.0943 15.4113 10.9689 15.3302 10.819L15.1543 10.9141L14.9783 11.0092C15.0939 11.2229 15.2654 11.4012 15.4738 11.5253L15.5762 11.3535ZM15.1543 10.9141L15.3222 10.8054L13.8495 8.53095L13.6816 8.63965L13.5138 8.74835L14.9864 11.0228L15.1543 10.9141ZM13.6816 8.63965V8.43965H6.33398V8.63965V8.83965H13.6816V8.63965ZM6.33398 8.63965L6.31726 8.44035C5.83871 8.4805 5.4633 8.87815 5.46309 9.36808L5.66309 9.36816L5.86309 9.36825C5.86321 9.08905 6.07645 8.86196 6.35071 8.83895L6.33398 8.63965ZM5.66309 9.36816H5.86309V8.63965H5.66309H5.46309V9.36816H5.66309ZM5.66309 8.63965V8.43965H5.6543V8.63965V8.83965H5.66309V8.63965ZM5.6543 8.63965H5.4543V24.9834H5.6543H5.8543V8.63965H5.6543ZM5.6543 24.9834L5.4543 24.9835C5.45448 25.4813 5.84269 25.8861 6.33315 25.9145L6.34473 25.7148L6.3563 25.5152C6.07572 25.4989 5.8544 25.2677 5.8543 24.9833L5.6543 24.9834ZM6.34473 25.7148V25.9148H26.5557V25.7148V25.5148H6.34473V25.7148ZM26.5557 25.7148H26.7557V25.7129H26.5557H26.3557V25.7148H26.5557ZM26.5557 25.7129V25.5129H25.8652V25.7129V25.9129H26.5557V25.7129ZM25.8652 25.7129L25.8768 25.9126C26.3676 25.8841 26.7556 25.4781 26.7557 24.9805L26.5557 24.9805L26.3557 24.9804C26.3556 25.2651 26.134 25.497 25.8537 25.5132L25.8652 25.7129ZM26.5557 24.9805H26.7557V17.9082H26.5557H26.3557V24.9805H26.5557ZM26.5557 17.9082L26.7548 17.8892L26.7411 17.7457L26.542 17.7646L26.3429 17.7836L26.3566 17.9272L26.5557 17.9082ZM26.542 17.7646L26.7382 17.726C26.6641 17.3502 26.366 17.0612 25.991 16.9927L25.9551 17.1895L25.9191 17.3862C26.135 17.4256 26.304 17.5913 26.3458 17.8033L26.542 17.7646ZM25.9551 17.1895V16.9895H8.19629V17.1895V17.3895H25.9551V17.1895ZM8.19629 17.1895L8.19636 16.9895C7.67288 16.9893 7.25078 16.5651 7.25078 16.0439H7.05078H6.85078C6.85078 16.7855 7.45144 17.3892 8.19622 17.3895L8.19629 17.1895ZM7.05078 16.0439L7.25078 16.044C7.25087 15.5207 7.67514 15.0986 8.19636 15.0984L8.19629 14.8984L8.19622 14.6984C7.4549 14.6987 6.85091 15.299 6.85078 16.0439L7.05078 16.0439ZM8.19629 14.8984V15.0984H27.0244V14.8984V14.6984H8.19629V14.8984ZM27.0244 14.8984L27.0168 15.0983C27.8716 15.1308 28.568 15.7965 28.6506 16.6396L28.8496 16.6201L29.0487 16.6006C28.9468 15.5604 28.0886 14.7387 27.032 14.6986L27.0244 14.8984ZM28.8496 16.6201H28.6496V26.3555H28.8496H29.0496V16.6201H28.8496ZM28.8496 26.3555L28.6514 26.329C28.5438 27.1363 27.871 27.7637 27.0437 27.8012L27.0527 28.001L27.0618 28.2008C28.0841 28.1544 28.9149 27.3795 29.0479 26.3819L28.8496 26.3555ZM27.0527 28.001V27.801H5.06152V28.001V28.201H27.0527V28.001ZM5.06152 28.001L5.08294 27.8021C4.27053 27.7146 3.63062 27.0571 3.57056 26.2373L3.37109 26.252L3.17163 26.2666C3.24586 27.2797 4.03633 28.0917 5.04011 28.1998L5.06152 28.001ZM3.37109 26.252H3.57109V8.26758H3.37109H3.17109V26.252H3.37109ZM3.37109 8.26758V8.46758H3.37402V8.26758V8.06758H3.37109V8.26758ZM3.37402 8.26758H3.57402V8.25391H3.37402H3.17402V8.26758H3.37402ZM3.37402 8.25391H3.57402C3.57402 7.31368 4.33639 6.55071 5.27639 6.55059L5.27637 6.35059L5.27634 6.15059C4.11525 6.15074 3.17402 7.09298 3.17402 8.25391H3.37402ZM5.27637 6.35059V6.55059H6.7998V6.35059V6.15059H5.27637V6.35059ZM6.7998 6.35059H6.9998V6.34766H6.7998H6.5998V6.35059H6.7998ZM6.7998 6.34766V6.54766H14.3047V6.34766V6.14766H6.7998V6.34766ZM12.6182 22.0518L12.6181 22.2518C13.1414 22.2519 13.5635 22.6762 13.5637 23.1973L13.7637 23.1973L13.9637 23.1972C13.9635 22.4558 13.363 21.852 12.6182 21.8518L12.6182 22.0518ZM13.7637 23.1973H13.5637C13.5637 23.7206 13.1394 24.1426 12.6181 24.1428L12.6182 24.3428L12.6182 24.5428C13.3596 24.5425 13.9637 23.9423 13.9637 23.1973H13.7637ZM12.6182 24.3428V24.1428H8.2002V24.3428V24.5428H12.6182V24.3428ZM8.2002 24.3428V24.1428C7.67666 24.1428 7.25469 23.7186 7.25469 23.1973H7.05469H6.85469C6.85469 23.9389 7.45511 24.5428 8.2002 24.5428V24.3428ZM7.05469 23.1973L7.25469 23.1973C7.25481 22.6732 7.6767 22.2518 8.19727 22.2518V22.0518V21.8518C7.45499 21.8518 6.85487 22.453 6.85469 23.1972L7.05469 23.1973ZM8.19727 22.0518V22.2518H12.6182V22.0518V21.8518H8.19727V22.0518Z" fill="#8655FF" style="fill:#8655FF;fill:color(display-p3 0.5255 0.3333 1.0000);fill-opacity:1;" mask="url(#path-1-inside-1_884_8287)"/>
</svg>
