<svg width="24" height="24" viewBox="0 0 24 24" fill="none" xmlns="http://www.w3.org/2000/svg">
<path d="M22.3289 17.3451H19.8019L18.4258 19.1379L15.9789 17.3451C15.9789 17.3451 8.3318 17.3525 8.33092 17.3499C7.40173 17.3403 6.67907 16.5204 6.67907 15.6741V4.21755C6.67907 3.29542 7.42019 2.54688 8.3335 2.54688H22.329C23.242 2.54688 23.9828 3.29544 23.9828 4.21757V15.6741C23.9828 16.5966 23.242 17.3451 22.3289 17.3451ZM14.7826 14.94H16.1033V13.6018H14.7826V14.94ZM17.6622 5.97372C17.1124 5.46478 16.3765 5.20927 15.4529 5.20927C14.5808 5.20927 13.8806 5.44748 13.3498 5.92175C12.8195 6.39529 12.5006 7.07874 12.3938 7.97104L13.5848 8.11471C13.6879 7.44897 13.9047 6.95957 14.2352 6.64609C14.5659 6.33289 14.9785 6.17586 15.472 6.17586C15.983 6.17586 16.4142 6.34879 16.7662 6.69468C17.1181 7.04056 17.2947 7.4414 17.2947 7.89851C17.2947 8.15065 17.2345 8.38284 17.114 8.59681C16.9944 8.80971 16.7341 9.09649 16.3317 9.45476C15.9296 9.81328 15.6523 10.0856 15.4973 10.2733C15.2871 10.5301 15.1339 10.784 15.0401 11.0372C14.9111 11.372 14.8469 11.7698 14.8469 12.2317C14.8469 12.3103 14.8494 12.4274 14.8536 12.5844V12.585H15.9681C15.9772 12.1146 16.0083 11.7754 16.0644 11.5668C16.1206 11.3578 16.2065 11.1726 16.3224 11.0119C16.4383 10.8507 16.6851 10.6012 17.0629 10.2618C17.6261 9.75714 18.0026 9.3287 18.1967 8.97618C18.3901 8.62362 18.4867 8.23842 18.4867 7.82076C18.4867 7.098 18.2123 6.48241 17.6622 5.97372ZM12.6877 18.4656V18.9109C12.6877 19.5886 12.1442 20.1365 11.4749 20.1365H5.86903L4.07398 21.4515L3.06511 20.1365H1.21242C0.542271 20.1365 0 19.5885 0 18.9109V10.5109C0 9.83357 0.542289 9.2856 1.21242 9.2856L5.54516 9.17645L5.53852 16.3781C5.53852 16.3781 5.48215 17.4167 5.88039 17.8518C6.42408 18.4459 7.38246 18.4584 7.38246 18.4584L12.6877 18.4656Z" fill="white" style="fill:white;fill-opacity:1;"/>
</svg>
