<svg width="24" height="24" viewBox="0 0 24 24" fill="none" xmlns="http://www.w3.org/2000/svg">
<path d="M19.801 9.22344H19.74C19.2924 9.22344 18.9244 9.35234 18.5682 9.57266C18.2588 8.66797 17.4689 8.01641 16.4517 8.01641C16.0041 8.01641 15.5752 8.14531 15.2213 8.36563C14.9119 7.46094 14.1221 6.80938 13.1049 6.80938C12.7088 6.80938 12.3408 6.90781 12.015 7.08359V4.75625C12.015 3.48828 11.0564 2.45937 9.77909 2.45937C8.50175 2.45937 7.46581 3.48828 7.46581 4.75625V13.6648L6.06191 12.2656C5.15956 11.368 3.56112 11.4969 2.79003 12.2656C2.01894 13.0344 1.51737 14.5812 2.61894 15.6828L9.07831 22.1C9.2119 22.2313 9.35722 22.3414 9.5119 22.4352C10.6885 23.3961 12.0385 23.9633 14.8932 23.9633C21.4111 23.9633 22.0158 20.4477 22.0158 16.1094V11.518C22.0135 10.25 21.0783 9.22344 19.801 9.22344ZM20.7947 16.1094C20.7947 19.7797 20.7783 22.7563 14.8908 22.7563C12.3971 22.7563 10.8994 22.2008 9.76503 21.0734L3.65019 15.0008C3.10878 14.4594 3.24472 13.768 3.68769 13.325C4.13066 12.882 4.94394 12.868 5.3705 13.2922L8.68222 16.5828V4.99297C8.68222 4.39297 9.17206 3.90547 9.77675 3.90547C10.3814 3.90547 10.7963 4.39297 10.7963 4.99297V12.3641H10.808C10.7986 12.4039 10.7963 12.4438 10.7963 12.4859C10.7963 12.8188 11.0682 13.0906 11.4057 13.0906C11.7408 13.0906 12.015 12.8211 12.015 12.4859C12.015 12.4438 12.0103 12.4039 12.0033 12.3641H12.015V9.34297C12.015 8.74297 12.4533 8.25547 13.058 8.25547C13.058 8.25547 14.1291 8.24141 14.1291 9.34297V13.3297H14.1408C14.1314 13.3695 14.1291 13.4094 14.1291 13.4516C14.1291 13.7844 14.401 14.0563 14.7385 14.0563C15.0736 14.0563 15.3478 13.7867 15.3478 13.4516C15.3478 13.4094 15.3432 13.3695 15.3361 13.3297H15.3478V10.5523C15.3478 9.95234 15.7791 9.46484 16.3838 9.46484C16.3838 9.46484 17.4783 9.53281 17.4783 10.5523V14.0563H17.49C17.4807 14.0961 17.4783 14.1359 17.4783 14.1781C17.4783 14.5109 17.7502 14.7828 18.0877 14.7828C18.4228 14.7828 18.6807 14.5133 18.6807 14.1781C18.6807 14.1359 18.676 14.0961 18.6689 14.0563H18.6807V11.6633C18.6807 11.0633 19.133 10.5758 19.7377 10.5758C19.7377 10.5758 20.7994 10.5336 20.7994 11.6633V16.1094H20.7947ZM6.56112 8.17344V6.14375C6.36894 5.71016 6.25878 5.23203 6.25878 4.72812C6.25878 2.80391 7.81737 1.24297 9.74159 1.24297C11.6658 1.24297 13.2267 2.80156 13.2267 4.72812C13.2267 4.99062 13.1963 5.24609 13.14 5.49219C13.5783 5.50859 13.9744 5.69141 14.2603 5.98438C14.3728 5.58359 14.4385 5.16641 14.4385 4.73047C14.4385 2.13359 12.3361 0.03125 9.74159 0.03125C7.14941 0.03125 5.04706 2.13359 5.04706 4.72812C5.04706 6.09219 5.633 7.31563 6.56112 8.17344Z" fill="white" style="fill:white;fill-opacity:1;"/>
</svg>
