<svg width="32" height="32" viewBox="0 0 32 32" fill="none" xmlns="http://www.w3.org/2000/svg">
<mask id="path-1-inside-1_781_4802" fill="white">
<path d="M25.9316 3.82031C28.1721 3.82053 29.9971 5.65521 29.9971 7.9082V23.3672C29.9971 25.6202 28.1721 27.4549 25.9316 27.4551H25.5566V28.1172C25.5566 28.6702 25.1065 29.117 24.5566 29.1172C24.0035 29.1172 23.5566 28.6703 23.5566 28.1172V27.4551H8.5127V28.1172C8.5127 28.6702 8.06573 29.1171 7.5127 29.1172C6.95957 29.1172 6.5127 28.6703 6.5127 28.1172V27.4551H6.06543C3.82489 27.455 2 25.6202 2 23.3672V7.9082C2 5.65514 3.82489 3.82042 6.06543 3.82031H25.9316ZM27.9531 22.2451H23.3545L23.3682 25.4639H25.9316C27.0752 25.4637 28.0029 24.5233 28.0029 23.3672V22.2422C27.9864 22.243 27.9699 22.2451 27.9531 22.2451ZM6.06543 5.81055C4.92177 5.81065 3.99414 6.75202 3.99414 7.9082V23.3672C3.99414 24.5234 4.92489 25.4638 6.06543 25.4639H21.3682L21.2842 5.81055H6.06543ZM12.1309 18.9551C12.6652 18.8113 13.2125 19.1238 13.3594 19.6582C13.7654 21.155 12.8776 22.7051 11.3809 23.1113C11.1404 23.18 10.8903 23.2109 10.6436 23.2109C10.203 23.2109 9.76518 23.1076 9.36523 22.9014C8.74782 22.5864 8.26809 22.0548 8.01855 21.4082C7.82168 20.8926 8.07812 20.3141 8.59375 20.1172C9.10938 19.9203 9.68789 20.1768 9.88477 20.6924C10.0349 21.0828 10.4534 21.292 10.8564 21.1826C11.0656 21.1264 11.2403 20.9921 11.3496 20.8018C11.459 20.6111 11.4871 20.3951 11.4277 20.1826C11.2842 19.6485 11.5969 19.1021 12.1309 18.9551ZM16.3379 15.2607C17.8315 14.8485 19.3844 15.73 19.7969 17.2236C19.9843 17.8986 19.9123 18.6172 19.5967 19.2422C19.2842 19.864 18.7533 20.3426 18.1064 20.5957C17.9909 20.6426 17.8689 20.664 17.7471 20.6641C17.3471 20.6641 16.9686 20.4201 16.8154 20.0264C16.6156 19.5108 16.8723 18.9324 17.3848 18.7324C17.7751 18.5823 17.9845 18.1639 17.8721 17.7578C17.7533 17.3266 17.3033 17.0708 16.8721 17.1895C16.3408 17.3363 15.7875 17.0234 15.6406 16.4922C15.4938 15.9609 15.8066 15.4076 16.3379 15.2607ZM27.9531 16.9766H23.332L23.3457 20.2451H27.9531C27.9698 20.2451 27.9864 20.2463 28.0029 20.2471V16.9736C27.9864 16.9744 27.9699 16.9766 27.9531 16.9766ZM12.6562 13.4355C14.0562 13.4355 15.1973 14.5766 15.1973 15.9766C15.2004 17.3766 14.0594 18.5176 12.6562 18.5176C11.2563 18.5176 10.1152 17.3766 10.1152 15.9766C10.1152 14.5766 11.2563 13.4355 12.6562 13.4355ZM7.22168 11.3389C7.7373 11.142 8.31582 11.3984 8.5127 11.9141C8.70952 12.4297 8.4531 13.0082 7.9375 13.2051C7.54696 13.3551 7.3379 13.7737 7.44727 14.1768C7.56611 14.6078 8.01228 14.8666 8.44336 14.748C8.97761 14.6043 9.52485 14.917 9.67188 15.4512C9.81563 15.9855 9.50312 16.5328 8.96875 16.6797C8.725 16.7453 8.47813 16.7764 8.23438 16.7764C6.99687 16.7764 5.85918 15.9512 5.51855 14.7012C5.33432 14.0232 5.40983 13.3073 5.72852 12.6855C6.04415 12.0671 6.57502 11.5888 7.22168 11.3389ZM12.6562 15.4014C12.3406 15.4014 12.084 15.658 12.084 15.9736C12.0841 16.2892 12.3407 16.5449 12.6562 16.5449C12.9718 16.5449 13.2284 16.2892 13.2285 15.9736C13.2316 15.658 12.975 15.4014 12.6562 15.4014ZM27.9531 11.708H23.3096L23.3232 14.9766H27.9531C27.9698 14.9766 27.9864 14.9777 28.0029 14.9785V11.7051C27.9864 11.7059 27.9699 11.708 27.9531 11.708ZM13.9316 8.80469C14.6097 8.62044 15.3255 8.69498 15.9473 9.01367C16.5659 9.32931 17.044 9.86099 17.2939 10.5078C17.4908 11.0234 17.2344 11.602 16.7188 11.7988C16.2032 11.9956 15.6246 11.7392 15.4277 11.2236C15.2777 10.833 14.8592 10.623 14.4561 10.7324C14.0249 10.8512 13.7661 11.2983 13.8848 11.7295C14.0285 12.2638 13.7158 12.811 13.1816 12.958C13.0942 12.983 13.0064 12.9951 12.9189 12.9951C12.4783 12.9951 12.075 12.7016 11.9531 12.2578C11.5469 10.7609 12.4348 9.21094 13.9316 8.80469ZM23.3008 9.70801H27.9531C27.9698 9.70801 27.9864 9.70915 28.0029 9.70996V7.9082C28.0029 6.75209 27.0721 5.81076 25.9316 5.81055H23.2842L23.3008 9.70801Z"/>
</mask>
<path d="M25.9316 3.82031C28.1721 3.82053 29.9971 5.65521 29.9971 7.9082V23.3672C29.9971 25.6202 28.1721 27.4549 25.9316 27.4551H25.5566V28.1172C25.5566 28.6702 25.1065 29.117 24.5566 29.1172C24.0035 29.1172 23.5566 28.6703 23.5566 28.1172V27.4551H8.5127V28.1172C8.5127 28.6702 8.06573 29.1171 7.5127 29.1172C6.95957 29.1172 6.5127 28.6703 6.5127 28.1172V27.4551H6.06543C3.82489 27.455 2 25.6202 2 23.3672V7.9082C2 5.65514 3.82489 3.82042 6.06543 3.82031H25.9316ZM27.9531 22.2451H23.3545L23.3682 25.4639H25.9316C27.0752 25.4637 28.0029 24.5233 28.0029 23.3672V22.2422C27.9864 22.243 27.9699 22.2451 27.9531 22.2451ZM6.06543 5.81055C4.92177 5.81065 3.99414 6.75202 3.99414 7.9082V23.3672C3.99414 24.5234 4.92489 25.4638 6.06543 25.4639H21.3682L21.2842 5.81055H6.06543ZM12.1309 18.9551C12.6652 18.8113 13.2125 19.1238 13.3594 19.6582C13.7654 21.155 12.8776 22.7051 11.3809 23.1113C11.1404 23.18 10.8903 23.2109 10.6436 23.2109C10.203 23.2109 9.76518 23.1076 9.36523 22.9014C8.74782 22.5864 8.26809 22.0548 8.01855 21.4082C7.82168 20.8926 8.07812 20.3141 8.59375 20.1172C9.10938 19.9203 9.68789 20.1768 9.88477 20.6924C10.0349 21.0828 10.4534 21.292 10.8564 21.1826C11.0656 21.1264 11.2403 20.9921 11.3496 20.8018C11.459 20.6111 11.4871 20.3951 11.4277 20.1826C11.2842 19.6485 11.5969 19.1021 12.1309 18.9551ZM16.3379 15.2607C17.8315 14.8485 19.3844 15.73 19.7969 17.2236C19.9843 17.8986 19.9123 18.6172 19.5967 19.2422C19.2842 19.864 18.7533 20.3426 18.1064 20.5957C17.9909 20.6426 17.8689 20.664 17.7471 20.6641C17.3471 20.6641 16.9686 20.4201 16.8154 20.0264C16.6156 19.5108 16.8723 18.9324 17.3848 18.7324C17.7751 18.5823 17.9845 18.1639 17.8721 17.7578C17.7533 17.3266 17.3033 17.0708 16.8721 17.1895C16.3408 17.3363 15.7875 17.0234 15.6406 16.4922C15.4938 15.9609 15.8066 15.4076 16.3379 15.2607ZM27.9531 16.9766H23.332L23.3457 20.2451H27.9531C27.9698 20.2451 27.9864 20.2463 28.0029 20.2471V16.9736C27.9864 16.9744 27.9699 16.9766 27.9531 16.9766ZM12.6562 13.4355C14.0562 13.4355 15.1973 14.5766 15.1973 15.9766C15.2004 17.3766 14.0594 18.5176 12.6562 18.5176C11.2563 18.5176 10.1152 17.3766 10.1152 15.9766C10.1152 14.5766 11.2563 13.4355 12.6562 13.4355ZM7.22168 11.3389C7.7373 11.142 8.31582 11.3984 8.5127 11.9141C8.70952 12.4297 8.4531 13.0082 7.9375 13.2051C7.54696 13.3551 7.3379 13.7737 7.44727 14.1768C7.56611 14.6078 8.01228 14.8666 8.44336 14.748C8.97761 14.6043 9.52485 14.917 9.67188 15.4512C9.81563 15.9855 9.50312 16.5328 8.96875 16.6797C8.725 16.7453 8.47813 16.7764 8.23438 16.7764C6.99687 16.7764 5.85918 15.9512 5.51855 14.7012C5.33432 14.0232 5.40983 13.3073 5.72852 12.6855C6.04415 12.0671 6.57502 11.5888 7.22168 11.3389ZM12.6562 15.4014C12.3406 15.4014 12.084 15.658 12.084 15.9736C12.0841 16.2892 12.3407 16.5449 12.6562 16.5449C12.9718 16.5449 13.2284 16.2892 13.2285 15.9736C13.2316 15.658 12.975 15.4014 12.6562 15.4014ZM27.9531 11.708H23.3096L23.3232 14.9766H27.9531C27.9698 14.9766 27.9864 14.9777 28.0029 14.9785V11.7051C27.9864 11.7059 27.9699 11.708 27.9531 11.708ZM13.9316 8.80469C14.6097 8.62044 15.3255 8.69498 15.9473 9.01367C16.5659 9.32931 17.044 9.86099 17.2939 10.5078C17.4908 11.0234 17.2344 11.602 16.7188 11.7988C16.2032 11.9956 15.6246 11.7392 15.4277 11.2236C15.2777 10.833 14.8592 10.623 14.4561 10.7324C14.0249 10.8512 13.7661 11.2983 13.8848 11.7295C14.0285 12.2638 13.7158 12.811 13.1816 12.958C13.0942 12.983 13.0064 12.9951 12.9189 12.9951C12.4783 12.9951 12.075 12.7016 11.9531 12.2578C11.5469 10.7609 12.4348 9.21094 13.9316 8.80469ZM23.3008 9.70801H27.9531C27.9698 9.70801 27.9864 9.70915 28.0029 9.70996V7.9082C28.0029 6.75209 27.0721 5.81076 25.9316 5.81055H23.2842L23.3008 9.70801Z" fill="#8655FF" style="fill:#8655FF;fill:color(display-p3 0.5255 0.3333 1.0000);fill-opacity:1;"/>
<path d="M25.9316 3.82031L25.9317 3.52031H25.9316V3.82031ZM25.9316 27.4551V27.7551H25.9317L25.9316 27.4551ZM25.5566 27.4551V27.1551H25.2566V27.4551H25.5566ZM24.5566 29.1172V29.4172H24.5568L24.5566 29.1172ZM23.5566 27.4551H23.8566V27.1551H23.5566V27.4551ZM8.5127 27.4551V27.1551H8.2127V27.4551H8.5127ZM7.5127 29.1172V29.4172H7.51275L7.5127 29.1172ZM6.5127 27.4551H6.8127V27.1551H6.5127V27.4551ZM6.06543 27.4551L6.06542 27.7551H6.06543V27.4551ZM6.06543 3.82031V3.52031H6.06542L6.06543 3.82031ZM23.3545 22.2451V21.9451H23.0532L23.0545 22.2464L23.3545 22.2451ZM23.3682 25.4639L23.0682 25.4651L23.0694 25.7639H23.3682V25.4639ZM25.9316 25.4639V25.7639H25.9317L25.9316 25.4639ZM28.0029 22.2422H28.3029V21.9272L27.9883 21.9425L28.0029 22.2422ZM6.06543 5.81055V5.51055L6.0654 5.51055L6.06543 5.81055ZM6.06543 25.4639L6.0654 25.7639H6.06543V25.4639ZM21.3682 25.4639V25.7639H21.6694L21.6682 25.4626L21.3682 25.4639ZM21.2842 5.81055L21.5842 5.80926L21.5829 5.51055H21.2842V5.81055ZM12.1309 18.9551L12.0529 18.6654L12.0512 18.6658L12.1309 18.9551ZM13.3594 19.6582L13.6489 19.5797L13.6486 19.5787L13.3594 19.6582ZM11.3809 23.1113L11.3023 22.8218L11.2985 22.8229L11.3809 23.1113ZM10.6436 23.2109L10.6435 23.5109H10.6436V23.2109ZM9.36523 22.9014L9.50272 22.6347L9.50155 22.6341L9.36523 22.9014ZM8.01855 21.4082L7.73829 21.5152L7.73867 21.5162L8.01855 21.4082ZM8.59375 20.1172L8.48674 19.8369L8.59375 20.1172ZM9.88477 20.6924L9.6045 20.7994L9.60475 20.8L9.88477 20.6924ZM10.8564 21.1826L10.7785 20.8929L10.7779 20.8931L10.8564 21.1826ZM11.3496 20.8018L11.6098 20.9512L11.6098 20.9511L11.3496 20.8018ZM11.4277 20.1826L11.138 20.2605L11.1388 20.2633L11.4277 20.1826ZM16.3379 15.2607L16.2581 14.9716L16.2579 14.9716L16.3379 15.2607ZM19.7969 17.2236L19.5077 17.3035L19.5078 17.3039L19.7969 17.2236ZM19.5967 19.2422L19.3289 19.107L19.3286 19.1075L19.5967 19.2422ZM18.1064 20.5957L17.9971 20.3163L17.9937 20.3177L18.1064 20.5957ZM17.7471 20.6641V20.9641H17.7471L17.7471 20.6641ZM16.8154 20.0264L16.5357 20.1348L16.5358 20.1351L16.8154 20.0264ZM17.3848 18.7324L17.2771 18.4524L17.2757 18.4529L17.3848 18.7324ZM17.8721 17.7578L17.5828 17.8375L17.5829 17.8379L17.8721 17.7578ZM16.8721 17.1895L16.7925 16.9002L16.7921 16.9003L16.8721 17.1895ZM15.6406 16.4922L15.3515 16.5721L15.6406 16.4922ZM23.332 16.9766V16.6766H23.0308L23.032 16.9778L23.332 16.9766ZM23.3457 20.2451L23.0457 20.2464L23.047 20.5451H23.3457V20.2451ZM28.0029 20.2471L27.9883 20.5467L28.3029 20.5621V20.2471H28.0029ZM28.0029 16.9736H28.3029V16.6586L27.9883 16.674L28.0029 16.9736ZM15.1973 15.9766H14.8973L14.8973 15.9772L15.1973 15.9766ZM10.1152 15.9766H9.81523H10.1152ZM7.22168 11.3389L7.11467 11.0586L7.11352 11.059L7.22168 11.3389ZM8.5127 11.9141L8.79297 11.8071L8.79296 11.8071L8.5127 11.9141ZM7.9375 13.2051L7.83049 12.9248L7.82991 12.925L7.9375 13.2051ZM7.44727 14.1768L7.15773 14.2553L7.15806 14.2565L7.44727 14.1768ZM8.44336 14.748L8.36543 14.4583L8.36381 14.4588L8.44336 14.748ZM9.67188 15.4512L9.96158 15.3732L9.96112 15.3716L9.67188 15.4512ZM8.96875 16.6797L9.04674 16.9694L9.04826 16.969L8.96875 16.6797ZM5.51855 14.7012L5.22905 14.7798L5.22911 14.78L5.51855 14.7012ZM5.72852 12.6855L5.99549 12.8224L5.99573 12.8219L5.72852 12.6855ZM12.084 15.9736H11.784V15.9737L12.084 15.9736ZM13.2285 15.9736L12.9285 15.9707L12.9285 15.9735L13.2285 15.9736ZM23.3096 11.708V11.408H23.0083L23.0096 11.7093L23.3096 11.708ZM23.3232 14.9766L23.0232 14.9778L23.0245 15.2766H23.3232V14.9766ZM28.0029 14.9785L27.9883 15.2782L28.3029 15.2935V14.9785H28.0029ZM28.0029 11.7051H28.3029V11.3901L27.9883 11.4054L28.0029 11.7051ZM13.9316 8.80469L14.0102 9.09421L14.0103 9.09419L13.9316 8.80469ZM15.9473 9.01367L15.8104 9.28065L15.8109 9.2809L15.9473 9.01367ZM17.2939 10.5078L17.5742 10.4008L17.5738 10.3997L17.2939 10.5078ZM16.7188 11.7988L16.8257 12.0791L16.8258 12.0791L16.7188 11.7988ZM15.4277 11.2236L15.708 11.1166L15.7078 11.1161L15.4277 11.2236ZM14.4561 10.7324L14.3775 10.4429L14.3764 10.4432L14.4561 10.7324ZM13.8848 11.7295L14.1745 11.6516L14.174 11.6499L13.8848 11.7295ZM13.1816 12.958L13.102 12.6687L13.0992 12.6696L13.1816 12.958ZM12.9189 12.9951V13.2951H12.919L12.9189 12.9951ZM11.9531 12.2578L11.6636 12.3364L11.6638 12.3373L11.9531 12.2578ZM23.3008 9.70801L23.0008 9.70929L23.0021 10.008H23.3008V9.70801ZM28.0029 9.70996L27.9883 10.0096L28.3029 10.025V9.70996H28.0029ZM25.9316 5.81055L25.9317 5.51055H25.9316V5.81055ZM23.2842 5.81055V5.51055H22.9829L22.9842 5.81182L23.2842 5.81055ZM25.9316 3.82031L25.9316 4.12031C28.0049 4.12051 29.6971 5.81937 29.6971 7.9082H29.9971H30.2971C30.2971 5.49105 28.3393 3.52054 25.9317 3.52031L25.9316 3.82031ZM29.9971 7.9082H29.6971V23.3672H29.9971H30.2971V7.9082H29.9971ZM29.9971 23.3672H29.6971C29.6971 25.456 28.0049 27.1549 25.9316 27.1551L25.9316 27.4551L25.9317 27.7551C28.3393 27.7548 30.2971 25.7843 30.2971 23.3672H29.9971ZM25.9316 27.4551V27.1551H25.5566V27.4551V27.7551H25.9316V27.4551ZM25.5566 27.4551H25.2566V28.1172H25.5566H25.8566V27.4551H25.5566ZM25.5566 28.1172H25.2566C25.2566 28.5038 24.9415 28.817 24.5565 28.8172L24.5566 29.1172L24.5568 29.4172C25.2715 29.4169 25.8566 28.8366 25.8566 28.1172H25.5566ZM24.5566 29.1172V28.8172C24.1692 28.8172 23.8566 28.5046 23.8566 28.1172H23.5566H23.2566C23.2566 28.836 23.8378 29.4172 24.5566 29.4172V29.1172ZM23.5566 28.1172H23.8566V27.4551H23.5566H23.2566V28.1172H23.5566ZM23.5566 27.4551V27.1551H8.5127V27.4551V27.7551H23.5566V27.4551ZM8.5127 27.4551H8.2127V28.1172H8.5127H8.8127V27.4551H8.5127ZM8.5127 28.1172H8.2127C8.2127 28.5045 7.90009 28.8171 7.51264 28.8172L7.5127 29.1172L7.51275 29.4172C8.23137 29.4171 8.8127 28.836 8.8127 28.1172H8.5127ZM7.5127 29.1172V28.8172C7.12526 28.8172 6.8127 28.5046 6.8127 28.1172H6.5127H6.2127C6.2127 28.836 6.79388 29.4172 7.5127 29.4172V29.1172ZM6.5127 28.1172H6.8127V27.4551H6.5127H6.2127V28.1172H6.5127ZM6.5127 27.4551V27.1551H6.06543V27.4551V27.7551H6.5127V27.4551ZM6.06543 27.4551L6.06544 27.1551C3.99212 27.155 2.3 25.4561 2.3 23.3672H2H1.7C1.7 25.7844 3.65767 27.755 6.06542 27.7551L6.06543 27.4551ZM2 23.3672H2.3V7.9082H2H1.7V23.3672H2ZM2 7.9082H2.3C2.3 5.81929 3.99212 4.12041 6.06544 4.12031L6.06543 3.82031L6.06542 3.52031C3.65767 3.52043 1.7 5.491 1.7 7.9082H2ZM6.06543 3.82031V4.12031H25.9316V3.82031V3.52031H6.06543V3.82031ZM27.9531 22.2451V21.9451H23.3545V22.2451V22.5451H27.9531V22.2451ZM23.3545 22.2451L23.0545 22.2464L23.0682 25.4651L23.3682 25.4639L23.6682 25.4626L23.6545 22.2438L23.3545 22.2451ZM23.3682 25.4639V25.7639H25.9316V25.4639V25.1639H23.3682V25.4639ZM25.9316 25.4639L25.9317 25.7639C27.2444 25.7636 28.3029 24.6854 28.3029 23.3672H28.0029H27.7029C27.7029 24.3612 26.906 25.1637 25.9316 25.1639L25.9316 25.4639ZM28.0029 23.3672H28.3029V22.2422H28.0029H27.7029V23.3672H28.0029ZM28.0029 22.2422L27.9883 21.9425C27.9803 21.9429 27.9732 21.9434 27.9679 21.9438C27.9653 21.944 27.9627 21.9442 27.9607 21.9444C27.9585 21.9446 27.9569 21.9447 27.9553 21.9448C27.9487 21.9453 27.9496 21.9451 27.9531 21.9451V22.2451V22.5451C27.9733 22.5451 27.991 22.5438 28.0009 22.5431C28.0141 22.5421 28.0147 22.542 28.0176 22.5418L28.0029 22.2422ZM6.06543 5.81055L6.0654 5.51055C4.75235 5.51067 3.69414 6.59009 3.69414 7.9082H3.99414H4.29414C4.29414 6.91395 5.09119 6.11064 6.06546 6.11055L6.06543 5.81055ZM3.99414 7.9082H3.69414V23.3672H3.99414H4.29414V7.9082H3.99414ZM3.99414 23.3672H3.69414C3.69414 24.6858 4.75595 25.7637 6.0654 25.7639L6.06543 25.4639L6.06546 25.1639C5.09384 25.1638 4.29414 24.361 4.29414 23.3672H3.99414ZM6.06543 25.4639V25.7639H21.3682V25.4639V25.1639H6.06543V25.4639ZM21.3682 25.4639L21.6682 25.4626L21.5842 5.80926L21.2842 5.81055L20.9842 5.81183L21.0682 25.4651L21.3682 25.4639ZM21.2842 5.81055V5.51055H6.06543V5.81055V6.11055H21.2842V5.81055ZM12.1309 18.9551L12.2088 19.2448C12.584 19.1439 12.967 19.3627 13.0701 19.7377L13.3594 19.6582L13.6486 19.5787C13.458 18.885 12.7465 18.4788 12.0529 18.6654L12.1309 18.9551ZM13.3594 19.6582L13.0698 19.7367C13.4325 21.0737 12.639 22.459 11.3023 22.8218L11.3809 23.1113L11.4594 23.4009C13.1162 22.9512 14.0983 21.2362 13.6489 19.5797L13.3594 19.6582ZM11.3809 23.1113L11.2985 22.8229C11.0877 22.883 10.8656 22.9109 10.6436 22.9109V23.2109V23.5109C10.915 23.5109 11.1931 23.4769 11.4632 23.3998L11.3809 23.1113ZM10.6436 23.2109L10.6436 22.9109C10.25 22.9109 9.85944 22.8187 9.50272 22.6347L9.36523 22.9014L9.22775 23.168C9.67091 23.3965 10.156 23.5109 10.6435 23.5109L10.6436 23.2109ZM9.36523 22.9014L9.50155 22.6341C8.94989 22.3527 8.52133 21.8778 8.29844 21.3002L8.01855 21.4082L7.73867 21.5162C8.01485 22.2319 8.54576 22.8202 9.22892 23.1686L9.36523 22.9014ZM8.01855 21.4082L8.29882 21.3012C8.16062 20.9392 8.34104 20.5348 8.70076 20.3975L8.59375 20.1172L8.48674 19.8369C7.81521 20.0933 7.48274 20.8459 7.73829 21.5152L8.01855 21.4082ZM8.59375 20.1172L8.70076 20.3975C9.06272 20.2593 9.46715 20.4397 9.6045 20.7994L9.88477 20.6924L10.165 20.5854C9.90863 19.9138 9.15603 19.5814 8.48674 19.8369L8.59375 20.1172ZM9.88477 20.6924L9.60475 20.8C9.81069 21.3357 10.3852 21.6213 10.935 21.4721L10.8564 21.1826L10.7779 20.8931C10.5216 20.9626 10.259 20.8299 10.1648 20.5847L9.88477 20.6924ZM10.8564 21.1826L10.9344 21.4723C11.2209 21.3953 11.4609 21.2103 11.6098 20.9512L11.3496 20.8018L11.0895 20.6523C11.0196 20.7739 10.9104 20.8575 10.7785 20.8929L10.8564 21.1826ZM11.3496 20.8018L11.6098 20.9511C11.7587 20.6916 11.7979 20.3928 11.7167 20.1019L11.4277 20.1826L11.1388 20.2633C11.1763 20.3975 11.1593 20.5307 11.0894 20.6525L11.3496 20.8018ZM11.4277 20.1826L11.7175 20.1048C11.6168 19.7301 11.8354 19.3476 12.2105 19.2443L12.1309 18.9551L12.0512 18.6658C11.3583 18.8566 10.9516 19.5669 11.138 20.2605L11.4277 20.1826ZM16.3379 15.2607L16.4177 15.5499C17.7515 15.1818 19.1393 15.9695 19.5077 17.3035L19.7969 17.2236L20.0861 17.1438C19.6295 15.4906 17.9115 14.5152 16.2581 14.9716L16.3379 15.2607ZM19.7969 17.2236L19.5078 17.3039C19.6752 17.9066 19.611 18.5484 19.3289 19.107L19.5967 19.2422L19.8645 19.3774C20.2136 18.6861 20.2934 17.8906 20.0859 17.1434L19.7969 17.2236ZM19.5967 19.2422L19.3286 19.1075C19.0499 19.6621 18.5761 20.0898 17.9971 20.3163L18.1064 20.5957L18.2158 20.8751C18.9305 20.5954 19.5185 20.0659 19.8647 19.3769L19.5967 19.2422ZM18.1064 20.5957L17.9937 20.3177C17.917 20.3488 17.8336 20.364 17.747 20.3641L17.7471 20.6641L17.7471 20.9641C17.9042 20.964 18.0648 20.9363 18.2192 20.8737L18.1064 20.5957ZM17.7471 20.6641V20.3641C17.4671 20.3641 17.202 20.1926 17.095 19.9176L16.8154 20.0264L16.5358 20.1351C16.7351 20.6476 17.2271 20.9641 17.7471 20.9641V20.6641ZM16.8154 20.0264L17.0952 19.9179C16.9553 19.5572 17.135 19.1519 17.4938 19.0119L17.3848 18.7324L17.2757 18.4529C16.6097 18.7128 16.2759 19.4644 16.5357 20.1348L16.8154 20.0264ZM17.3848 18.7324L17.4925 19.0124C18.0284 18.8063 18.3144 18.2311 18.1612 17.6778L17.8721 17.7578L17.5829 17.8379C17.6546 18.0967 17.5218 18.3583 17.2771 18.4524L17.3848 18.7324ZM17.8721 17.7578L18.1613 17.6782C17.9986 17.0873 17.3835 16.7375 16.7925 16.9002L16.8721 17.1895L16.9517 17.4787C17.2231 17.404 17.5081 17.5659 17.5828 17.8375L17.8721 17.7578ZM16.8721 17.1895L16.7921 16.9003C16.4202 17.0031 16.0324 16.7835 15.9298 16.4122L15.6406 16.4922L15.3515 16.5721C15.5426 17.2634 16.2614 17.6695 16.952 17.4786L16.8721 17.1895ZM15.6406 16.4922L15.9298 16.4122C15.827 16.0403 16.0466 15.6525 16.4178 15.5499L16.3379 15.2607L16.2579 14.9716C15.5667 15.1627 15.1605 15.8815 15.3515 16.5721L15.6406 16.4922ZM27.9531 16.9766V16.6766H23.332V16.9766V17.2766H27.9531V16.9766ZM23.332 16.9766L23.032 16.9778L23.0457 20.2464L23.3457 20.2451L23.6457 20.2439L23.632 16.9753L23.332 16.9766ZM23.3457 20.2451V20.5451H27.9531V20.2451V19.9451H23.3457V20.2451ZM27.9531 20.2451V20.5451C27.9601 20.5451 27.9637 20.5455 27.9883 20.5467L28.0029 20.2471L28.0176 19.9474C28.0091 19.947 27.9796 19.9451 27.9531 19.9451V20.2451ZM28.0029 20.2471H28.3029V16.9736H28.0029H27.7029V20.2471H28.0029ZM28.0029 16.9736L27.9883 16.674C27.9804 16.6744 27.9732 16.6749 27.9679 16.6753C27.9653 16.6755 27.9627 16.6757 27.9607 16.6758C27.9585 16.676 27.9569 16.6761 27.9553 16.6763C27.9487 16.6768 27.9496 16.6766 27.9531 16.6766V16.9766V17.2766C27.9733 17.2766 27.991 17.2753 28.0009 17.2745C28.0141 17.2735 28.0147 17.2734 28.0176 17.2733L28.0029 16.9736ZM12.6562 13.4355V13.7355C13.8906 13.7355 14.8973 14.7422 14.8973 15.9766H15.1973H15.4973C15.4973 14.4109 14.2219 13.1355 12.6562 13.1355V13.4355ZM15.1973 15.9766L14.8973 15.9772C14.9 17.2107 13.8941 18.2176 12.6562 18.2176V18.5176V18.8176C14.2247 18.8176 15.5008 17.5425 15.4973 15.9759L15.1973 15.9766ZM12.6562 18.5176V18.2176C11.4219 18.2176 10.4152 17.2109 10.4152 15.9766H10.1152H9.81523C9.81523 17.5422 11.0906 18.8176 12.6562 18.8176V18.5176ZM10.1152 15.9766H10.4152C10.4152 14.7422 11.4219 13.7355 12.6562 13.7355V13.4355V13.1355C11.0906 13.1355 9.81524 14.4109 9.81523 15.9766H10.1152ZM7.22168 11.3389L7.32869 11.6191C7.69064 11.4809 8.09508 11.6613 8.23243 12.0211L8.5127 11.9141L8.79296 11.8071C8.53656 11.1355 7.78396 10.8031 7.11467 11.0586L7.22168 11.3389ZM8.5127 11.9141L8.23242 12.0211C8.3706 12.383 8.19017 12.7875 7.83049 12.9248L7.9375 13.2051L8.04451 13.4853C8.71603 13.2289 9.04845 12.4763 8.79297 11.8071L8.5127 11.9141ZM7.9375 13.2051L7.82991 12.925C7.29398 13.1309 7.00857 13.7055 7.15773 14.2553L7.44727 14.1768L7.7368 14.0982C7.66723 13.8418 7.79993 13.5793 8.04509 13.4851L7.9375 13.2051ZM7.44727 14.1768L7.15806 14.2565C7.32008 14.8441 7.92912 15.2006 8.52291 15.0373L8.44336 14.748L8.36381 14.4588C8.09545 14.5326 7.81213 14.3714 7.73647 14.097L7.44727 14.1768ZM8.44336 14.748L8.52129 15.0377C8.89626 14.9369 9.27941 15.1558 9.38263 15.5308L9.67188 15.4512L9.96112 15.3716C9.77029 14.6783 9.05897 14.2718 8.36543 14.4583L8.44336 14.748ZM9.67188 15.4512L9.38217 15.5291C9.4831 15.9043 9.26427 16.2873 8.88924 16.3904L8.96875 16.6797L9.04826 16.969C9.74198 16.7783 10.1481 16.0668 9.96158 15.3732L9.67188 15.4512ZM8.96875 16.6797L8.89076 16.39C8.67323 16.4486 8.45262 16.4764 8.23438 16.4764V16.7764V17.0764C8.50363 17.0764 8.77677 17.0421 9.04674 16.9694L8.96875 16.6797ZM8.23438 16.7764V16.4764C7.12855 16.4764 6.11211 15.7383 5.808 14.6223L5.51855 14.7012L5.22911 14.78C5.60625 16.1641 6.8652 17.0764 8.23438 17.0764V16.7764ZM5.51855 14.7012L5.80806 14.6225C5.64342 14.0166 5.71091 13.3776 5.99549 12.8224L5.72852 12.6855L5.46154 12.5487C5.10876 13.237 5.02522 14.0297 5.22905 14.7798L5.51855 14.7012ZM5.72852 12.6855L5.99573 12.8219C6.27778 12.2692 6.75197 11.842 7.32984 11.6187L7.22168 11.3389L7.11352 11.059C6.39806 11.3356 5.81053 11.8649 5.4613 12.5492L5.72852 12.6855ZM12.6562 15.4014V15.1014C12.1749 15.1014 11.784 15.4923 11.784 15.9736H12.084H12.384C12.384 15.8237 12.5063 15.7014 12.6562 15.7014V15.4014ZM12.084 15.9736L11.784 15.9737C11.7841 16.4554 12.1756 16.8449 12.6562 16.8449V16.5449V16.2449C12.5058 16.2449 12.384 16.1229 12.384 15.9735L12.084 15.9736ZM12.6562 16.5449V16.8449C13.1369 16.8449 13.5284 16.4554 13.5285 15.9737L13.2285 15.9736L12.9285 15.9735C12.9285 16.1229 12.8067 16.2449 12.6562 16.2449V16.5449ZM13.2285 15.9736L13.5285 15.9766C13.5333 15.4913 13.139 15.1014 12.6562 15.1014V15.4014V15.7014C12.811 15.7014 12.93 15.8247 12.9285 15.9707L13.2285 15.9736ZM27.9531 11.708V11.408H23.3096V11.708V12.008H27.9531V11.708ZM23.3096 11.708L23.0096 11.7093L23.0232 14.9778L23.3232 14.9766L23.6232 14.9753L23.6096 11.7068L23.3096 11.708ZM23.3232 14.9766V15.2766H27.9531V14.9766V14.6766H23.3232V14.9766ZM27.9531 14.9766V15.2766C27.9601 15.2766 27.9637 15.277 27.9883 15.2782L28.0029 14.9785L28.0176 14.6789C28.0091 14.6785 27.9796 14.6766 27.9531 14.6766V14.9766ZM28.0029 14.9785H28.3029V11.7051H28.0029H27.7029V14.9785H28.0029ZM28.0029 11.7051L27.9883 11.4054C27.9804 11.4058 27.9733 11.4063 27.9679 11.4067C27.9653 11.4069 27.9627 11.4071 27.9607 11.4073C27.9585 11.4075 27.9569 11.4076 27.9553 11.4077C27.9487 11.4082 27.9496 11.408 27.9531 11.408V11.708V12.008C27.9733 12.008 27.991 12.0067 28.0009 12.006C28.0141 12.005 28.0147 12.0049 28.0176 12.0047L28.0029 11.7051ZM13.9316 8.80469L14.0103 9.09419C14.6165 8.92946 15.2555 8.99619 15.8104 9.28064L15.9473 9.01367L16.0841 8.7467C15.3955 8.39377 14.6028 8.31142 13.853 8.51519L13.9316 8.80469ZM15.9473 9.01367L15.8109 9.2809C16.3636 9.56284 16.7906 10.0377 17.0141 10.616L17.2939 10.5078L17.5738 10.3997C17.2973 9.68424 16.7683 9.09577 16.0836 8.74644L15.9473 9.01367ZM17.2939 10.5078L17.0137 10.6148C17.1519 10.9768 16.9714 11.3812 16.6117 11.5186L16.7188 11.7988L16.8258 12.0791C17.4973 11.8227 17.8297 11.0701 17.5742 10.4008L17.2939 10.5078ZM16.7188 11.7988L16.6118 11.5185C16.2498 11.6567 15.8453 11.4763 15.708 11.1166L15.4277 11.2236L15.1475 11.3307C15.4039 12.0021 16.1565 12.3345 16.8257 12.0791L16.7188 11.7988ZM15.4277 11.2236L15.7078 11.1161C15.5021 10.5806 14.9279 10.2936 14.3775 10.4429L14.4561 10.7324L14.5346 11.022C14.7905 10.9525 15.0533 11.0855 15.1477 11.3312L15.4277 11.2236ZM14.4561 10.7324L14.3764 10.4432C13.7882 10.6052 13.4321 11.2155 13.5955 11.8091L13.8848 11.7295L14.174 11.6499C14.1 11.3811 14.2615 11.0972 14.5357 11.0216L14.4561 10.7324ZM13.8848 11.7295L13.5951 11.8074C13.6959 12.1824 13.4771 12.5656 13.102 12.6688L13.1816 12.958L13.2612 13.2473C13.9546 13.0564 14.361 12.3451 14.1745 11.6516L13.8848 11.7295ZM13.1816 12.958L13.0992 12.6696C13.0385 12.6869 12.9784 12.6951 12.9189 12.6951L12.9189 12.9951L12.919 13.2951C13.0344 13.2951 13.1499 13.2791 13.2641 13.2465L13.1816 12.958ZM12.9189 12.9951V12.6951C12.6104 12.6951 12.3277 12.4889 12.2424 12.1784L11.9531 12.2578L11.6638 12.3373C11.8223 12.9142 12.3463 13.2951 12.9189 13.2951V12.9951ZM11.9531 12.2578L12.2427 12.1792C11.8798 10.8422 12.6733 9.45705 14.0102 9.09421L13.9316 8.80469L13.8531 8.51516C12.1962 8.96482 11.214 10.6797 11.6636 12.3364L11.9531 12.2578ZM23.3008 9.70801V10.008H27.9531V9.70801V9.40801H23.3008V9.70801ZM27.9531 9.70801V10.008C27.9601 10.008 27.9637 10.0084 27.9883 10.0096L28.0029 9.70996L28.0176 9.41032C28.0091 9.40991 27.9796 9.40801 27.9531 9.40801V9.70801ZM28.0029 9.70996H28.3029V7.9082H28.0029H27.7029V9.70996H28.0029ZM28.0029 7.9082H28.3029C28.3029 6.58983 27.2412 5.51079 25.9317 5.51055L25.9316 5.81055L25.9316 6.11055C26.903 6.11073 27.7029 6.91434 27.7029 7.9082H28.0029ZM25.9316 5.81055V5.51055H23.2842V5.81055V6.11055H25.9316V5.81055ZM23.2842 5.81055L22.9842 5.81182L23.0008 9.70929L23.3008 9.70801L23.6008 9.70673L23.5842 5.80927L23.2842 5.81055Z" fill="white" style="fill:white;fill-opacity:1;" mask="url(#path-1-inside-1_781_4802)"/>
</svg>
