<svg width="32" height="32" viewBox="0 0 32 32" fill="none" xmlns="http://www.w3.org/2000/svg">
<mask id="path-1-inside-1_781_4773" fill="white">
<path d="M25.612 1C26.2113 1.00003 26.7887 1.27975 27.2295 1.78364C27.6704 2.28753 27.9425 2.97874 27.9918 3.72007L28 3.96396V26.319C28 27.0629 27.7746 27.7795 27.3686 28.3267C26.9627 28.8739 26.4058 29.2116 25.8085 29.2728L25.612 29.283L25.0252 29.2813V29.7318C25.0248 30.0535 24.9261 30.363 24.7489 30.5979C24.5718 30.8327 24.3295 30.9754 24.0709 30.9971C23.8123 31.0188 23.5567 30.9179 23.3557 30.7148C23.1547 30.5117 23.0233 30.2216 22.9879 29.9029L22.9784 29.7318V29.2813H9.27814V29.7318C9.27772 30.0535 9.17898 30.363 9.00184 30.5979C8.82471 30.8327 8.58239 30.9754 8.3238 30.9971C8.0652 31.0188 7.8096 30.9179 7.6086 30.7148C7.4076 30.5117 7.27617 30.2216 7.24085 29.9029L7.23129 29.7318V29.2813H6.38799C5.78869 29.2812 5.2113 29.0015 4.77045 28.4976C4.32959 27.9938 4.0575 27.3025 4.00819 26.5612L4 26.319V3.96396C4.00002 3.22011 4.22539 2.50346 4.63136 1.95627C5.03733 1.40909 5.59422 1.07137 6.19149 1.01016L6.38799 1H25.612ZM25.9531 24.0088H6.04685V26.319C6.0469 26.4142 6.07279 26.5065 6.12032 26.5812C6.16785 26.6559 6.23427 26.7085 6.30885 26.7306L6.38799 26.7424H25.612C25.6891 26.7427 25.764 26.7105 25.8244 26.6511C25.8849 26.5917 25.9274 26.5087 25.945 26.4155L25.9531 26.319V24.0088ZM25.612 3.54054H6.38799C6.3109 3.54031 6.23602 3.57251 6.17556 3.63187C6.1151 3.69123 6.07261 3.77426 6.05504 3.86742L6.04685 3.96396V21.4683H25.9531V3.96396C25.9531 3.8688 25.9272 3.77643 25.8797 3.70176C25.8321 3.62709 25.7657 3.57447 25.6912 3.55239L25.612 3.54054ZM18.9529 6.04382C19.1664 6.19857 19.3276 6.44402 19.4066 6.73482C19.4856 7.02561 19.4772 7.34208 19.3828 7.62572L19.32 7.77985L14.4485 18.1571C14.319 18.438 14.108 18.647 13.8585 18.7414C13.6091 18.8358 13.34 18.8084 13.1063 18.6648C12.8726 18.5213 12.6918 18.2724 12.6009 17.9691C12.51 17.6657 12.5159 17.3307 12.6172 17.0325L12.6786 16.8784L17.5515 6.50111C17.6192 6.35695 17.7092 6.23077 17.8162 6.12976C17.9232 6.02875 18.0452 5.95491 18.1752 5.91244C18.3052 5.86997 18.4407 5.85972 18.5739 5.88226C18.7071 5.9048 18.8354 5.9597 18.9516 6.04382H18.9529ZM20.6259 15.8334L21.2195 16.1501C21.4214 16.2432 21.4378 16.2415 21.5647 16.1145C21.6694 16.01 21.7897 15.9321 21.9187 15.8852C22.0477 15.8384 22.1829 15.8236 22.3165 15.8416C22.4501 15.8596 22.5796 15.9101 22.6975 15.9902C22.8154 16.0703 22.9194 16.1784 23.0036 16.3084C23.0879 16.4384 23.1506 16.5878 23.1884 16.7479C23.2261 16.908 23.238 17.0758 23.2235 17.2416C23.209 17.4074 23.1683 17.5681 23.1038 17.7145C23.0393 17.8608 22.9521 17.9899 22.8474 18.0944C22.1064 18.8346 21.3382 18.9125 20.5099 18.5348L20.3093 18.4349L20.0091 18.2706C19.436 17.9488 19.2954 17.9318 18.9857 18.1774C18.8721 18.267 18.7455 18.3278 18.6131 18.3566C18.4806 18.3854 18.3448 18.3815 18.2135 18.3452C18.0823 18.3089 17.958 18.2408 17.848 18.1449C17.7379 18.049 17.6441 17.9271 17.572 17.7862C17.4999 17.6453 17.4508 17.4881 17.4276 17.3237C17.4044 17.1593 17.4075 16.9908 17.4368 16.8278C17.4661 16.6649 17.5209 16.5107 17.5982 16.3741C17.6755 16.2374 17.7737 16.121 17.8872 16.0315C18.8519 15.2727 19.6038 15.3083 20.6259 15.8334ZM12.6391 7.04818C12.8984 7.04827 13.148 7.17054 13.3374 7.39025C13.5269 7.60997 13.6421 7.91077 13.6598 8.23186C13.6775 8.55296 13.5963 8.87041 13.4327 9.12007C13.269 9.36973 13.0351 9.53299 12.7783 9.57686L12.6391 9.58871H9.78986C9.53056 9.58862 9.28095 9.46635 9.09148 9.24663C8.90201 9.02692 8.7868 8.72612 8.76912 8.40503C8.75145 8.08393 8.83263 7.76648 8.99627 7.51682C9.1599 7.26716 9.39379 7.1039 9.65067 7.06003L9.78986 7.04818H12.6391Z"/>
</mask>
<path d="M25.612 1C26.2113 1.00003 26.7887 1.27975 27.2295 1.78364C27.6704 2.28753 27.9425 2.97874 27.9918 3.72007L28 3.96396V26.319C28 27.0629 27.7746 27.7795 27.3686 28.3267C26.9627 28.8739 26.4058 29.2116 25.8085 29.2728L25.612 29.283L25.0252 29.2813V29.7318C25.0248 30.0535 24.9261 30.363 24.7489 30.5979C24.5718 30.8327 24.3295 30.9754 24.0709 30.9971C23.8123 31.0188 23.5567 30.9179 23.3557 30.7148C23.1547 30.5117 23.0233 30.2216 22.9879 29.9029L22.9784 29.7318V29.2813H9.27814V29.7318C9.27772 30.0535 9.17898 30.363 9.00184 30.5979C8.82471 30.8327 8.58239 30.9754 8.3238 30.9971C8.0652 31.0188 7.8096 30.9179 7.6086 30.7148C7.4076 30.5117 7.27617 30.2216 7.24085 29.9029L7.23129 29.7318V29.2813H6.38799C5.78869 29.2812 5.2113 29.0015 4.77045 28.4976C4.32959 27.9938 4.0575 27.3025 4.00819 26.5612L4 26.319V3.96396C4.00002 3.22011 4.22539 2.50346 4.63136 1.95627C5.03733 1.40909 5.59422 1.07137 6.19149 1.01016L6.38799 1H25.612ZM25.9531 24.0088H6.04685V26.319C6.0469 26.4142 6.07279 26.5065 6.12032 26.5812C6.16785 26.6559 6.23427 26.7085 6.30885 26.7306L6.38799 26.7424H25.612C25.6891 26.7427 25.764 26.7105 25.8244 26.6511C25.8849 26.5917 25.9274 26.5087 25.945 26.4155L25.9531 26.319V24.0088ZM25.612 3.54054H6.38799C6.3109 3.54031 6.23602 3.57251 6.17556 3.63187C6.1151 3.69123 6.07261 3.77426 6.05504 3.86742L6.04685 3.96396V21.4683H25.9531V3.96396C25.9531 3.8688 25.9272 3.77643 25.8797 3.70176C25.8321 3.62709 25.7657 3.57447 25.6912 3.55239L25.612 3.54054ZM18.9529 6.04382C19.1664 6.19857 19.3276 6.44402 19.4066 6.73482C19.4856 7.02561 19.4772 7.34208 19.3828 7.62572L19.32 7.77985L14.4485 18.1571C14.319 18.438 14.108 18.647 13.8585 18.7414C13.6091 18.8358 13.34 18.8084 13.1063 18.6648C12.8726 18.5213 12.6918 18.2724 12.6009 17.9691C12.51 17.6657 12.5159 17.3307 12.6172 17.0325L12.6786 16.8784L17.5515 6.50111C17.6192 6.35695 17.7092 6.23077 17.8162 6.12976C17.9232 6.02875 18.0452 5.95491 18.1752 5.91244C18.3052 5.86997 18.4407 5.85972 18.5739 5.88226C18.7071 5.9048 18.8354 5.9597 18.9516 6.04382H18.9529ZM20.6259 15.8334L21.2195 16.1501C21.4214 16.2432 21.4378 16.2415 21.5647 16.1145C21.6694 16.01 21.7897 15.9321 21.9187 15.8852C22.0477 15.8384 22.1829 15.8236 22.3165 15.8416C22.4501 15.8596 22.5796 15.9101 22.6975 15.9902C22.8154 16.0703 22.9194 16.1784 23.0036 16.3084C23.0879 16.4384 23.1506 16.5878 23.1884 16.7479C23.2261 16.908 23.238 17.0758 23.2235 17.2416C23.209 17.4074 23.1683 17.5681 23.1038 17.7145C23.0393 17.8608 22.9521 17.9899 22.8474 18.0944C22.1064 18.8346 21.3382 18.9125 20.5099 18.5348L20.3093 18.4349L20.0091 18.2706C19.436 17.9488 19.2954 17.9318 18.9857 18.1774C18.8721 18.267 18.7455 18.3278 18.6131 18.3566C18.4806 18.3854 18.3448 18.3815 18.2135 18.3452C18.0823 18.3089 17.958 18.2408 17.848 18.1449C17.7379 18.049 17.6441 17.9271 17.572 17.7862C17.4999 17.6453 17.4508 17.4881 17.4276 17.3237C17.4044 17.1593 17.4075 16.9908 17.4368 16.8278C17.4661 16.6649 17.5209 16.5107 17.5982 16.3741C17.6755 16.2374 17.7737 16.121 17.8872 16.0315C18.8519 15.2727 19.6038 15.3083 20.6259 15.8334ZM12.6391 7.04818C12.8984 7.04827 13.148 7.17054 13.3374 7.39025C13.5269 7.60997 13.6421 7.91077 13.6598 8.23186C13.6775 8.55296 13.5963 8.87041 13.4327 9.12007C13.269 9.36973 13.0351 9.53299 12.7783 9.57686L12.6391 9.58871H9.78986C9.53056 9.58862 9.28095 9.46635 9.09148 9.24663C8.90201 9.02692 8.7868 8.72612 8.76912 8.40503C8.75145 8.08393 8.83263 7.76648 8.99627 7.51682C9.1599 7.26716 9.39379 7.1039 9.65067 7.06003L9.78986 7.04818H12.6391Z" fill="#8655FF" stroke="white" style="fill:#8655FF;fill:color(display-p3 0.5255 0.3333 1.0000);fill-opacity:1;stroke:white;stroke-opacity:1;" stroke-width="0.8" mask="url(#path-1-inside-1_781_4773)"/>
</svg>
