<svg width="48" height="48" viewBox="0 0 48 48" fill="none" xmlns="http://www.w3.org/2000/svg">
<path d="M4.09961 22.0006C5.03761 12.5506 12.5506 5.03761 22.0006 4.09961V8.12461C14.7636 9.02661 9.02661 14.7626 8.12461 22.0006H4.09961ZM4.09961 26.0006C5.03761 35.4496 12.5506 42.9636 22.0006 43.9006V39.8756C14.7636 38.9746 9.02661 33.2376 8.12461 26.0006H4.09961ZM39.8766 26.0006C38.9746 33.2376 33.2376 38.9746 26.0006 39.8766V43.9016C35.4496 42.9636 42.9636 35.4506 43.9016 26.0006H39.8766ZM43.9016 22.0006C42.9636 12.5506 35.4506 5.03761 26.0006 4.09961V8.12461C33.2376 9.02661 38.9746 14.7626 39.8766 22.0006H43.9016Z" fill="url(#paint0_linear_814_4902)" style=""/>
<path d="M23.6662 14.834C24.372 14.834 30.7777 20.2662 30.7777 26.0558C30.7777 27.9419 30.0284 29.7507 28.6948 31.0844C27.3611 32.4181 25.5523 33.1673 23.6662 33.1673C21.7801 33.1673 19.9713 32.4181 18.6376 31.0844C17.3039 29.7507 16.5547 27.9419 16.5547 26.0558C16.5547 20.3312 22.9594 14.834 23.6662 14.834ZM23.6662 26.4106C21.985 23.6221 19.2662 24.0007 18.388 26.0558C18.388 27.5133 18.9784 28.8333 19.9335 29.7876C20.4231 30.2786 21.0049 30.6679 21.6455 30.9333C22.2861 31.1987 22.9728 31.3349 23.6662 31.334C24.3596 31.3349 25.0463 31.1987 25.6869 30.9333C26.3275 30.6679 26.9093 30.2786 27.3989 29.7876C27.8896 29.298 28.2787 28.7163 28.544 28.0759C28.8092 27.4355 28.9453 26.749 28.9444 26.0558C28.2752 28.1834 25.3474 29.1982 23.6662 26.4106Z" fill="url(#paint1_linear_814_4902)" style=""/>
<defs>
<linearGradient id="paint0_linear_814_4902" x1="4.52281" y1="4.09961" x2="49.7762" y2="13.4625" gradientUnits="userSpaceOnUse">
<stop stop-color="#8655FF" style="stop-color:#8655FF;stop-color:color(display-p3 0.5255 0.3333 1.0000);stop-opacity:1;"/>
<stop offset="1" stop-color="#25E577" style="stop-color:#25E577;stop-color:color(display-p3 0.1451 0.8980 0.4667);stop-opacity:1;"/>
</linearGradient>
<linearGradient id="paint1_linear_814_4902" x1="16.7059" y1="14.834" x2="33.1456" y2="17.4728" gradientUnits="userSpaceOnUse">
<stop stop-color="#8655FF" style="stop-color:#8655FF;stop-color:color(display-p3 0.5255 0.3333 1.0000);stop-opacity:1;"/>
<stop offset="1" stop-color="#25E577" style="stop-color:#25E577;stop-color:color(display-p3 0.1451 0.8980 0.4667);stop-opacity:1;"/>
</linearGradient>
</defs>
</svg>
