<svg width="32" height="32" viewBox="0 0 32 32" fill="none" xmlns="http://www.w3.org/2000/svg">
<path d="M11.5498 27.7724C11.3886 29.3398 11.2242 29.5755 10.3089 29.5927C8.56865 29.6256 8.5591 29.6173 8.28372 27.7359C7.91007 27.7359 7.52306 27.7423 7.13627 27.7348C5.652 27.7062 4.67649 26.7403 4.67503 25.2563C4.66818 18.5216 4.66874 11.7868 4.67458 5.05221C4.67581 3.54548 5.67019 2.54403 7.1694 2.54223C13.0997 2.53538 19.03 2.53538 24.9603 2.54235C26.4603 2.54414 27.4516 3.5447 27.4529 5.05412C27.4586 11.7888 27.4592 18.5236 27.4523 25.2582C27.4507 26.7412 26.4744 27.7068 24.9892 27.7347C24.562 27.7427 24.1348 27.7359 23.825 27.7359C23.622 28.3285 23.5889 29.0096 23.2359 29.2953C22.8681 29.5931 22.1933 29.563 21.6497 29.5804C20.7969 29.6078 20.68 29.4048 20.421 27.7724H11.5498ZM26.1077 15.1493C26.1077 11.8176 26.1101 8.48582 26.1062 5.15397C26.1052 4.25741 25.7375 3.8887 24.8436 3.88825C18.9849 3.88555 13.1262 3.88544 7.26767 3.88847C6.4075 3.88892 6.02228 4.26527 6.02172 5.11522C6.01801 11.7975 6.01824 18.4797 6.02161 25.1619C6.02194 26.0238 6.38852 26.3824 7.25924 26.3868C8.56865 26.3934 9.87805 26.3888 11.1876 26.3888C15.7164 26.3888 20.2452 26.3898 24.7743 26.3879C25.7824 26.3874 26.1068 26.0557 26.1073 25.0322C26.1086 21.7379 26.1079 18.4436 26.1077 15.1493ZM9.28821 27.7659V28.6425H10.5679V27.7659H9.28821ZM21.4025 28.6628H22.7017V27.7871H21.4025V28.6628Z" fill="#8655FF" style="fill:#8655FF;fill:color(display-p3 0.5255 0.3333 1.0000);fill-opacity:1;"/>
<path d="M16.0924 24.9964C13.6986 24.9964 11.3047 24.9976 8.91088 24.9959C7.91763 24.9952 7.52488 24.6039 7.5232 23.5997C7.51927 21.3182 7.51927 19.0364 7.52331 16.7549C7.52511 15.7592 7.92987 15.3497 8.91425 15.3491C13.7206 15.3465 18.527 15.3465 23.3334 15.3492C24.3108 15.3498 24.724 15.7656 24.7264 16.7576C24.732 19.0391 24.7332 21.3209 24.7257 23.6024C24.7224 24.6097 24.3268 24.995 23.3298 24.9958C20.9176 24.9976 18.5049 24.9964 16.0924 24.9964ZM8.68593 23.833H23.5662V16.4973H8.68593V23.833ZM18.9161 7.70471C18.7905 7.87654 18.7072 8.02063 18.5958 8.13833C17.2473 9.56296 15.8942 10.9832 14.5435 12.4057C14.3385 12.6216 14.0847 12.8425 13.8494 12.5462C13.7556 12.4281 13.8381 12.0363 13.9724 11.8912C15.3171 10.4376 16.6839 9.00434 18.062 7.58241C18.1926 7.44775 18.439 7.39137 18.6383 7.37419C18.7148 7.36745 18.8097 7.57185 18.9161 7.70471ZM16.6075 12.1686C16.792 10.9935 17.5048 10.6467 18.5026 11.1823C18.9106 11.4013 19.3465 11.8254 19.6608 11.0347C19.7014 10.9326 20.0485 10.9524 20.2656 10.9137C20.2655 11.9338 19.6172 12.409 18.7631 12.0808C18.5036 11.9811 18.2711 11.7868 18.0065 11.7323C17.8129 11.6926 17.4386 11.7594 17.4011 11.8675C17.2453 12.3169 16.9532 12.2202 16.6075 12.1686ZM14.2059 8.92999C13.8697 8.92966 13.5288 8.96211 13.1998 8.9136C13.0692 8.89428 12.9652 8.69549 12.849 8.57836C12.9589 8.47369 13.0655 8.2831 13.1795 8.27849C13.8697 8.25057 14.5608 8.25105 15.2509 8.27995C15.3622 8.28467 15.4654 8.48031 15.5723 8.58757C15.453 8.7019 15.3453 8.89529 15.2122 8.91461C14.8829 8.96245 14.542 8.93022 14.2059 8.92999Z" fill="#8655FF" style="fill:#8655FF;fill:color(display-p3 0.5255 0.3333 1.0000);fill-opacity:1;"/>
<path d="M20.8281 18.3559C20.8241 17.7537 21.2339 17.3209 21.8207 17.3079C22.4287 17.2944 22.8712 17.7418 22.8638 18.3631C22.8567 18.9504 22.4215 19.3847 21.8415 19.3828C21.2604 19.3809 20.832 18.9468 20.8281 18.3559ZM21.8522 18.8644C22.0116 18.6145 22.1793 18.4678 22.1637 18.3442C22.1473 18.2149 21.9549 18.1078 21.8393 17.9909C21.7284 18.1117 21.5413 18.225 21.5283 18.3555C21.5163 18.479 21.687 18.6204 21.8522 18.8644Z" fill="#8655FF" style="fill:#8655FF;fill:color(display-p3 0.5255 0.3333 1.0000);fill-opacity:1;"/>
</svg>
