<svg width="32" height="32" viewBox="0 0 32 32" fill="none" xmlns="http://www.w3.org/2000/svg">
<path d="M4.2207 4.15039H27.7793C28.9201 4.15039 29.8496 5.07867 29.8496 6.2207V21.2178C29.8496 22.3599 28.92 23.2891 27.7793 23.2891H16.4971V27.0498H22.6582C22.8969 27.0498 23.1261 27.1447 23.2949 27.3135C23.4637 27.4823 23.5586 27.7115 23.5586 27.9502C23.5586 28.1887 23.4635 28.4172 23.2949 28.5859C23.1261 28.7547 22.8969 28.8496 22.6582 28.8496H9.3418C9.1031 28.8496 8.87386 28.7547 8.70508 28.5859C8.53652 28.4172 8.44144 28.1887 8.44141 27.9502C8.44141 27.7115 8.5363 27.4823 8.70508 27.3135C8.87386 27.1447 9.10312 27.0498 9.3418 27.0498H14.6973V22.4678L14.6992 22.458L14.6982 22.4434C14.6972 22.4266 14.694 22.4121 14.6914 22.4014C14.6893 22.3925 14.6867 22.3839 14.6855 22.3799C14.6881 22.1447 14.7827 21.9194 14.9492 21.7529C15.118 21.5842 15.3473 21.4893 15.5859 21.4893H27.7793C27.8151 21.4893 27.8508 21.4825 27.8838 21.4688C27.9168 21.455 27.9465 21.4346 27.9717 21.4092C27.9968 21.3837 28.0169 21.3535 28.0303 21.3203C28.0436 21.2872 28.0502 21.2516 28.0498 21.2158V6.2207C28.0498 6.07459 27.9291 5.9502 27.7793 5.9502H4.2207C4.07207 5.9502 3.9502 6.07206 3.9502 6.2207V21.2148C3.94981 21.2505 3.95635 21.2862 3.96973 21.3193C3.98313 21.3524 4.00323 21.3828 4.02832 21.4082C4.05342 21.4335 4.08333 21.454 4.11621 21.4678C4.14917 21.4815 4.18498 21.4883 4.2207 21.4883H6.59766L6.64258 21.4326L12.1445 14.6865C12.2205 14.5934 12.3147 14.5162 12.4209 14.46C12.5271 14.4038 12.644 14.3699 12.7637 14.3594C12.8833 14.3489 13.0038 14.3625 13.1182 14.3994C13.2039 14.4271 13.2849 14.4671 13.3584 14.5186L13.4297 14.5742L15.8477 16.6572L15.957 16.751L16.0547 16.6455L20.0215 12.3965L20.0898 12.3232L20.0479 12.2314C19.8504 11.8029 19.7344 11.3303 19.7344 10.8291C19.7354 9.93136 20.092 9.07058 20.7266 8.43555C21.3613 7.8006 22.2223 7.44296 23.1201 7.44141C24.0183 7.44247 24.8795 7.79952 25.5146 8.43457C26.1498 9.06968 26.5067 9.93093 26.5078 10.8291C26.5066 11.727 26.1497 12.5879 25.5146 13.2227C24.8795 13.8575 24.0182 14.2141 23.1201 14.2148C22.4923 14.2148 21.9098 14.032 21.4014 13.7295L21.2969 13.668L21.2148 13.7559L16.6826 18.6123C16.5241 18.7824 16.3055 18.8847 16.0732 18.8975C15.8412 18.9101 15.6136 18.8322 15.4375 18.6807L13.0723 16.6426L12.9561 16.542L12.8584 16.6611L7.72949 22.9463C7.72685 22.9481 7.72402 22.9506 7.7207 22.9531C7.71291 22.959 7.704 22.9679 7.69434 22.9785H7.69336C7.62648 23.0501 7.54863 23.1108 7.46289 23.1582L7.46094 23.1592C7.43594 23.1735 7.41367 23.1922 7.4043 23.1992C7.39492 23.2063 7.39069 23.2083 7.38965 23.209H7.38867C7.27464 23.2613 7.15085 23.2886 7.02539 23.2891H4.2207C3.07866 23.2891 2.15039 22.36 2.15039 21.2178V6.2207C2.15039 5.07861 3.07854 4.15039 4.2207 4.15039ZM23.1201 9.24121C22.2448 9.24136 21.5342 9.95417 21.5342 10.8291C21.534 11.1434 21.6273 11.4504 21.8018 11.7119C21.9763 11.9735 22.2242 12.1774 22.5146 12.2979C22.8052 12.4183 23.1251 12.4501 23.4336 12.3887C23.742 12.3273 24.0248 12.1755 24.2471 11.9531C24.4694 11.7306 24.6205 11.4472 24.6816 11.1387C24.7427 10.8303 24.7114 10.511 24.5908 10.2207C24.4701 9.9303 24.2657 9.68212 24.0039 9.50781C23.7747 9.35522 23.5106 9.26479 23.2373 9.24512L23.1201 9.24121Z" fill="#8655FF" stroke="white" style="fill:#8655FF;fill:color(display-p3 0.5255 0.3333 1.0000);fill-opacity:1;stroke:white;stroke-opacity:1;" stroke-width="0.3"/>
</svg>
