<svg width="32" height="32" viewBox="0 0 32 32" fill="none" xmlns="http://www.w3.org/2000/svg">
<g clip-path="url(#clip0_2307_6314)">
<path d="M24.1788 15.3949L24.1746 13.4251L22.3378 12.3569V6.31869L16 2.80469L9.6622 6.31869V12.3611L7.81 13.4251V15.4019L2 18.6247V25.6793L8.3378 29.1933L13.7558 26.1889L15.944 27.4615L18.2232 26.1763L23.6636 29.1947L30 25.6793V18.6261L24.1788 15.3949ZM8.3014 27.0863L3.6772 24.5887V19.7181L7.8086 17.5103V22.7337L11.9806 25.1585L8.3014 27.0863ZM11.3394 11.3979V7.41069L16.0196 4.91169L20.641 7.40929L20.6494 11.3741L16.0406 8.69589L11.3394 11.3979ZM23.6244 27.0863L20.0432 25.1501L24.1914 22.8107L24.1816 17.4879L28.3032 19.7139L28.313 24.6279L23.6244 27.0863Z" fill="#8655FF" style="fill:#8655FF;fill:color(display-p3 0.5255 0.3333 1.0000);fill-opacity:1;"/>
</g>
<defs>
<clipPath id="clip0_2307_6314">
<rect width="28" height="28" fill="white" style="fill:white;fill-opacity:1;" transform="translate(2 2)"/>
</clipPath>
</defs>
</svg>
