<svg width="32" height="32" viewBox="0 0 32 32" fill="none" xmlns="http://www.w3.org/2000/svg">
<foreignObject x="0" y="0" width="0" height="0"><div xmlns="http://www.w3.org/1999/xhtml" style="backdrop-filter:blur(4.09px);clip-path:url(#bgblur_1_444_2715_clip_path);height:100%;width:100%"></div></foreignObject><g data-figma-bg-blur-radius="8.18182">
<g clip-path="url(#clip0_444_2715)">
<mask id="path-1-inside-1_444_2715" fill="white">
<path d="M0 16C0 7.16344 7.16344 0 16 0C24.8366 0 32 7.16344 32 16C32 24.8366 24.8366 32 16 32C7.16344 32 0 24.8366 0 16Z"/>
</mask>
<path d="M0 16C0 7.16344 7.16344 0 16 0C24.8366 0 32 7.16344 32 16C32 24.8366 24.8366 32 16 32C7.16344 32 0 24.8366 0 16Z" fill="white" fill-opacity="0.1"/>
<g filter="url(#filter0_f_444_2715)">
<rect x="4.26562" y="8" width="23.4667" height="24" rx="11.7333" fill="#337FFF"/>
</g>
<path d="M19.6883 17.7659L20.1375 14.968H17.3709V13.1495C17.3709 12.3844 17.7571 11.6369 18.9922 11.6369H20.2677V9.25438C19.5249 9.13825 18.7744 9.07542 18.0221 9.06641C15.745 9.06641 14.2584 10.4085 14.2584 12.8347V14.968H11.7344V17.7659H14.2584V24.5331H17.3709V17.7659H19.6883Z" fill="white"/>
</g>
<g clip-path="url(#paint0_angular_444_2715_clip_path)" data-figma-skip-parse="true" mask="url(#path-1-inside-1_444_2715)"><g transform="matrix(0.01664 0.0036 -0.00314358 0.0145303 16.88 12.4)"><foreignObject x="-1572.3" y="-1572.3" width="3144.6" height="3144.6"><div xmlns="http://www.w3.org/1999/xhtml" style="background:conic-gradient(from 90deg,rgba(108, 108, 108, 0.5) 0deg,rgba(64, 64, 64, 0.5) 10.5206deg,rgba(64, 64, 64, 0.35) 32.1212deg,rgba(255, 255, 255, 0.5) 60.2813deg,rgba(255, 255, 255, 0.5) 107.788deg,rgba(64, 64, 64, 0.35) 187.591deg,rgba(249, 249, 249, 1) 207.58deg,rgba(255, 255, 255, 0.5) 287.308deg,rgba(249, 249, 249, 0.5) 327.047deg,rgba(108, 108, 108, 0.5) 360deg);height:100%;width:100%;opacity:0.5"></div></foreignObject></g></g><path d="M16 32V31.4545C7.46469 31.4545 0.545455 24.5353 0.545455 16H0H-0.545455C-0.545455 25.1378 6.8622 32.5455 16 32.5455V32ZM32 16H31.4545C31.4545 24.5353 24.5353 31.4545 16 31.4545V32V32.5455C25.1378 32.5455 32.5455 25.1378 32.5455 16H32ZM16 0V0.545455C24.5353 0.545455 31.4545 7.46469 31.4545 16H32H32.5455C32.5455 6.8622 25.1378 -0.545455 16 -0.545455V0ZM16 0V-0.545455C6.8622 -0.545455 -0.545455 6.8622 -0.545455 16H0H0.545455C0.545455 7.46469 7.46469 0.545455 16 0.545455V0Z" data-figma-gradient-fill="{&#34;type&#34;:&#34;GRADIENT_ANGULAR&#34;,&#34;stops&#34;:[{&#34;color&#34;:{&#34;r&#34;:0.25098040699958801,&#34;g&#34;:0.25098040699958801,&#34;b&#34;:0.25098040699958801,&#34;a&#34;:0.50},&#34;position&#34;:0.029223963618278503},{&#34;color&#34;:{&#34;r&#34;:0.25262922048568726,&#34;g&#34;:0.25262922048568726,&#34;b&#34;:0.25262922048568726,&#34;a&#34;:0.34999999403953552},&#34;position&#34;:0.089225620031356812},{&#34;color&#34;:{&#34;r&#34;:1.0,&#34;g&#34;:1.0,&#34;b&#34;:1.0,&#34;a&#34;:0.50},&#34;position&#34;:0.16744795441627502},{&#34;color&#34;:{&#34;r&#34;:1.0,&#34;g&#34;:1.0,&#34;b&#34;:1.0,&#34;a&#34;:0.50},&#34;position&#34;:0.29941025376319885},{&#34;color&#34;:{&#34;r&#34;:0.25098040699958801,&#34;g&#34;:0.25098040699958801,&#34;b&#34;:0.25098040699958801,&#34;a&#34;:0.34999999403953552},&#34;position&#34;:0.52108556032180786},{&#34;color&#34;:{&#34;r&#34;:0.97664386034011841,&#34;g&#34;:0.97664386034011841,&#34;b&#34;:0.97664386034011841,&#34;a&#34;:1.0},&#34;position&#34;:0.57661086320877075},{&#34;color&#34;:{&#34;r&#34;:1.0,&#34;g&#34;:1.0,&#34;b&#34;:1.0,&#34;a&#34;:0.50},&#34;position&#34;:0.79807692766189575},{&#34;color&#34;:{&#34;r&#34;:0.97647058963775635,&#34;g&#34;:0.97647058963775635,&#34;b&#34;:0.97647058963775635,&#34;a&#34;:0.50},&#34;position&#34;:0.90846514701843262}],&#34;stopsVar&#34;:[{&#34;color&#34;:{&#34;r&#34;:0.25098040699958801,&#34;g&#34;:0.25098040699958801,&#34;b&#34;:0.25098040699958801,&#34;a&#34;:0.50},&#34;position&#34;:0.029223963618278503},{&#34;color&#34;:{&#34;r&#34;:0.25262922048568726,&#34;g&#34;:0.25262922048568726,&#34;b&#34;:0.25262922048568726,&#34;a&#34;:0.34999999403953552},&#34;position&#34;:0.089225620031356812},{&#34;color&#34;:{&#34;r&#34;:1.0,&#34;g&#34;:1.0,&#34;b&#34;:1.0,&#34;a&#34;:0.50},&#34;position&#34;:0.16744795441627502},{&#34;color&#34;:{&#34;r&#34;:1.0,&#34;g&#34;:1.0,&#34;b&#34;:1.0,&#34;a&#34;:0.50},&#34;position&#34;:0.29941025376319885},{&#34;color&#34;:{&#34;r&#34;:0.25098040699958801,&#34;g&#34;:0.25098040699958801,&#34;b&#34;:0.25098040699958801,&#34;a&#34;:0.34999999403953552},&#34;position&#34;:0.52108556032180786},{&#34;color&#34;:{&#34;r&#34;:0.97664386034011841,&#34;g&#34;:0.97664386034011841,&#34;b&#34;:0.97664386034011841,&#34;a&#34;:1.0},&#34;position&#34;:0.57661086320877075},{&#34;color&#34;:{&#34;r&#34;:1.0,&#34;g&#34;:1.0,&#34;b&#34;:1.0,&#34;a&#34;:0.50},&#34;position&#34;:0.79807692766189575},{&#34;color&#34;:{&#34;r&#34;:0.97647058963775635,&#34;g&#34;:0.97647058963775635,&#34;b&#34;:0.97647058963775635,&#34;a&#34;:0.50},&#34;position&#34;:0.90846514701843262}],&#34;transform&#34;:{&#34;m00&#34;:33.280002593994141,&#34;m01&#34;:-6.2871656417846680,&#34;m02&#34;:3.3835821151733398,&#34;m10&#34;:7.2000012397766113,&#34;m11&#34;:29.060674667358398,&#34;m12&#34;:-5.7303385734558105},&#34;opacity&#34;:0.50,&#34;blendMode&#34;:&#34;NORMAL&#34;,&#34;visible&#34;:true}" mask="url(#path-1-inside-1_444_2715)"/>
</g>
<defs>
<clipPath id="bgblur_1_444_2715_clip_path" transform="translate(0 0)"><path d="M0 16C0 7.16344 7.16344 0 16 0C24.8366 0 32 7.16344 32 16C32 24.8366 24.8366 32 16 32C7.16344 32 0 24.8366 0 16Z"/>
</clipPath><filter id="filter0_f_444_2715" x="-6.64347" y="-2.90909" width="45.283" height="45.8182" filterUnits="userSpaceOnUse" color-interpolation-filters="sRGB">
<feFlood flood-opacity="0" result="BackgroundImageFix"/>
<feBlend mode="normal" in="SourceGraphic" in2="BackgroundImageFix" result="shape"/>
<feGaussianBlur stdDeviation="5.45455" result="effect1_foregroundBlur_444_2715"/>
</filter>
<clipPath id="paint0_angular_444_2715_clip_path"><path d="M16 32V31.4545C7.46469 31.4545 0.545455 24.5353 0.545455 16H0H-0.545455C-0.545455 25.1378 6.8622 32.5455 16 32.5455V32ZM32 16H31.4545C31.4545 24.5353 24.5353 31.4545 16 31.4545V32V32.5455C25.1378 32.5455 32.5455 25.1378 32.5455 16H32ZM16 0V0.545455C24.5353 0.545455 31.4545 7.46469 31.4545 16H32H32.5455C32.5455 6.8622 25.1378 -0.545455 16 -0.545455V0ZM16 0V-0.545455C6.8622 -0.545455 -0.545455 6.8622 -0.545455 16H0H0.545455C0.545455 7.46469 7.46469 0.545455 16 0.545455V0Z" mask="url(#path-1-inside-1_444_2715)"/></clipPath><clipPath id="clip0_444_2715">
<path d="M0 16C0 7.16344 7.16344 0 16 0C24.8366 0 32 7.16344 32 16C32 24.8366 24.8366 32 16 32C7.16344 32 0 24.8366 0 16Z" fill="white"/>
</clipPath>
</defs>
</svg>
