<svg width="24" height="24" viewBox="0 0 24 24" fill="none" xmlns="http://www.w3.org/2000/svg">
<path d="M18.7637 14.8115L19.2461 14.9414C18.8187 16.536 17.8771 17.9452 16.5674 18.9502C15.2576 19.9552 13.6529 20.5 12.002 20.5C10.351 20.5 8.74632 19.9552 7.43652 18.9502C6.12678 17.9452 5.18516 16.536 4.75781 14.9414L5.24023 14.8115L5.72363 14.6826C6.09401 16.0646 6.90982 17.2862 8.04492 18.1572C9.18008 19.0282 10.5711 19.5 12.002 19.5C13.4328 19.5 14.8238 19.0282 15.959 18.1572C17.0941 17.2862 17.9099 16.0646 18.2803 14.6826L18.7637 14.8115ZM12.002 3.5C12.2781 3.5 12.502 3.72386 12.502 4V11.959L16.6895 8.60938L17.3145 9.39062L12.002 13.6406L6.68945 9.39062L7.31445 8.60938L11.502 11.959V4C11.502 3.72386 11.7258 3.5 12.002 3.5Z" fill="#8655FF" style="fill:#8655FF;fill:color(display-p3 0.5255 0.3333 1.0000);fill-opacity:1;"/>
</svg>
