<svg width="26" height="26" viewBox="0 0 26 26" fill="none" xmlns="http://www.w3.org/2000/svg">
<path d="M23.7896 18.7681V19.6479C23.7896 20.7609 22.9077 21.6672 21.824 21.6673H4.12959C3.04591 21.6672 2.16406 20.761 2.16406 19.6465V18.7952L7.56655 13.7095L10.0835 16.296C10.8562 17.0896 11.8845 17.5271 12.9765 17.5272C13.5137 17.5286 14.0461 17.4202 14.5424 17.209C14.9767 17.0242 15.3761 16.7632 15.7229 16.4388L15.8701 16.2946L18.3999 13.6963L23.7896 18.7681ZM6.86931 12.9948L2.16406 17.4246V8.16003L6.86931 12.9948ZM23.7896 17.3976L19.0965 12.9823L23.7896 8.16072V17.3976ZM21.8639 4.33398C22.9462 4.33398 23.8306 5.23971 23.8307 6.35273V6.77492L15.216 15.6243C14.63 16.2261 13.849 16.558 13.0183 16.5581C12.189 16.5581 11.4081 16.2261 10.8206 15.6243L2.20659 6.77492V6.35273C2.20668 5.23971 3.08777 4.33398 4.17009 4.33398H21.8639Z" fill="#8655FF" style="fill:#8655FF;fill:color(display-p3 0.5255 0.3333 1.0000);fill-opacity:1;"/>
</svg>
