<svg width="32" height="32" viewBox="0 0 32 32" fill="none" xmlns="http://www.w3.org/2000/svg">
<path d="M29.9468 23.3203V24.4369C29.9468 25.8496 28.8071 26.9998 27.4067 27H4.54006C3.13961 26.9999 2 25.8496 2 24.4351V23.3546L8.98168 16.8997L12.2344 20.1826C13.2329 21.1898 14.5618 21.7452 15.973 21.7453C16.6672 21.747 17.3553 21.6095 17.9966 21.3414C18.5579 21.1068 19.074 20.7756 19.5222 20.3638L19.7124 20.1808L22.9817 16.883L29.9468 23.3203ZM8.08062 15.9925L2 21.615V9.85614L8.08062 15.9925ZM29.9468 21.5807L23.8819 15.9767L29.9468 9.85702V21.5807ZM27.4582 5C28.8569 5 29.9999 6.14957 30 7.56225V8.09811L18.8672 19.33C18.1098 20.0939 17.1005 20.5152 16.027 20.5152C14.9553 20.5152 13.9461 20.0938 13.1869 19.33L2.05495 8.09811V7.56225C2.05507 6.14957 3.19371 5 4.5924 5H27.4582Z" fill="white" style="fill:white;fill-opacity:1;"/>
</svg>
